<?xml version="1.0" encoding="UTF-8" standalone="no"?>
<!DOCTYPE svg PUBLIC "-//W3C//DTD SVG 1.1//EN"
 "http://www.w3.org/Graphics/SVG/1.1/DTD/svg11.dtd">
<!-- Generated by graphviz version 2.43.0 (0)
 -->
<!-- Title: snakemake_dag Pages: 1 -->
<svg width="368pt" height="188pt"
 viewBox="0.00 0.00 368.00 188.00" xmlns="http://www.w3.org/2000/svg" xmlns:xlink="http://www.w3.org/1999/xlink">
<g id="graph0" class="graph" transform="scale(1 1) rotate(0) translate(4 184)">
<title>snakemake_dag</title>
<polygon fill="white" stroke="transparent" points="-4,4 -4,-184 364,-184 364,4 -4,4"/>
<!-- 0 -->
<g id="node1" class="node">
<title>0</title>
<path fill="none" stroke="#56d8c9" stroke-width="2" d="M197,-36C197,-36 163,-36 163,-36 157,-36 151,-30 151,-24 151,-24 151,-12 151,-12 151,-6 157,0 163,0 163,0 197,0 197,0 203,0 209,-6 209,-12 209,-12 209,-24 209,-24 209,-30 203,-36 197,-36"/>
<text text-anchor="middle" x="180" y="-15.5" font-family="sans" font-size="10.00">all_align</text>
</g>
<!-- 1 -->
<g id="node2" class="node">
<title>1</title>
<path fill="none" stroke="#d85656" stroke-width="2" d="M159,-108C159,-108 107,-108 107,-108 101,-108 95,-102 95,-96 95,-96 95,-84 95,-84 95,-78 101,-72 107,-72 107,-72 159,-72 159,-72 165,-72 171,-78 171,-84 171,-84 171,-96 171,-96 171,-102 165,-108 159,-108"/>
<text text-anchor="middle" x="133" y="-87.5" font-family="sans" font-size="10.00">hisat2_align</text>
</g>
<!-- 1&#45;&gt;0 -->
<g id="edge1" class="edge">
<title>1&#45;&gt;0</title>
<path fill="none" stroke="grey" stroke-width="2" d="M144.62,-71.7C150.14,-63.47 156.85,-53.48 162.93,-44.42"/>
<polygon fill="grey" stroke="grey" stroke-width="2" points="165.85,-46.36 168.52,-36.1 160.04,-42.46 165.85,-46.36"/>
</g>
<!-- 2 -->
<g id="node3" class="node">
<title>2</title>
<path fill="none" stroke="#78d856" stroke-width="2" d="M94,-180C94,-180 12,-180 12,-180 6,-180 0,-174 0,-168 0,-168 0,-156 0,-156 0,-150 6,-144 12,-144 12,-144 94,-144 94,-144 100,-144 106,-150 106,-156 106,-156 106,-168 106,-168 106,-174 100,-180 94,-180"/>
<text text-anchor="middle" x="53" y="-165" font-family="sans" font-size="10.00">trimmomatic_trim</text>
<text text-anchor="middle" x="53" y="-154" font-family="sans" font-size="10.00">sample: Exp_2_3</text>
</g>
<!-- 2&#45;&gt;1 -->
<g id="edge3" class="edge">
<title>2&#45;&gt;1</title>
<path fill="none" stroke="grey" stroke-width="2" d="M72.78,-143.7C82.75,-134.97 95.01,-124.24 105.86,-114.75"/>
<polygon fill="grey" stroke="grey" stroke-width="2" points="108.23,-117.32 113.45,-108.1 103.62,-112.06 108.23,-117.32"/>
</g>
<!-- 3 -->
<g id="node4" class="node">
<title>3</title>
<path fill="none" stroke="#d8a456" stroke-width="2" d="M223.5,-180C223.5,-180 136.5,-180 136.5,-180 130.5,-180 124.5,-174 124.5,-168 124.5,-168 124.5,-156 124.5,-156 124.5,-150 130.5,-144 136.5,-144 136.5,-144 223.5,-144 223.5,-144 229.5,-144 235.5,-150 235.5,-156 235.5,-156 235.5,-168 235.5,-168 235.5,-174 229.5,-180 223.5,-180"/>
<text text-anchor="middle" x="180" y="-165" font-family="sans" font-size="10.00">hisat2_index</text>
<text text-anchor="middle" x="180" y="-154" font-family="sans" font-size="10.00">genome: WBcel235</text>
</g>
<!-- 3&#45;&gt;1 -->
<g id="edge4" class="edge">
<title>3&#45;&gt;1</title>
<path fill="none" stroke="grey" stroke-width="2" d="M168.38,-143.7C162.86,-135.47 156.15,-125.48 150.07,-116.42"/>
<polygon fill="grey" stroke="grey" stroke-width="2" points="152.96,-114.46 144.48,-108.1 147.15,-118.36 152.96,-114.46"/>
</g>
<!-- 4 -->
<g id="node5" class="node">
<title>4</title>
<path fill="none" stroke="#d85656" stroke-width="2" d="M253,-108C253,-108 201,-108 201,-108 195,-108 189,-102 189,-96 189,-96 189,-84 189,-84 189,-78 195,-72 201,-72 201,-72 253,-72 253,-72 259,-72 265,-78 265,-84 265,-84 265,-96 265,-96 265,-102 259,-108 253,-108"/>
<text text-anchor="middle" x="227" y="-87.5" font-family="sans" font-size="10.00">hisat2_align</text>
</g>
<!-- 3&#45;&gt;4 -->
<g id="edge6" class="edge">
<title>3&#45;&gt;4</title>
<path fill="none" stroke="grey" stroke-width="2" d="M191.62,-143.7C197.14,-135.47 203.85,-125.48 209.93,-116.42"/>
<polygon fill="grey" stroke="grey" stroke-width="2" points="212.85,-118.36 215.52,-108.1 207.04,-114.46 212.85,-118.36"/>
</g>
<!-- 4&#45;&gt;0 -->
<g id="edge2" class="edge">
<title>4&#45;&gt;0</title>
<path fill="none" stroke="grey" stroke-width="2" d="M215.38,-71.7C209.86,-63.47 203.15,-53.48 197.07,-44.42"/>
<polygon fill="grey" stroke="grey" stroke-width="2" points="199.96,-42.46 191.48,-36.1 194.15,-46.36 199.96,-42.46"/>
</g>
<!-- 5 -->
<g id="node6" class="node">
<title>5</title>
<path fill="none" stroke="#78d856" stroke-width="2" d="M348,-180C348,-180 266,-180 266,-180 260,-180 254,-174 254,-168 254,-168 254,-156 254,-156 254,-150 260,-144 266,-144 266,-144 348,-144 348,-144 354,-144 360,-150 360,-156 360,-156 360,-168 360,-168 360,-174 354,-180 348,-180"/>
<text text-anchor="middle" x="307" y="-165" font-family="sans" font-size="10.00">trimmomatic_trim</text>
<text text-anchor="middle" x="307" y="-154" font-family="sans" font-size="10.00">sample: Neg_1_2</text>
</g>
<!-- 5&#45;&gt;4 -->
<g id="edge5" class="edge">
<title>5&#45;&gt;4</title>
<path fill="none" stroke="grey" stroke-width="2" d="M287.22,-143.7C277.25,-134.97 264.99,-124.24 254.14,-114.75"/>
<polygon fill="grey" stroke="grey" stroke-width="2" points="256.38,-112.06 246.55,-108.1 251.77,-117.32 256.38,-112.06"/>
</g>
</g>
</svg>
