<?xml version="1.0" encoding="UTF-8" standalone="no"?>
<!DOCTYPE svg PUBLIC "-//W3C//DTD SVG 1.1//EN"
 "http://www.w3.org/Graphics/SVG/1.1/DTD/svg11.dtd">
<!-- Generated by graphviz version 14.1.2 (20260126.1125)
 -->
<!-- Title: snakemake_dag Pages: 1 -->
<svg width="1810pt" height="332pt"
 viewBox="0.00 0.00 1810.00 332.00" xmlns="http://www.w3.org/2000/svg" xmlns:xlink="http://www.w3.org/1999/xlink">
<g id="graph0" class="graph" transform="scale(1 1) rotate(0) translate(4 328)">
<title>snakemake_dag</title>
<polygon fill="white" stroke="none" points="-4,4 -4,-328 1805.62,-328 1805.62,4 -4,4"/>
<!-- 0 -->
<g id="node1" class="node">
<title>0</title>
<path fill="none" stroke="#d87d56" stroke-width="2" d="M1140.38,-36C1140.38,-36 1110.38,-36 1110.38,-36 1104.38,-36 1098.38,-30 1098.38,-24 1098.38,-24 1098.38,-12 1098.38,-12 1098.38,-6 1104.38,0 1110.38,0 1110.38,0 1140.38,0 1140.38,0 1146.38,0 1152.38,-6 1152.38,-12 1152.38,-12 1152.38,-24 1152.38,-24 1152.38,-30 1146.38,-36 1140.38,-36"/>
<text xml:space="preserve" text-anchor="middle" x="1125.38" y="-14.88" font-family="sans" font-size="10.00">all</text>
</g>
<!-- 1 -->
<g id="node2" class="node">
<title>1</title>
<path fill="none" stroke="#68d856" stroke-width="2" d="M303.38,-108C303.38,-108 251.38,-108 251.38,-108 245.38,-108 239.38,-102 239.38,-96 239.38,-96 239.38,-84 239.38,-84 239.38,-78 245.38,-72 251.38,-72 251.38,-72 303.38,-72 303.38,-72 309.38,-72 315.38,-78 315.38,-84 315.38,-84 315.38,-96 315.38,-96 315.38,-102 309.38,-108 303.38,-108"/>
<text xml:space="preserve" text-anchor="middle" x="277.38" y="-86.88" font-family="sans" font-size="10.00">multiqc_raw</text>
</g>
<!-- 1&#45;&gt;0 -->
<g id="edge1" class="edge">
<title>1&#45;&gt;0</title>
<path fill="none" stroke="grey" stroke-width="2" d="M316.37,-73.97C319.06,-73.22 321.74,-72.55 324.38,-72 472.21,-41.02 943.95,-24.51 1085.1,-20.17"/>
<polygon fill="grey" stroke="grey" stroke-width="2" points="1084.79,-23.68 1094.68,-19.88 1084.58,-16.68 1084.79,-23.68"/>
</g>
<!-- 2 -->
<g id="node3" class="node">
<title>2</title>
<path fill="none" stroke="#d8cb56" stroke-width="2" d="M112.75,-180C112.75,-180 12,-180 12,-180 6,-180 0,-174 0,-168 0,-168 0,-156 0,-156 0,-150 6,-144 12,-144 12,-144 112.75,-144 112.75,-144 118.75,-144 124.75,-150 124.75,-156 124.75,-156 124.75,-168 124.75,-168 124.75,-174 118.75,-180 112.75,-180"/>
<text xml:space="preserve" text-anchor="middle" x="62.38" y="-165.25" font-family="sans" font-size="10.00">fastqc_raw</text>
<text xml:space="preserve" text-anchor="middle" x="62.38" y="-152.5" font-family="sans" font-size="10.00">sample_pr: Exp_2_3_1</text>
</g>
<!-- 2&#45;&gt;1 -->
<g id="edge16" class="edge">
<title>2&#45;&gt;1</title>
<path fill="none" stroke="grey" stroke-width="2" d="M117.46,-143.06C151.11,-132.11 193.83,-118.2 226.65,-107.52"/>
<polygon fill="grey" stroke="grey" stroke-width="2" points="227.4,-110.95 235.82,-104.53 225.23,-104.3 227.4,-110.95"/>
</g>
<!-- 3 -->
<g id="node4" class="node">
<title>3</title>
<path fill="none" stroke="#d8cb56" stroke-width="2" d="M255.75,-180C255.75,-180 155,-180 155,-180 149,-180 143,-174 143,-168 143,-168 143,-156 143,-156 143,-150 149,-144 155,-144 155,-144 255.75,-144 255.75,-144 261.75,-144 267.75,-150 267.75,-156 267.75,-156 267.75,-168 267.75,-168 267.75,-174 261.75,-180 255.75,-180"/>
<text xml:space="preserve" text-anchor="middle" x="205.38" y="-165.25" font-family="sans" font-size="10.00">fastqc_raw</text>
<text xml:space="preserve" text-anchor="middle" x="205.38" y="-152.5" font-family="sans" font-size="10.00">sample_pr: Exp_2_3_2</text>
</g>
<!-- 3&#45;&gt;1 -->
<g id="edge17" class="edge">
<title>3&#45;&gt;1</title>
<path fill="none" stroke="grey" stroke-width="2" d="M223.54,-143.34C231.5,-135.6 241.01,-126.36 249.8,-117.81"/>
<polygon fill="grey" stroke="grey" stroke-width="2" points="252.06,-120.49 256.79,-111.01 247.18,-115.47 252.06,-120.49"/>
</g>
<!-- 4 -->
<g id="node5" class="node">
<title>4</title>
<path fill="none" stroke="#d8cb56" stroke-width="2" d="M400.5,-180C400.5,-180 298.25,-180 298.25,-180 292.25,-180 286.25,-174 286.25,-168 286.25,-168 286.25,-156 286.25,-156 286.25,-150 292.25,-144 298.25,-144 298.25,-144 400.5,-144 400.5,-144 406.5,-144 412.5,-150 412.5,-156 412.5,-156 412.5,-168 412.5,-168 412.5,-174 406.5,-180 400.5,-180"/>
<text xml:space="preserve" text-anchor="middle" x="349.38" y="-165.25" font-family="sans" font-size="10.00">fastqc_raw</text>
<text xml:space="preserve" text-anchor="middle" x="349.38" y="-152.5" font-family="sans" font-size="10.00">sample_pr: Neg_1_2_1</text>
</g>
<!-- 4&#45;&gt;1 -->
<g id="edge18" class="edge">
<title>4&#45;&gt;1</title>
<path fill="none" stroke="grey" stroke-width="2" d="M331.21,-143.34C323.25,-135.6 313.74,-126.36 304.95,-117.81"/>
<polygon fill="grey" stroke="grey" stroke-width="2" points="307.57,-115.47 297.96,-111.01 302.69,-120.49 307.57,-115.47"/>
</g>
<!-- 5 -->
<g id="node6" class="node">
<title>5</title>
<path fill="none" stroke="#d8cb56" stroke-width="2" d="M544.5,-180C544.5,-180 442.25,-180 442.25,-180 436.25,-180 430.25,-174 430.25,-168 430.25,-168 430.25,-156 430.25,-156 430.25,-150 436.25,-144 442.25,-144 442.25,-144 544.5,-144 544.5,-144 550.5,-144 556.5,-150 556.5,-156 556.5,-156 556.5,-168 556.5,-168 556.5,-174 550.5,-180 544.5,-180"/>
<text xml:space="preserve" text-anchor="middle" x="493.38" y="-165.25" font-family="sans" font-size="10.00">fastqc_raw</text>
<text xml:space="preserve" text-anchor="middle" x="493.38" y="-152.5" font-family="sans" font-size="10.00">sample_pr: Neg_1_2_2</text>
</g>
<!-- 5&#45;&gt;1 -->
<g id="edge19" class="edge">
<title>5&#45;&gt;1</title>
<path fill="none" stroke="grey" stroke-width="2" d="M434.12,-143.1C404.6,-134.03 368.1,-122.58 328.43,-109.31"/>
<polygon fill="grey" stroke="grey" stroke-width="2" points="329.78,-106.07 319.18,-106.2 327.54,-112.7 329.78,-106.07"/>
</g>
<!-- 6 -->
<g id="node7" class="node">
<title>6</title>
<path fill="none" stroke="#59d856" stroke-width="2" d="M1437.38,-180C1437.38,-180 1361.38,-180 1361.38,-180 1355.38,-180 1349.38,-174 1349.38,-168 1349.38,-168 1349.38,-156 1349.38,-156 1349.38,-150 1355.38,-144 1361.38,-144 1361.38,-144 1437.38,-144 1437.38,-144 1443.38,-144 1449.38,-150 1449.38,-156 1449.38,-156 1449.38,-168 1449.38,-168 1449.38,-174 1443.38,-180 1437.38,-180"/>
<text xml:space="preserve" text-anchor="middle" x="1399.38" y="-158.88" font-family="sans" font-size="10.00">multiqc_trimmed</text>
</g>
<!-- 6&#45;&gt;0 -->
<g id="edge2" class="edge">
<title>6&#45;&gt;0</title>
<path fill="none" stroke="grey" stroke-width="2" d="M1450.24,-154.35C1517.25,-143.61 1622,-118.75 1580.38,-72 1553.02,-41.27 1272.6,-25.59 1166.1,-20.71"/>
<polygon fill="grey" stroke="grey" stroke-width="2" points="1166.31,-17.21 1156.16,-20.26 1165.99,-24.21 1166.31,-17.21"/>
</g>
<!-- 7 -->
<g id="node8" class="node">
<title>7</title>
<path fill="none" stroke="#ced856" stroke-width="2" d="M1160,-252C1160,-252 1090.75,-252 1090.75,-252 1084.75,-252 1078.75,-246 1078.75,-240 1078.75,-240 1078.75,-228 1078.75,-228 1078.75,-222 1084.75,-216 1090.75,-216 1090.75,-216 1160,-216 1160,-216 1166,-216 1172,-222 1172,-228 1172,-228 1172,-240 1172,-240 1172,-246 1166,-252 1160,-252"/>
<text xml:space="preserve" text-anchor="middle" x="1125.38" y="-237.25" font-family="sans" font-size="10.00">fastqc_trimmed</text>
<text xml:space="preserve" text-anchor="middle" x="1125.38" y="-224.5" font-family="sans" font-size="10.00">type: R1</text>
</g>
<!-- 7&#45;&gt;6 -->
<g id="edge20" class="edge">
<title>7&#45;&gt;6</title>
<path fill="none" stroke="grey" stroke-width="2" d="M1172.71,-218.11C1175.3,-217.38 1177.86,-216.67 1180.38,-216 1246.95,-198.25 1267.54,-198.06 1336.17,-180.98"/>
<polygon fill="grey" stroke="grey" stroke-width="2" points="1336.81,-184.43 1345.64,-178.59 1335.09,-177.65 1336.81,-184.43"/>
</g>
<!-- 8 -->
<g id="node9" class="node">
<title>8</title>
<path fill="none" stroke="#566bd8" stroke-width="2" d="M1166,-324C1166,-324 1084.75,-324 1084.75,-324 1078.75,-324 1072.75,-318 1072.75,-312 1072.75,-312 1072.75,-300 1072.75,-300 1072.75,-294 1078.75,-288 1084.75,-288 1084.75,-288 1166,-288 1166,-288 1172,-288 1178,-294 1178,-300 1178,-300 1178,-312 1178,-312 1178,-318 1172,-324 1166,-324"/>
<text xml:space="preserve" text-anchor="middle" x="1125.38" y="-309.25" font-family="sans" font-size="10.00">trimmomatic_trim</text>
<text xml:space="preserve" text-anchor="middle" x="1125.38" y="-296.5" font-family="sans" font-size="10.00">sample: Exp_2_3</text>
</g>
<!-- 8&#45;&gt;7 -->
<g id="edge24" class="edge">
<title>8&#45;&gt;7</title>
<path fill="none" stroke="grey" stroke-width="2" d="M1125.38,-287.34C1125.38,-280.75 1125.38,-273.08 1125.38,-265.67"/>
<polygon fill="grey" stroke="grey" stroke-width="2" points="1128.88,-265.93 1125.38,-255.93 1121.88,-265.93 1128.88,-265.93"/>
</g>
<!-- 9 -->
<g id="node10" class="node">
<title>9</title>
<path fill="none" stroke="#ced856" stroke-width="2" d="M1271,-252C1271,-252 1201.75,-252 1201.75,-252 1195.75,-252 1189.75,-246 1189.75,-240 1189.75,-240 1189.75,-228 1189.75,-228 1189.75,-222 1195.75,-216 1201.75,-216 1201.75,-216 1271,-216 1271,-216 1277,-216 1283,-222 1283,-228 1283,-228 1283,-240 1283,-240 1283,-246 1277,-252 1271,-252"/>
<text xml:space="preserve" text-anchor="middle" x="1236.38" y="-237.25" font-family="sans" font-size="10.00">fastqc_trimmed</text>
<text xml:space="preserve" text-anchor="middle" x="1236.38" y="-224.5" font-family="sans" font-size="10.00">type: R2</text>
</g>
<!-- 8&#45;&gt;9 -->
<g id="edge25" class="edge">
<title>8&#45;&gt;9</title>
<path fill="none" stroke="grey" stroke-width="2" d="M1153.67,-287.15C1166.98,-278.76 1183.06,-268.62 1197.49,-259.52"/>
<polygon fill="grey" stroke="grey" stroke-width="2" points="1198.98,-262.72 1205.57,-254.43 1195.24,-256.8 1198.98,-262.72"/>
</g>
<!-- 15 -->
<g id="node16" class="node">
<title>15</title>
<path fill="none" stroke="#a7d856" stroke-width="2" d="M753,-252C753,-252 701.75,-252 701.75,-252 695.75,-252 689.75,-246 689.75,-240 689.75,-240 689.75,-228 689.75,-228 689.75,-222 695.75,-216 701.75,-216 701.75,-216 753,-216 753,-216 759,-216 765,-222 765,-228 765,-228 765,-240 765,-240 765,-246 759,-252 753,-252"/>
<text xml:space="preserve" text-anchor="middle" x="727.38" y="-230.88" font-family="sans" font-size="10.00">hisat2_align</text>
</g>
<!-- 8&#45;&gt;15 -->
<g id="edge30" class="edge">
<title>8&#45;&gt;15</title>
<path fill="none" stroke="grey" stroke-width="2" d="M1071.92,-300.38C1004.93,-293.85 886.57,-279.84 778.31,-253.02"/>
<polygon fill="grey" stroke="grey" stroke-width="2" points="779.33,-249.67 768.78,-250.61 777.61,-256.46 779.33,-249.67"/>
</g>
<!-- 23 -->
<g id="node24" class="node">
<title>23</title>
<path fill="none" stroke="#56d8d0" stroke-width="2" d="M1006.38,-180C1006.38,-180 966.38,-180 966.38,-180 960.38,-180 954.38,-174 954.38,-168 954.38,-168 954.38,-156 954.38,-156 954.38,-150 960.38,-144 966.38,-144 966.38,-144 1006.38,-144 1006.38,-144 1012.38,-144 1018.38,-150 1018.38,-156 1018.38,-156 1018.38,-168 1018.38,-168 1018.38,-174 1012.38,-180 1006.38,-180"/>
<text xml:space="preserve" text-anchor="middle" x="986.38" y="-158.88" font-family="sans" font-size="10.00">star_align</text>
</g>
<!-- 8&#45;&gt;23 -->
<g id="edge37" class="edge">
<title>8&#45;&gt;23</title>
<path fill="none" stroke="grey" stroke-width="2" d="M1072.07,-296.87C1023.56,-288.25 957.17,-272.98 941.38,-252 926.99,-232.89 941.24,-208.48 957.41,-190.06"/>
<polygon fill="grey" stroke="grey" stroke-width="2" points="959.77,-192.66 964.08,-182.98 954.67,-187.86 959.77,-192.66"/>
</g>
<!-- 29 -->
<g id="node30" class="node">
<title>29</title>
<path fill="none" stroke="#56d8a9" stroke-width="2" d="M1660.62,-252C1660.62,-252 1574.12,-252 1574.12,-252 1568.12,-252 1562.12,-246 1562.12,-240 1562.12,-240 1562.12,-228 1562.12,-228 1562.12,-222 1568.12,-216 1574.12,-216 1574.12,-216 1660.62,-216 1660.62,-216 1666.62,-216 1672.62,-222 1672.62,-228 1672.62,-228 1672.62,-240 1672.62,-240 1672.62,-246 1666.62,-252 1660.62,-252"/>
<text xml:space="preserve" text-anchor="middle" x="1617.38" y="-230.88" font-family="sans" font-size="10.00">salmon_expression</text>
</g>
<!-- 8&#45;&gt;29 -->
<g id="edge44" class="edge">
<title>8&#45;&gt;29</title>
<path fill="none" stroke="grey" stroke-width="2" d="M1178.79,-300.74C1257.76,-293.94 1410.49,-278.81 1548.8,-252.75"/>
<polygon fill="grey" stroke="grey" stroke-width="2" points="1549.15,-256.25 1558.31,-250.93 1547.83,-249.37 1549.15,-256.25"/>
</g>
<!-- 9&#45;&gt;6 -->
<g id="edge21" class="edge">
<title>9&#45;&gt;6</title>
<path fill="none" stroke="grey" stroke-width="2" d="M1277.93,-215.15C1298.54,-206.3 1323.68,-195.51 1345.73,-186.04"/>
<polygon fill="grey" stroke="grey" stroke-width="2" points="1347.03,-189.29 1354.83,-182.13 1344.26,-182.86 1347.03,-189.29"/>
</g>
<!-- 10 -->
<g id="node11" class="node">
<title>10</title>
<path fill="none" stroke="#ced856" stroke-width="2" d="M1421,-252C1421,-252 1351.75,-252 1351.75,-252 1345.75,-252 1339.75,-246 1339.75,-240 1339.75,-240 1339.75,-228 1339.75,-228 1339.75,-222 1345.75,-216 1351.75,-216 1351.75,-216 1421,-216 1421,-216 1427,-216 1433,-222 1433,-228 1433,-228 1433,-240 1433,-240 1433,-246 1427,-252 1421,-252"/>
<text xml:space="preserve" text-anchor="middle" x="1386.38" y="-237.25" font-family="sans" font-size="10.00">fastqc_trimmed</text>
<text xml:space="preserve" text-anchor="middle" x="1386.38" y="-224.5" font-family="sans" font-size="10.00">type: R1</text>
</g>
<!-- 10&#45;&gt;6 -->
<g id="edge22" class="edge">
<title>10&#45;&gt;6</title>
<path fill="none" stroke="grey" stroke-width="2" d="M1389.66,-215.34C1390.88,-208.75 1392.3,-201.08 1393.68,-193.67"/>
<polygon fill="grey" stroke="grey" stroke-width="2" points="1397.11,-194.35 1395.5,-183.88 1390.23,-193.07 1397.11,-194.35"/>
</g>
<!-- 11 -->
<g id="node12" class="node">
<title>11</title>
<path fill="none" stroke="#566bd8" stroke-width="2" d="M1427,-324C1427,-324 1345.75,-324 1345.75,-324 1339.75,-324 1333.75,-318 1333.75,-312 1333.75,-312 1333.75,-300 1333.75,-300 1333.75,-294 1339.75,-288 1345.75,-288 1345.75,-288 1427,-288 1427,-288 1433,-288 1439,-294 1439,-300 1439,-300 1439,-312 1439,-312 1439,-318 1433,-324 1427,-324"/>
<text xml:space="preserve" text-anchor="middle" x="1386.38" y="-309.25" font-family="sans" font-size="10.00">trimmomatic_trim</text>
<text xml:space="preserve" text-anchor="middle" x="1386.38" y="-296.5" font-family="sans" font-size="10.00">sample: Neg_1_2</text>
</g>
<!-- 11&#45;&gt;10 -->
<g id="edge26" class="edge">
<title>11&#45;&gt;10</title>
<path fill="none" stroke="grey" stroke-width="2" d="M1386.38,-287.34C1386.38,-280.75 1386.38,-273.08 1386.38,-265.67"/>
<polygon fill="grey" stroke="grey" stroke-width="2" points="1389.88,-265.93 1386.38,-255.93 1382.88,-265.93 1389.88,-265.93"/>
</g>
<!-- 12 -->
<g id="node13" class="node">
<title>12</title>
<path fill="none" stroke="#ced856" stroke-width="2" d="M1532,-252C1532,-252 1462.75,-252 1462.75,-252 1456.75,-252 1450.75,-246 1450.75,-240 1450.75,-240 1450.75,-228 1450.75,-228 1450.75,-222 1456.75,-216 1462.75,-216 1462.75,-216 1532,-216 1532,-216 1538,-216 1544,-222 1544,-228 1544,-228 1544,-240 1544,-240 1544,-246 1538,-252 1532,-252"/>
<text xml:space="preserve" text-anchor="middle" x="1497.38" y="-237.25" font-family="sans" font-size="10.00">fastqc_trimmed</text>
<text xml:space="preserve" text-anchor="middle" x="1497.38" y="-224.5" font-family="sans" font-size="10.00">type: R2</text>
</g>
<!-- 11&#45;&gt;12 -->
<g id="edge27" class="edge">
<title>11&#45;&gt;12</title>
<path fill="none" stroke="grey" stroke-width="2" d="M1414.67,-287.15C1427.98,-278.76 1444.06,-268.62 1458.49,-259.52"/>
<polygon fill="grey" stroke="grey" stroke-width="2" points="1459.98,-262.72 1466.57,-254.43 1456.24,-256.8 1459.98,-262.72"/>
</g>
<!-- 19 -->
<g id="node20" class="node">
<title>19</title>
<path fill="none" stroke="#a7d856" stroke-width="2" d="M846,-252C846,-252 794.75,-252 794.75,-252 788.75,-252 782.75,-246 782.75,-240 782.75,-240 782.75,-228 782.75,-228 782.75,-222 788.75,-216 794.75,-216 794.75,-216 846,-216 846,-216 852,-216 858,-222 858,-228 858,-228 858,-240 858,-240 858,-246 852,-252 846,-252"/>
<text xml:space="preserve" text-anchor="middle" x="820.38" y="-230.88" font-family="sans" font-size="10.00">hisat2_align</text>
</g>
<!-- 11&#45;&gt;19 -->
<g id="edge34" class="edge">
<title>11&#45;&gt;19</title>
<path fill="none" stroke="grey" stroke-width="2" d="M1332.9,-299C1249.3,-289.53 1082.57,-270.32 941.38,-252 918.47,-249.03 893.15,-245.51 871.62,-242.44"/>
<polygon fill="grey" stroke="grey" stroke-width="2" points="872.16,-238.98 861.76,-241.03 871.17,-245.91 872.16,-238.98"/>
</g>
<!-- 26 -->
<g id="node27" class="node">
<title>26</title>
<path fill="none" stroke="#56d8d0" stroke-width="2" d="M1319.38,-180C1319.38,-180 1279.38,-180 1279.38,-180 1273.38,-180 1267.38,-174 1267.38,-168 1267.38,-168 1267.38,-156 1267.38,-156 1267.38,-150 1273.38,-144 1279.38,-144 1279.38,-144 1319.38,-144 1319.38,-144 1325.38,-144 1331.38,-150 1331.38,-156 1331.38,-156 1331.38,-168 1331.38,-168 1331.38,-174 1325.38,-180 1319.38,-180"/>
<text xml:space="preserve" text-anchor="middle" x="1299.38" y="-158.88" font-family="sans" font-size="10.00">star_align</text>
</g>
<!-- 11&#45;&gt;26 -->
<g id="edge40" class="edge">
<title>11&#45;&gt;26</title>
<path fill="none" stroke="grey" stroke-width="2" d="M1362.86,-287.2C1351.73,-277.77 1339.03,-265.38 1330.38,-252 1318.78,-234.07 1310.95,-211.28 1306.06,-193.26"/>
<polygon fill="grey" stroke="grey" stroke-width="2" points="1309.51,-192.62 1303.68,-183.77 1302.72,-194.32 1309.51,-192.62"/>
</g>
<!-- 31 -->
<g id="node32" class="node">
<title>31</title>
<path fill="none" stroke="#56d8a9" stroke-width="2" d="M1789.62,-252C1789.62,-252 1703.12,-252 1703.12,-252 1697.12,-252 1691.12,-246 1691.12,-240 1691.12,-240 1691.12,-228 1691.12,-228 1691.12,-222 1697.12,-216 1703.12,-216 1703.12,-216 1789.62,-216 1789.62,-216 1795.62,-216 1801.62,-222 1801.62,-228 1801.62,-228 1801.62,-240 1801.62,-240 1801.62,-246 1795.62,-252 1789.62,-252"/>
<text xml:space="preserve" text-anchor="middle" x="1746.38" y="-230.88" font-family="sans" font-size="10.00">salmon_expression</text>
</g>
<!-- 11&#45;&gt;31 -->
<g id="edge46" class="edge">
<title>11&#45;&gt;31</title>
<path fill="none" stroke="grey" stroke-width="2" d="M1439.92,-296.67C1496.55,-287.57 1588.77,-271.95 1677.87,-252.67"/>
<polygon fill="grey" stroke="grey" stroke-width="2" points="1678.44,-256.13 1687.47,-250.58 1676.95,-249.29 1678.44,-256.13"/>
</g>
<!-- 12&#45;&gt;6 -->
<g id="edge23" class="edge">
<title>12&#45;&gt;6</title>
<path fill="none" stroke="grey" stroke-width="2" d="M1472.39,-215.15C1460.99,-207.01 1447.28,-197.22 1434.83,-188.33"/>
<polygon fill="grey" stroke="grey" stroke-width="2" points="1436.95,-185.54 1426.78,-182.57 1432.88,-191.23 1436.95,-185.54"/>
</g>
<!-- 13 -->
<g id="node14" class="node">
<title>13</title>
<path fill="none" stroke="#56a9d8" stroke-width="2" d="M417.12,-108C417.12,-108 345.62,-108 345.62,-108 339.62,-108 333.62,-102 333.62,-96 333.62,-96 333.62,-84 333.62,-84 333.62,-78 339.62,-72 345.62,-72 345.62,-72 417.12,-72 417.12,-72 423.12,-72 429.12,-78 429.12,-84 429.12,-84 429.12,-96 429.12,-96 429.12,-102 423.12,-108 417.12,-108"/>
<text xml:space="preserve" text-anchor="middle" x="381.38" y="-86.88" font-family="sans" font-size="10.00">stringtie_quality</text>
</g>
<!-- 13&#45;&gt;0 -->
<g id="edge3" class="edge">
<title>13&#45;&gt;0</title>
<path fill="none" stroke="grey" stroke-width="2" d="M430.03,-73.75C432.84,-73.1 435.63,-72.51 438.38,-72 680.64,-27.06 977.79,-20.13 1084.68,-19.13"/>
<polygon fill="grey" stroke="grey" stroke-width="2" points="1084.61,-22.63 1094.59,-19.06 1084.56,-15.63 1084.61,-22.63"/>
</g>
<!-- 14 -->
<g id="node15" class="node">
<title>14</title>
<path fill="none" stroke="#56b9d8" stroke-width="2" d="M714.88,-180C714.88,-180 623.88,-180 623.88,-180 617.88,-180 611.88,-174 611.88,-168 611.88,-168 611.88,-156 611.88,-156 611.88,-150 617.88,-144 623.88,-144 623.88,-144 714.88,-144 714.88,-144 720.88,-144 726.88,-150 726.88,-156 726.88,-156 726.88,-168 726.88,-168 726.88,-174 720.88,-180 714.88,-180"/>
<text xml:space="preserve" text-anchor="middle" x="669.38" y="-158.88" font-family="sans" font-size="10.00">stringtie_expression</text>
</g>
<!-- 14&#45;&gt;13 -->
<g id="edge28" class="edge">
<title>14&#45;&gt;13</title>
<path fill="none" stroke="grey" stroke-width="2" d="M611.21,-148.74C567.28,-139.24 505.22,-125.29 442.39,-108.98"/>
<polygon fill="grey" stroke="grey" stroke-width="2" points="443.31,-105.6 432.75,-106.45 441.54,-112.37 443.31,-105.6"/>
</g>
<!-- 15&#45;&gt;14 -->
<g id="edge29" class="edge">
<title>15&#45;&gt;14</title>
<path fill="none" stroke="grey" stroke-width="2" d="M712.74,-215.34C706.6,-207.93 699.32,-199.14 692.49,-190.9"/>
<polygon fill="grey" stroke="grey" stroke-width="2" points="695.21,-188.7 686.14,-183.23 689.82,-193.17 695.21,-188.7"/>
</g>
<!-- 16 -->
<g id="node17" class="node">
<title>16</title>
<path fill="none" stroke="#8fd856" stroke-width="2" d="M817.62,-324C817.62,-324 731.12,-324 731.12,-324 725.12,-324 719.12,-318 719.12,-312 719.12,-312 719.12,-300 719.12,-300 719.12,-294 725.12,-288 731.12,-288 731.12,-288 817.62,-288 817.62,-288 823.62,-288 829.62,-294 829.62,-300 829.62,-300 829.62,-312 829.62,-312 829.62,-318 823.62,-324 817.62,-324"/>
<text xml:space="preserve" text-anchor="middle" x="774.38" y="-309.25" font-family="sans" font-size="10.00">hisat2_index</text>
<text xml:space="preserve" text-anchor="middle" x="774.38" y="-296.5" font-family="sans" font-size="10.00">genome: WBcel235</text>
</g>
<!-- 16&#45;&gt;15 -->
<g id="edge31" class="edge">
<title>16&#45;&gt;15</title>
<path fill="none" stroke="grey" stroke-width="2" d="M762.51,-287.34C757.65,-280.1 751.9,-271.53 746.48,-263.45"/>
<polygon fill="grey" stroke="grey" stroke-width="2" points="749.56,-261.77 741.08,-255.41 743.75,-265.67 749.56,-261.77"/>
</g>
<!-- 16&#45;&gt;19 -->
<g id="edge35" class="edge">
<title>16&#45;&gt;19</title>
<path fill="none" stroke="grey" stroke-width="2" d="M785.98,-287.34C790.69,-280.18 796.24,-271.73 801.5,-263.73"/>
<polygon fill="grey" stroke="grey" stroke-width="2" points="804.38,-265.71 806.95,-255.43 798.53,-261.87 804.38,-265.71"/>
</g>
<!-- 17 -->
<g id="node18" class="node">
<title>17</title>
<path fill="none" stroke="#56a9d8" stroke-width="2" d="M531.12,-108C531.12,-108 459.62,-108 459.62,-108 453.62,-108 447.62,-102 447.62,-96 447.62,-96 447.62,-84 447.62,-84 447.62,-78 453.62,-72 459.62,-72 459.62,-72 531.12,-72 531.12,-72 537.12,-72 543.12,-78 543.12,-84 543.12,-84 543.12,-96 543.12,-96 543.12,-102 537.12,-108 531.12,-108"/>
<text xml:space="preserve" text-anchor="middle" x="495.38" y="-86.88" font-family="sans" font-size="10.00">stringtie_quality</text>
</g>
<!-- 17&#45;&gt;0 -->
<g id="edge4" class="edge">
<title>17&#45;&gt;0</title>
<path fill="none" stroke="grey" stroke-width="2" d="M544.04,-73.8C546.84,-73.14 549.64,-72.53 552.38,-72 749.64,-33.85 990.59,-22.93 1084.85,-20"/>
<polygon fill="grey" stroke="grey" stroke-width="2" points="1084.75,-23.51 1094.64,-19.72 1084.54,-16.51 1084.75,-23.51"/>
</g>
<!-- 18 -->
<g id="node19" class="node">
<title>18</title>
<path fill="none" stroke="#56b9d8" stroke-width="2" d="M847.88,-180C847.88,-180 756.88,-180 756.88,-180 750.88,-180 744.88,-174 744.88,-168 744.88,-168 744.88,-156 744.88,-156 744.88,-150 750.88,-144 756.88,-144 756.88,-144 847.88,-144 847.88,-144 853.88,-144 859.88,-150 859.88,-156 859.88,-156 859.88,-168 859.88,-168 859.88,-174 853.88,-180 847.88,-180"/>
<text xml:space="preserve" text-anchor="middle" x="802.38" y="-158.88" font-family="sans" font-size="10.00">stringtie_expression</text>
</g>
<!-- 18&#45;&gt;17 -->
<g id="edge32" class="edge">
<title>18&#45;&gt;17</title>
<path fill="none" stroke="grey" stroke-width="2" d="M743.95,-145.98C741.06,-145.3 738.18,-144.63 735.38,-144 658.45,-126.69 635.11,-127.71 556.64,-108.92"/>
<polygon fill="grey" stroke="grey" stroke-width="2" points="557.59,-105.55 547.05,-106.59 555.94,-112.35 557.59,-105.55"/>
</g>
<!-- 19&#45;&gt;18 -->
<g id="edge33" class="edge">
<title>19&#45;&gt;18</title>
<path fill="none" stroke="grey" stroke-width="2" d="M815.83,-215.34C814.12,-208.67 812.12,-200.89 810.19,-193.39"/>
<polygon fill="grey" stroke="grey" stroke-width="2" points="813.61,-192.65 807.73,-183.83 806.83,-194.39 813.61,-192.65"/>
</g>
<!-- 20 -->
<g id="node21" class="node">
<title>20</title>
<path fill="none" stroke="#567bd8" stroke-width="2" d="M767.62,-108C767.62,-108 693.12,-108 693.12,-108 687.12,-108 681.12,-102 681.12,-96 681.12,-96 681.12,-84 681.12,-84 681.12,-78 687.12,-72 693.12,-72 693.12,-72 767.62,-72 767.62,-72 773.62,-72 779.62,-78 779.62,-84 779.62,-84 779.62,-96 779.62,-96 779.62,-102 773.62,-108 767.62,-108"/>
<text xml:space="preserve" text-anchor="middle" x="730.38" y="-93.25" font-family="sans" font-size="10.00">trimgalore_trim</text>
<text xml:space="preserve" text-anchor="middle" x="730.38" y="-80.5" font-family="sans" font-size="10.00">sample: Exp_2_3</text>
</g>
<!-- 20&#45;&gt;0 -->
<g id="edge5" class="edge">
<title>20&#45;&gt;0</title>
<path fill="none" stroke="grey" stroke-width="2" d="M780.57,-73.86C783.2,-73.2 785.82,-72.57 788.38,-72 894.39,-48.23 1021.52,-31.31 1085.06,-23.63"/>
<polygon fill="grey" stroke="grey" stroke-width="2" points="1085.11,-27.15 1094.62,-22.49 1084.28,-20.2 1085.11,-27.15"/>
</g>
<!-- 21 -->
<g id="node22" class="node">
<title>21</title>
<path fill="none" stroke="#567bd8" stroke-width="2" d="M885.38,-108C885.38,-108 809.38,-108 809.38,-108 803.38,-108 797.38,-102 797.38,-96 797.38,-96 797.38,-84 797.38,-84 797.38,-78 803.38,-72 809.38,-72 809.38,-72 885.38,-72 885.38,-72 891.38,-72 897.38,-78 897.38,-84 897.38,-84 897.38,-96 897.38,-96 897.38,-102 891.38,-108 885.38,-108"/>
<text xml:space="preserve" text-anchor="middle" x="847.38" y="-93.25" font-family="sans" font-size="10.00">trimgalore_trim</text>
<text xml:space="preserve" text-anchor="middle" x="847.38" y="-80.5" font-family="sans" font-size="10.00">sample: Neg_1_2</text>
</g>
<!-- 21&#45;&gt;0 -->
<g id="edge6" class="edge">
<title>21&#45;&gt;0</title>
<path fill="none" stroke="grey" stroke-width="2" d="M898.19,-74.21C900.95,-73.45 903.7,-72.71 906.38,-72 968.54,-55.53 1041.17,-38.36 1085.19,-28.18"/>
<polygon fill="grey" stroke="grey" stroke-width="2" points="1085.71,-31.65 1094.67,-25.99 1084.14,-24.83 1085.71,-31.65"/>
</g>
<!-- 22 -->
<g id="node23" class="node">
<title>22</title>
<path fill="none" stroke="#80d856" stroke-width="2" d="M651.12,-108C651.12,-108 573.62,-108 573.62,-108 567.62,-108 561.62,-102 561.62,-96 561.62,-96 561.62,-84 561.62,-84 561.62,-78 567.62,-72 573.62,-72 573.62,-72 651.12,-72 651.12,-72 657.12,-72 663.12,-78 663.12,-84 663.12,-84 663.12,-96 663.12,-96 663.12,-102 657.12,-108 651.12,-108"/>
<text xml:space="preserve" text-anchor="middle" x="612.38" y="-86.88" font-family="sans" font-size="10.00">htseq_expression</text>
</g>
<!-- 22&#45;&gt;0 -->
<g id="edge7" class="edge">
<title>22&#45;&gt;0</title>
<path fill="none" stroke="grey" stroke-width="2" d="M663.96,-73.82C666.8,-73.16 669.61,-72.55 672.38,-72 822.88,-42.07 1005.1,-27.08 1084.78,-21.57"/>
<polygon fill="grey" stroke="grey" stroke-width="2" points="1084.8,-25.07 1094.54,-20.91 1084.32,-18.09 1084.8,-25.07"/>
</g>
<!-- 23&#45;&gt;22 -->
<g id="edge36" class="edge">
<title>23&#45;&gt;22</title>
<path fill="none" stroke="grey" stroke-width="2" d="M953.55,-155.92C888.73,-145.83 745.25,-123.12 676.67,-108.76"/>
<polygon fill="grey" stroke="grey" stroke-width="2" points="677.47,-105.36 666.95,-106.65 675.98,-112.2 677.47,-105.36"/>
</g>
<!-- 27 -->
<g id="node28" class="node">
<title>27</title>
<path fill="none" stroke="#b6d856" stroke-width="2" d="M1045.38,-108C1045.38,-108 927.38,-108 927.38,-108 921.38,-108 915.38,-102 915.38,-96 915.38,-96 915.38,-84 915.38,-84 915.38,-78 921.38,-72 927.38,-72 927.38,-72 1045.38,-72 1045.38,-72 1051.38,-72 1057.38,-78 1057.38,-84 1057.38,-84 1057.38,-96 1057.38,-96 1057.38,-102 1051.38,-108 1045.38,-108"/>
<text xml:space="preserve" text-anchor="middle" x="986.38" y="-86.88" font-family="sans" font-size="10.00">featurecounts_expression</text>
</g>
<!-- 23&#45;&gt;27 -->
<g id="edge42" class="edge">
<title>23&#45;&gt;27</title>
<path fill="none" stroke="grey" stroke-width="2" d="M986.38,-143.34C986.38,-136.75 986.38,-129.08 986.38,-121.67"/>
<polygon fill="grey" stroke="grey" stroke-width="2" points="989.88,-121.93 986.38,-111.93 982.88,-121.93 989.88,-121.93"/>
</g>
<!-- 32 -->
<g id="node33" class="node">
<title>32</title>
<path fill="none" stroke="#56d87b" stroke-width="2" d="M1163,-108C1163,-108 1087.75,-108 1087.75,-108 1081.75,-108 1075.75,-102 1075.75,-96 1075.75,-96 1075.75,-84 1075.75,-84 1075.75,-78 1081.75,-72 1087.75,-72 1087.75,-72 1163,-72 1163,-72 1169,-72 1175,-78 1175,-84 1175,-84 1175,-96 1175,-96 1175,-102 1169,-108 1163,-108"/>
<text xml:space="preserve" text-anchor="middle" x="1125.38" y="-86.88" font-family="sans" font-size="10.00">rsem_expression</text>
</g>
<!-- 23&#45;&gt;32 -->
<g id="edge48" class="edge">
<title>23&#45;&gt;32</title>
<path fill="none" stroke="grey" stroke-width="2" d="M1019.32,-144.41C1036.95,-135.53 1058.97,-124.44 1078.38,-114.67"/>
<polygon fill="grey" stroke="grey" stroke-width="2" points="1079.69,-117.93 1087.04,-110.3 1076.54,-111.67 1079.69,-117.93"/>
</g>
<!-- 24 -->
<g id="node25" class="node">
<title>24</title>
<path fill="none" stroke="#56d0d8" stroke-width="2" d="M1048.62,-252C1048.62,-252 962.12,-252 962.12,-252 956.12,-252 950.12,-246 950.12,-240 950.12,-240 950.12,-228 950.12,-228 950.12,-222 956.12,-216 962.12,-216 962.12,-216 1048.62,-216 1048.62,-216 1054.62,-216 1060.62,-222 1060.62,-228 1060.62,-228 1060.62,-240 1060.62,-240 1060.62,-246 1054.62,-252 1048.62,-252"/>
<text xml:space="preserve" text-anchor="middle" x="1005.38" y="-237.25" font-family="sans" font-size="10.00">star_index</text>
<text xml:space="preserve" text-anchor="middle" x="1005.38" y="-224.5" font-family="sans" font-size="10.00">genome: WBcel235</text>
</g>
<!-- 24&#45;&gt;23 -->
<g id="edge38" class="edge">
<title>24&#45;&gt;23</title>
<path fill="none" stroke="grey" stroke-width="2" d="M1000.58,-215.34C998.77,-208.67 996.66,-200.89 994.62,-193.39"/>
<polygon fill="grey" stroke="grey" stroke-width="2" points="998.02,-192.56 992.03,-183.82 991.27,-194.39 998.02,-192.56"/>
</g>
<!-- 24&#45;&gt;26 -->
<g id="edge41" class="edge">
<title>24&#45;&gt;26</title>
<path fill="none" stroke="grey" stroke-width="2" d="M1061.54,-217.96C1064.19,-217.29 1066.81,-216.63 1069.38,-216 1139.3,-198.75 1157.22,-196.28 1227.38,-180 1235.95,-178.01 1245.09,-175.87 1253.89,-173.8"/>
<polygon fill="grey" stroke="grey" stroke-width="2" points="1254.54,-177.24 1263.47,-171.54 1252.93,-170.43 1254.54,-177.24"/>
</g>
<!-- 25 -->
<g id="node26" class="node">
<title>25</title>
<path fill="none" stroke="#80d856" stroke-width="2" d="M1399.12,-108C1399.12,-108 1321.62,-108 1321.62,-108 1315.62,-108 1309.62,-102 1309.62,-96 1309.62,-96 1309.62,-84 1309.62,-84 1309.62,-78 1315.62,-72 1321.62,-72 1321.62,-72 1399.12,-72 1399.12,-72 1405.12,-72 1411.12,-78 1411.12,-84 1411.12,-84 1411.12,-96 1411.12,-96 1411.12,-102 1405.12,-108 1399.12,-108"/>
<text xml:space="preserve" text-anchor="middle" x="1360.38" y="-86.88" font-family="sans" font-size="10.00">htseq_expression</text>
</g>
<!-- 25&#45;&gt;0 -->
<g id="edge8" class="edge">
<title>25&#45;&gt;0</title>
<path fill="none" stroke="grey" stroke-width="2" d="M1308.8,-73.64C1265.74,-60.81 1205.2,-42.78 1165.64,-30.99"/>
<polygon fill="grey" stroke="grey" stroke-width="2" points="1166.82,-27.69 1156.23,-28.19 1164.82,-34.4 1166.82,-27.69"/>
</g>
<!-- 26&#45;&gt;25 -->
<g id="edge39" class="edge">
<title>26&#45;&gt;25</title>
<path fill="none" stroke="grey" stroke-width="2" d="M1314.77,-143.34C1321.29,-135.85 1329.05,-126.95 1336.3,-118.63"/>
<polygon fill="grey" stroke="grey" stroke-width="2" points="1338.86,-121.02 1342.79,-111.18 1333.58,-116.42 1338.86,-121.02"/>
</g>
<!-- 28 -->
<g id="node29" class="node">
<title>28</title>
<path fill="none" stroke="#b6d856" stroke-width="2" d="M1559.38,-108C1559.38,-108 1441.38,-108 1441.38,-108 1435.38,-108 1429.38,-102 1429.38,-96 1429.38,-96 1429.38,-84 1429.38,-84 1429.38,-78 1435.38,-72 1441.38,-72 1441.38,-72 1559.38,-72 1559.38,-72 1565.38,-72 1571.38,-78 1571.38,-84 1571.38,-84 1571.38,-96 1571.38,-96 1571.38,-102 1565.38,-108 1559.38,-108"/>
<text xml:space="preserve" text-anchor="middle" x="1500.38" y="-86.88" font-family="sans" font-size="10.00">featurecounts_expression</text>
</g>
<!-- 26&#45;&gt;28 -->
<g id="edge43" class="edge">
<title>26&#45;&gt;28</title>
<path fill="none" stroke="grey" stroke-width="2" d="M1331.96,-147.24C1334.8,-146.11 1337.63,-145.02 1340.38,-144 1369.76,-133.06 1402.57,-121.99 1430.8,-112.82"/>
<polygon fill="grey" stroke="grey" stroke-width="2" points="1431.68,-116.21 1440.12,-109.81 1429.53,-109.55 1431.68,-116.21"/>
</g>
<!-- 34 -->
<g id="node35" class="node">
<title>34</title>
<path fill="none" stroke="#56d87b" stroke-width="2" d="M1280,-108C1280,-108 1204.75,-108 1204.75,-108 1198.75,-108 1192.75,-102 1192.75,-96 1192.75,-96 1192.75,-84 1192.75,-84 1192.75,-78 1198.75,-72 1204.75,-72 1204.75,-72 1280,-72 1280,-72 1286,-72 1292,-78 1292,-84 1292,-84 1292,-96 1292,-96 1292,-102 1286,-108 1280,-108"/>
<text xml:space="preserve" text-anchor="middle" x="1242.38" y="-86.88" font-family="sans" font-size="10.00">rsem_expression</text>
</g>
<!-- 26&#45;&gt;34 -->
<g id="edge50" class="edge">
<title>26&#45;&gt;34</title>
<path fill="none" stroke="grey" stroke-width="2" d="M1284.99,-143.34C1278.96,-135.93 1271.81,-127.14 1265.1,-118.9"/>
<polygon fill="grey" stroke="grey" stroke-width="2" points="1267.89,-116.79 1258.86,-111.25 1262.46,-121.21 1267.89,-116.79"/>
</g>
<!-- 27&#45;&gt;0 -->
<g id="edge9" class="edge">
<title>27&#45;&gt;0</title>
<path fill="none" stroke="grey" stroke-width="2" d="M1021.81,-71.15C1041.35,-61.31 1065.67,-49.07 1085.83,-38.92"/>
<polygon fill="grey" stroke="grey" stroke-width="2" points="1087.39,-42.05 1094.75,-34.42 1084.24,-35.8 1087.39,-42.05"/>
</g>
<!-- 28&#45;&gt;0 -->
<g id="edge10" class="edge">
<title>28&#45;&gt;0</title>
<path fill="none" stroke="grey" stroke-width="2" d="M1428.44,-73.6C1425.72,-73.05 1423.02,-72.52 1420.38,-72 1329.61,-54.21 1222.67,-35.57 1165.77,-25.84"/>
<polygon fill="grey" stroke="grey" stroke-width="2" points="1166.52,-22.42 1156.07,-24.19 1165.34,-29.32 1166.52,-22.42"/>
</g>
<!-- 29&#45;&gt;0 -->
<g id="edge11" class="edge">
<title>29&#45;&gt;0</title>
<path fill="none" stroke="grey" stroke-width="2" d="M1621.72,-215C1628.59,-181.65 1637.56,-110.18 1599.38,-72 1568.95,-41.57 1275.44,-25.62 1166.13,-20.69"/>
<polygon fill="grey" stroke="grey" stroke-width="2" points="1166.32,-17.19 1156.17,-20.25 1166.01,-24.19 1166.32,-17.19"/>
</g>
<!-- 30 -->
<g id="node31" class="node">
<title>30</title>
<path fill="none" stroke="#56d8b9" stroke-width="2" d="M1724.62,-324C1724.62,-324 1638.12,-324 1638.12,-324 1632.12,-324 1626.12,-318 1626.12,-312 1626.12,-312 1626.12,-300 1626.12,-300 1626.12,-294 1632.12,-288 1638.12,-288 1638.12,-288 1724.62,-288 1724.62,-288 1730.62,-288 1736.62,-294 1736.62,-300 1736.62,-300 1736.62,-312 1736.62,-312 1736.62,-318 1730.62,-324 1724.62,-324"/>
<text xml:space="preserve" text-anchor="middle" x="1681.38" y="-309.25" font-family="sans" font-size="10.00">salmon_index</text>
<text xml:space="preserve" text-anchor="middle" x="1681.38" y="-296.5" font-family="sans" font-size="10.00">genome: WBcel235</text>
</g>
<!-- 30&#45;&gt;29 -->
<g id="edge45" class="edge">
<title>30&#45;&gt;29</title>
<path fill="none" stroke="grey" stroke-width="2" d="M1665.23,-287.34C1658.31,-279.77 1650.06,-270.75 1642.38,-262.35"/>
<polygon fill="grey" stroke="grey" stroke-width="2" points="1645.12,-260.15 1635.78,-255.14 1639.95,-264.88 1645.12,-260.15"/>
</g>
<!-- 30&#45;&gt;31 -->
<g id="edge47" class="edge">
<title>30&#45;&gt;31</title>
<path fill="none" stroke="grey" stroke-width="2" d="M1697.78,-287.34C1704.81,-279.77 1713.18,-270.75 1720.98,-262.35"/>
<polygon fill="grey" stroke="grey" stroke-width="2" points="1723.45,-264.83 1727.69,-255.12 1718.32,-260.07 1723.45,-264.83"/>
</g>
<!-- 31&#45;&gt;0 -->
<g id="edge12" class="edge">
<title>31&#45;&gt;0</title>
<path fill="none" stroke="grey" stroke-width="2" d="M1738.69,-215.13C1722.82,-180.66 1682.86,-105.45 1623.38,-72 1545.32,-28.11 1270.49,-20.54 1166.06,-19.25"/>
<polygon fill="grey" stroke="grey" stroke-width="2" points="1166.4,-15.76 1156.36,-19.15 1166.32,-22.76 1166.4,-15.76"/>
</g>
<!-- 32&#45;&gt;0 -->
<g id="edge13" class="edge">
<title>32&#45;&gt;0</title>
<path fill="none" stroke="grey" stroke-width="2" d="M1125.38,-71.34C1125.38,-64.75 1125.38,-57.08 1125.38,-49.67"/>
<polygon fill="grey" stroke="grey" stroke-width="2" points="1128.88,-49.93 1125.38,-39.93 1121.88,-49.93 1128.88,-49.93"/>
</g>
<!-- 33 -->
<g id="node34" class="node">
<title>33</title>
<path fill="none" stroke="#56d892" stroke-width="2" d="M1206.62,-180C1206.62,-180 1120.12,-180 1120.12,-180 1114.12,-180 1108.12,-174 1108.12,-168 1108.12,-168 1108.12,-156 1108.12,-156 1108.12,-150 1114.12,-144 1120.12,-144 1120.12,-144 1206.62,-144 1206.62,-144 1212.62,-144 1218.62,-150 1218.62,-156 1218.62,-156 1218.62,-168 1218.62,-168 1218.62,-174 1212.62,-180 1206.62,-180"/>
<text xml:space="preserve" text-anchor="middle" x="1163.38" y="-165.25" font-family="sans" font-size="10.00">rsem_reference</text>
<text xml:space="preserve" text-anchor="middle" x="1163.38" y="-152.5" font-family="sans" font-size="10.00">genome: WBcel235</text>
</g>
<!-- 33&#45;&gt;32 -->
<g id="edge49" class="edge">
<title>33&#45;&gt;32</title>
<path fill="none" stroke="grey" stroke-width="2" d="M1153.79,-143.34C1149.99,-136.34 1145.52,-128.12 1141.27,-120.28"/>
<polygon fill="grey" stroke="grey" stroke-width="2" points="1144.38,-118.68 1136.54,-111.56 1138.23,-122.02 1144.38,-118.68"/>
</g>
<!-- 33&#45;&gt;34 -->
<g id="edge51" class="edge">
<title>33&#45;&gt;34</title>
<path fill="none" stroke="grey" stroke-width="2" d="M1183.31,-143.34C1192.13,-135.52 1202.69,-126.16 1212.43,-117.53"/>
<polygon fill="grey" stroke="grey" stroke-width="2" points="1214.74,-120.16 1219.91,-110.91 1210.1,-114.92 1214.74,-120.16"/>
</g>
<!-- 34&#45;&gt;0 -->
<g id="edge14" class="edge">
<title>34&#45;&gt;0</title>
<path fill="none" stroke="grey" stroke-width="2" d="M1212.55,-71.15C1197.84,-62.35 1179.92,-51.63 1164.16,-42.2"/>
<polygon fill="grey" stroke="grey" stroke-width="2" points="1166.11,-39.3 1155.74,-37.16 1162.52,-45.3 1166.11,-39.3"/>
</g>
<!-- 35 -->
<g id="node36" class="node">
<title>35</title>
<path fill="none" stroke="#d85656" stroke-width="2" d="M1779.75,-108C1779.75,-108 1715,-108 1715,-108 1709,-108 1703,-102 1703,-96 1703,-96 1703,-84 1703,-84 1703,-78 1709,-72 1715,-72 1715,-72 1779.75,-72 1779.75,-72 1785.75,-72 1791.75,-78 1791.75,-84 1791.75,-84 1791.75,-96 1791.75,-96 1791.75,-102 1785.75,-108 1779.75,-108"/>
<text xml:space="preserve" text-anchor="middle" x="1747.38" y="-86.88" font-family="sans" font-size="10.00">aggregate_dge</text>
</g>
<!-- 35&#45;&gt;0 -->
<g id="edge15" class="edge">
<title>35&#45;&gt;0</title>
<path fill="none" stroke="grey" stroke-width="2" d="M1702.3,-74.88C1697.96,-73.8 1693.6,-72.81 1689.38,-72 1495.78,-34.89 1259.61,-23.4 1166.2,-20.16"/>
<polygon fill="grey" stroke="grey" stroke-width="2" points="1166.36,-16.67 1156.25,-19.83 1166.13,-23.66 1166.36,-16.67"/>
</g>
</g>
</svg>
