<?xml version="1.0" encoding="UTF-8" standalone="no"?>
<!DOCTYPE svg PUBLIC "-//W3C//DTD SVG 1.1//EN"
 "http://www.w3.org/Graphics/SVG/1.1/DTD/svg11.dtd">
<!-- Generated by graphviz version 2.43.0 (0)
 -->
<!-- Title: snakemake_dag Pages: 1 -->
<svg width="368pt" height="332pt"
 viewBox="0.00 0.00 368.00 332.00" xmlns="http://www.w3.org/2000/svg" xmlns:xlink="http://www.w3.org/1999/xlink">
<g id="graph0" class="graph" transform="scale(1 1) rotate(0) translate(4 328)">
<title>snakemake_dag</title>
<polygon fill="white" stroke="transparent" points="-4,4 -4,-328 364,-328 364,4 -4,4"/>
<!-- 0 -->
<g id="node1" class="node">
<title>0</title>
<path fill="none" stroke="#d8a456" stroke-width="2" d="M211.5,-36C211.5,-36 148.5,-36 148.5,-36 142.5,-36 136.5,-30 136.5,-24 136.5,-24 136.5,-12 136.5,-12 136.5,-6 142.5,0 148.5,0 148.5,0 211.5,0 211.5,0 217.5,0 223.5,-6 223.5,-12 223.5,-12 223.5,-24 223.5,-24 223.5,-30 217.5,-36 211.5,-36"/>
<text text-anchor="middle" x="180" y="-15.5" font-family="sans" font-size="10.00">all_expression</text>
</g>
<!-- 1 -->
<g id="node2" class="node">
<title>1</title>
<path fill="none" stroke="#78d856" stroke-width="2" d="M159,-108C159,-108 87,-108 87,-108 81,-108 75,-102 75,-96 75,-96 75,-84 75,-84 75,-78 81,-72 87,-72 87,-72 159,-72 159,-72 165,-72 171,-78 171,-84 171,-84 171,-96 171,-96 171,-102 165,-108 159,-108"/>
<text text-anchor="middle" x="123" y="-87.5" font-family="sans" font-size="10.00">stringtie_quality</text>
</g>
<!-- 1&#45;&gt;0 -->
<g id="edge1" class="edge">
<title>1&#45;&gt;0</title>
<path fill="none" stroke="grey" stroke-width="2" d="M137.09,-71.7C143.92,-63.3 152.26,-53.07 159.76,-43.86"/>
<polygon fill="grey" stroke="grey" stroke-width="2" points="162.47,-46.07 166.07,-36.1 157.04,-41.65 162.47,-46.07"/>
</g>
<!-- 2 -->
<g id="node3" class="node">
<title>2</title>
<path fill="none" stroke="#56a2d8" stroke-width="2" d="M159,-180C159,-180 67,-180 67,-180 61,-180 55,-174 55,-168 55,-168 55,-156 55,-156 55,-150 61,-144 67,-144 67,-144 159,-144 159,-144 165,-144 171,-150 171,-156 171,-156 171,-168 171,-168 171,-174 165,-180 159,-180"/>
<text text-anchor="middle" x="113" y="-159.5" font-family="sans" font-size="10.00">stringtie_expression</text>
</g>
<!-- 2&#45;&gt;1 -->
<g id="edge3" class="edge">
<title>2&#45;&gt;1</title>
<path fill="none" stroke="grey" stroke-width="2" d="M115.47,-143.7C116.57,-135.98 117.9,-126.71 119.13,-118.11"/>
<polygon fill="grey" stroke="grey" stroke-width="2" points="122.61,-118.5 120.56,-108.1 115.68,-117.51 122.61,-118.5"/>
</g>
<!-- 3 -->
<g id="node4" class="node">
<title>3</title>
<path fill="none" stroke="#567bd8" stroke-width="2" d="M139,-252C139,-252 87,-252 87,-252 81,-252 75,-246 75,-240 75,-240 75,-228 75,-228 75,-222 81,-216 87,-216 87,-216 139,-216 139,-216 145,-216 151,-222 151,-228 151,-228 151,-240 151,-240 151,-246 145,-252 139,-252"/>
<text text-anchor="middle" x="113" y="-231.5" font-family="sans" font-size="10.00">hisat2_align</text>
</g>
<!-- 3&#45;&gt;2 -->
<g id="edge4" class="edge">
<title>3&#45;&gt;2</title>
<path fill="none" stroke="grey" stroke-width="2" d="M113,-215.7C113,-207.98 113,-198.71 113,-190.11"/>
<polygon fill="grey" stroke="grey" stroke-width="2" points="116.5,-190.1 113,-180.1 109.5,-190.1 116.5,-190.1"/>
</g>
<!-- 4 -->
<g id="node5" class="node">
<title>4</title>
<path fill="none" stroke="#59d856" stroke-width="2" d="M94,-324C94,-324 12,-324 12,-324 6,-324 0,-318 0,-312 0,-312 0,-300 0,-300 0,-294 6,-288 12,-288 12,-288 94,-288 94,-288 100,-288 106,-294 106,-300 106,-300 106,-312 106,-312 106,-318 100,-324 94,-324"/>
<text text-anchor="middle" x="53" y="-309" font-family="sans" font-size="10.00">trimmomatic_trim</text>
<text text-anchor="middle" x="53" y="-298" font-family="sans" font-size="10.00">sample: Exp_2_3</text>
</g>
<!-- 4&#45;&gt;3 -->
<g id="edge5" class="edge">
<title>4&#45;&gt;3</title>
<path fill="none" stroke="grey" stroke-width="2" d="M67.83,-287.7C75.02,-279.3 83.8,-269.07 91.69,-259.86"/>
<polygon fill="grey" stroke="grey" stroke-width="2" points="94.49,-261.97 98.34,-252.1 89.17,-257.42 94.49,-261.97"/>
</g>
<!-- 5 -->
<g id="node6" class="node">
<title>5</title>
<path fill="none" stroke="#d85656" stroke-width="2" d="M223.5,-324C223.5,-324 136.5,-324 136.5,-324 130.5,-324 124.5,-318 124.5,-312 124.5,-312 124.5,-300 124.5,-300 124.5,-294 130.5,-288 136.5,-288 136.5,-288 223.5,-288 223.5,-288 229.5,-288 235.5,-294 235.5,-300 235.5,-300 235.5,-312 235.5,-312 235.5,-318 229.5,-324 223.5,-324"/>
<text text-anchor="middle" x="180" y="-309" font-family="sans" font-size="10.00">hisat2_index</text>
<text text-anchor="middle" x="180" y="-298" font-family="sans" font-size="10.00">genome: WBcel235</text>
</g>
<!-- 5&#45;&gt;3 -->
<g id="edge6" class="edge">
<title>5&#45;&gt;3</title>
<path fill="none" stroke="grey" stroke-width="2" d="M163.44,-287.7C155.32,-279.22 145.41,-268.86 136.53,-259.58"/>
<polygon fill="grey" stroke="grey" stroke-width="2" points="138.81,-256.91 129.37,-252.1 133.76,-261.75 138.81,-256.91"/>
</g>
<!-- 8 -->
<g id="node9" class="node">
<title>8</title>
<path fill="none" stroke="#567bd8" stroke-width="2" d="M273,-252C273,-252 221,-252 221,-252 215,-252 209,-246 209,-240 209,-240 209,-228 209,-228 209,-222 215,-216 221,-216 221,-216 273,-216 273,-216 279,-216 285,-222 285,-228 285,-228 285,-240 285,-240 285,-246 279,-252 273,-252"/>
<text text-anchor="middle" x="247" y="-231.5" font-family="sans" font-size="10.00">hisat2_align</text>
</g>
<!-- 5&#45;&gt;8 -->
<g id="edge10" class="edge">
<title>5&#45;&gt;8</title>
<path fill="none" stroke="grey" stroke-width="2" d="M196.56,-287.7C204.68,-279.22 214.59,-268.86 223.47,-259.58"/>
<polygon fill="grey" stroke="grey" stroke-width="2" points="226.24,-261.75 230.63,-252.1 221.19,-256.91 226.24,-261.75"/>
</g>
<!-- 6 -->
<g id="node7" class="node">
<title>6</title>
<path fill="none" stroke="#78d856" stroke-width="2" d="M278,-108C278,-108 206,-108 206,-108 200,-108 194,-102 194,-96 194,-96 194,-84 194,-84 194,-78 200,-72 206,-72 206,-72 278,-72 278,-72 284,-72 290,-78 290,-84 290,-84 290,-96 290,-96 290,-102 284,-108 278,-108"/>
<text text-anchor="middle" x="242" y="-87.5" font-family="sans" font-size="10.00">stringtie_quality</text>
</g>
<!-- 6&#45;&gt;0 -->
<g id="edge2" class="edge">
<title>6&#45;&gt;0</title>
<path fill="none" stroke="grey" stroke-width="2" d="M226.67,-71.7C219.24,-63.3 210.18,-53.07 202.02,-43.86"/>
<polygon fill="grey" stroke="grey" stroke-width="2" points="204.4,-41.27 195.15,-36.1 199.16,-45.91 204.4,-41.27"/>
</g>
<!-- 7 -->
<g id="node8" class="node">
<title>7</title>
<path fill="none" stroke="#56a2d8" stroke-width="2" d="M293,-180C293,-180 201,-180 201,-180 195,-180 189,-174 189,-168 189,-168 189,-156 189,-156 189,-150 195,-144 201,-144 201,-144 293,-144 293,-144 299,-144 305,-150 305,-156 305,-156 305,-168 305,-168 305,-174 299,-180 293,-180"/>
<text text-anchor="middle" x="247" y="-159.5" font-family="sans" font-size="10.00">stringtie_expression</text>
</g>
<!-- 7&#45;&gt;6 -->
<g id="edge7" class="edge">
<title>7&#45;&gt;6</title>
<path fill="none" stroke="grey" stroke-width="2" d="M245.76,-143.7C245.21,-135.98 244.55,-126.71 243.94,-118.11"/>
<polygon fill="grey" stroke="grey" stroke-width="2" points="247.43,-117.83 243.22,-108.1 240.44,-118.33 247.43,-117.83"/>
</g>
<!-- 8&#45;&gt;7 -->
<g id="edge8" class="edge">
<title>8&#45;&gt;7</title>
<path fill="none" stroke="grey" stroke-width="2" d="M247,-215.7C247,-207.98 247,-198.71 247,-190.11"/>
<polygon fill="grey" stroke="grey" stroke-width="2" points="250.5,-190.1 247,-180.1 243.5,-190.1 250.5,-190.1"/>
</g>
<!-- 9 -->
<g id="node10" class="node">
<title>9</title>
<path fill="none" stroke="#59d856" stroke-width="2" d="M348,-324C348,-324 266,-324 266,-324 260,-324 254,-318 254,-312 254,-312 254,-300 254,-300 254,-294 260,-288 266,-288 266,-288 348,-288 348,-288 354,-288 360,-294 360,-300 360,-300 360,-312 360,-312 360,-318 354,-324 348,-324"/>
<text text-anchor="middle" x="307" y="-309" font-family="sans" font-size="10.00">trimmomatic_trim</text>
<text text-anchor="middle" x="307" y="-298" font-family="sans" font-size="10.00">sample: Neg_1_2</text>
</g>
<!-- 9&#45;&gt;8 -->
<g id="edge9" class="edge">
<title>9&#45;&gt;8</title>
<path fill="none" stroke="grey" stroke-width="2" d="M292.17,-287.7C284.98,-279.3 276.2,-269.07 268.31,-259.86"/>
<polygon fill="grey" stroke="grey" stroke-width="2" points="270.83,-257.42 261.66,-252.1 265.51,-261.97 270.83,-257.42"/>
</g>
</g>
</svg>
