<?xml version="1.0" encoding="UTF-8" standalone="no"?>
<!DOCTYPE svg PUBLIC "-//W3C//DTD SVG 1.1//EN"
 "http://www.w3.org/Graphics/SVG/1.1/DTD/svg11.dtd">
<!-- Generated by graphviz version 2.43.0 (0)
 -->
<!-- Title: snakemake_dag Pages: 1 -->
<svg width="1243pt" height="332pt"
 viewBox="0.00 0.00 1242.50 332.00" xmlns="http://www.w3.org/2000/svg" xmlns:xlink="http://www.w3.org/1999/xlink">
<g id="graph0" class="graph" transform="scale(1 1) rotate(0) translate(4 328)">
<title>snakemake_dag</title>
<polygon fill="white" stroke="transparent" points="-4,4 -4,-328 1238.5,-328 1238.5,4 -4,4"/>
<!-- 0 -->
<g id="node1" class="node">
<title>0</title>
<path fill="none" stroke="#d8a456" stroke-width="2" d="M884.5,-36C884.5,-36 854.5,-36 854.5,-36 848.5,-36 842.5,-30 842.5,-24 842.5,-24 842.5,-12 842.5,-12 842.5,-6 848.5,0 854.5,0 854.5,0 884.5,0 884.5,0 890.5,0 896.5,-6 896.5,-12 896.5,-12 896.5,-24 896.5,-24 896.5,-30 890.5,-36 884.5,-36"/>
<text text-anchor="middle" x="869.5" y="-15.5" font-family="sans" font-size="10.00">all</text>
</g>
<!-- 1 -->
<g id="node2" class="node">
<title>1</title>
<path fill="none" stroke="#d8c356" stroke-width="2" d="M376,-108C376,-108 323,-108 323,-108 317,-108 311,-102 311,-96 311,-96 311,-84 311,-84 311,-78 317,-72 323,-72 323,-72 376,-72 376,-72 382,-72 388,-78 388,-84 388,-84 388,-96 388,-96 388,-102 382,-108 376,-108"/>
<text text-anchor="middle" x="349.5" y="-87.5" font-family="sans" font-size="10.00">multiqc_raw</text>
</g>
<!-- 1&#45;&gt;0 -->
<g id="edge1" class="edge">
<title>1&#45;&gt;0</title>
<path fill="none" stroke="grey" stroke-width="2" d="M388.16,-83.8C485.03,-70.76 737.19,-36.81 832.39,-24"/>
<polygon fill="grey" stroke="grey" stroke-width="2" points="832.97,-27.45 842.42,-22.65 832.04,-20.51 832.97,-27.45"/>
</g>
<!-- 2 -->
<g id="node3" class="node">
<title>2</title>
<path fill="none" stroke="#56d8c9" stroke-width="2" d="M113,-180C113,-180 12,-180 12,-180 6,-180 0,-174 0,-168 0,-168 0,-156 0,-156 0,-150 6,-144 12,-144 12,-144 113,-144 113,-144 119,-144 125,-150 125,-156 125,-156 125,-168 125,-168 125,-174 119,-180 113,-180"/>
<text text-anchor="middle" x="62.5" y="-165" font-family="sans" font-size="10.00">fastqc_raw</text>
<text text-anchor="middle" x="62.5" y="-154" font-family="sans" font-size="10.00">sample_pr: Exp_2_3_1</text>
</g>
<!-- 2&#45;&gt;1 -->
<g id="edge5" class="edge">
<title>2&#45;&gt;1</title>
<path fill="none" stroke="grey" stroke-width="2" d="M125.13,-145.72C177.94,-132.84 252.46,-114.67 300.87,-102.86"/>
<polygon fill="grey" stroke="grey" stroke-width="2" points="301.91,-106.21 310.79,-100.44 300.25,-99.41 301.91,-106.21"/>
</g>
<!-- 3 -->
<g id="node4" class="node">
<title>3</title>
<path fill="none" stroke="#56d8c9" stroke-width="2" d="M256,-180C256,-180 155,-180 155,-180 149,-180 143,-174 143,-168 143,-168 143,-156 143,-156 143,-150 149,-144 155,-144 155,-144 256,-144 256,-144 262,-144 268,-150 268,-156 268,-156 268,-168 268,-168 268,-174 262,-180 256,-180"/>
<text text-anchor="middle" x="205.5" y="-165" font-family="sans" font-size="10.00">fastqc_raw</text>
<text text-anchor="middle" x="205.5" y="-154" font-family="sans" font-size="10.00">sample_pr: Exp_2_3_2</text>
</g>
<!-- 3&#45;&gt;1 -->
<g id="edge6" class="edge">
<title>3&#45;&gt;1</title>
<path fill="none" stroke="grey" stroke-width="2" d="M240.73,-143.88C260.08,-134.47 284.27,-122.71 304.93,-112.67"/>
<polygon fill="grey" stroke="grey" stroke-width="2" points="306.67,-115.71 314.14,-108.19 303.61,-109.41 306.67,-115.71"/>
</g>
<!-- 4 -->
<g id="node5" class="node">
<title>4</title>
<path fill="none" stroke="#56d8c9" stroke-width="2" d="M401,-180C401,-180 298,-180 298,-180 292,-180 286,-174 286,-168 286,-168 286,-156 286,-156 286,-150 292,-144 298,-144 298,-144 401,-144 401,-144 407,-144 413,-150 413,-156 413,-156 413,-168 413,-168 413,-174 407,-180 401,-180"/>
<text text-anchor="middle" x="349.5" y="-165" font-family="sans" font-size="10.00">fastqc_raw</text>
<text text-anchor="middle" x="349.5" y="-154" font-family="sans" font-size="10.00">sample_pr: Neg_1_2_1</text>
</g>
<!-- 4&#45;&gt;1 -->
<g id="edge7" class="edge">
<title>4&#45;&gt;1</title>
<path fill="none" stroke="grey" stroke-width="2" d="M349.5,-143.7C349.5,-135.98 349.5,-126.71 349.5,-118.11"/>
<polygon fill="grey" stroke="grey" stroke-width="2" points="353,-118.1 349.5,-108.1 346,-118.1 353,-118.1"/>
</g>
<!-- 5 -->
<g id="node6" class="node">
<title>5</title>
<path fill="none" stroke="#56d8c9" stroke-width="2" d="M546,-180C546,-180 443,-180 443,-180 437,-180 431,-174 431,-168 431,-168 431,-156 431,-156 431,-150 437,-144 443,-144 443,-144 546,-144 546,-144 552,-144 558,-150 558,-156 558,-156 558,-168 558,-168 558,-174 552,-180 546,-180"/>
<text text-anchor="middle" x="494.5" y="-165" font-family="sans" font-size="10.00">fastqc_raw</text>
<text text-anchor="middle" x="494.5" y="-154" font-family="sans" font-size="10.00">sample_pr: Neg_1_2_2</text>
</g>
<!-- 5&#45;&gt;1 -->
<g id="edge8" class="edge">
<title>5&#45;&gt;1</title>
<path fill="none" stroke="grey" stroke-width="2" d="M459.03,-143.88C439.38,-134.39 414.78,-122.51 393.87,-112.42"/>
<polygon fill="grey" stroke="grey" stroke-width="2" points="395.38,-109.26 384.86,-108.07 392.34,-115.57 395.38,-109.26"/>
</g>
<!-- 6 -->
<g id="node7" class="node">
<title>6</title>
<path fill="none" stroke="#d85656" stroke-width="2" d="M813,-108C813,-108 736,-108 736,-108 730,-108 724,-102 724,-96 724,-96 724,-84 724,-84 724,-78 730,-72 736,-72 736,-72 813,-72 813,-72 819,-72 825,-78 825,-84 825,-84 825,-96 825,-96 825,-102 819,-108 813,-108"/>
<text text-anchor="middle" x="774.5" y="-87.5" font-family="sans" font-size="10.00">multiqc_trimmed</text>
</g>
<!-- 6&#45;&gt;0 -->
<g id="edge2" class="edge">
<title>6&#45;&gt;0</title>
<path fill="none" stroke="grey" stroke-width="2" d="M797.98,-71.7C810.06,-62.8 824.95,-51.82 838.02,-42.2"/>
<polygon fill="grey" stroke="grey" stroke-width="2" points="840.31,-44.85 846.29,-36.1 836.16,-39.22 840.31,-44.85"/>
</g>
<!-- 7 -->
<g id="node8" class="node">
<title>7</title>
<path fill="none" stroke="#59d856" stroke-width="2" d="M487.5,-252C487.5,-252 417.5,-252 417.5,-252 411.5,-252 405.5,-246 405.5,-240 405.5,-240 405.5,-228 405.5,-228 405.5,-222 411.5,-216 417.5,-216 417.5,-216 487.5,-216 487.5,-216 493.5,-216 499.5,-222 499.5,-228 499.5,-228 499.5,-240 499.5,-240 499.5,-246 493.5,-252 487.5,-252"/>
<text text-anchor="middle" x="452.5" y="-237" font-family="sans" font-size="10.00">fastqc_trimmed</text>
<text text-anchor="middle" x="452.5" y="-226" font-family="sans" font-size="10.00">type: R1</text>
</g>
<!-- 7&#45;&gt;6 -->
<g id="edge9" class="edge">
<title>7&#45;&gt;6</title>
<path fill="none" stroke="grey" stroke-width="2" d="M498.97,-215.93C520.51,-206.91 545.85,-194.66 566.5,-180 584.7,-167.08 582.46,-155.63 601.5,-144 635.78,-123.06 678.98,-109.81 713.63,-101.8"/>
<polygon fill="grey" stroke="grey" stroke-width="2" points="714.63,-105.17 723.63,-99.58 713.11,-98.33 714.63,-105.17"/>
</g>
<!-- 8 -->
<g id="node9" class="node">
<title>8</title>
<path fill="none" stroke="#9fd856" stroke-width="2" d="M657.5,-324C657.5,-324 575.5,-324 575.5,-324 569.5,-324 563.5,-318 563.5,-312 563.5,-312 563.5,-300 563.5,-300 563.5,-294 569.5,-288 575.5,-288 575.5,-288 657.5,-288 657.5,-288 663.5,-288 669.5,-294 669.5,-300 669.5,-300 669.5,-312 669.5,-312 669.5,-318 663.5,-324 657.5,-324"/>
<text text-anchor="middle" x="616.5" y="-309" font-family="sans" font-size="10.00">trimmomatic_trim</text>
<text text-anchor="middle" x="616.5" y="-298" font-family="sans" font-size="10.00">sample: Exp_2_3</text>
</g>
<!-- 8&#45;&gt;7 -->
<g id="edge15" class="edge">
<title>8&#45;&gt;7</title>
<path fill="none" stroke="grey" stroke-width="2" d="M576.38,-287.88C553.86,-278.26 525.58,-266.19 501.73,-256.01"/>
<polygon fill="grey" stroke="grey" stroke-width="2" points="503.06,-252.77 492.49,-252.07 500.31,-259.21 503.06,-252.77"/>
</g>
<!-- 9 -->
<g id="node10" class="node">
<title>9</title>
<path fill="none" stroke="#59d856" stroke-width="2" d="M599.5,-252C599.5,-252 529.5,-252 529.5,-252 523.5,-252 517.5,-246 517.5,-240 517.5,-240 517.5,-228 517.5,-228 517.5,-222 523.5,-216 529.5,-216 529.5,-216 599.5,-216 599.5,-216 605.5,-216 611.5,-222 611.5,-228 611.5,-228 611.5,-240 611.5,-240 611.5,-246 605.5,-252 599.5,-252"/>
<text text-anchor="middle" x="564.5" y="-237" font-family="sans" font-size="10.00">fastqc_trimmed</text>
<text text-anchor="middle" x="564.5" y="-226" font-family="sans" font-size="10.00">type: R2</text>
</g>
<!-- 8&#45;&gt;9 -->
<g id="edge16" class="edge">
<title>8&#45;&gt;9</title>
<path fill="none" stroke="grey" stroke-width="2" d="M603.65,-287.7C597.47,-279.39 589.96,-269.28 583.18,-260.14"/>
<polygon fill="grey" stroke="grey" stroke-width="2" points="585.98,-258.04 577.21,-252.1 580.36,-262.22 585.98,-258.04"/>
</g>
<!-- 11 -->
<g id="node12" class="node">
<title>11</title>
<path fill="none" stroke="#78d856" stroke-width="2" d="M695,-252C695,-252 642,-252 642,-252 636,-252 630,-246 630,-240 630,-240 630,-228 630,-228 630,-222 636,-216 642,-216 642,-216 695,-216 695,-216 701,-216 707,-222 707,-228 707,-228 707,-240 707,-240 707,-246 701,-252 695,-252"/>
<text text-anchor="middle" x="668.5" y="-231.5" font-family="sans" font-size="10.00">trim_join_SE</text>
</g>
<!-- 8&#45;&gt;11 -->
<g id="edge18" class="edge">
<title>8&#45;&gt;11</title>
<path fill="none" stroke="grey" stroke-width="2" d="M629.35,-287.7C635.53,-279.39 643.04,-269.28 649.82,-260.14"/>
<polygon fill="grey" stroke="grey" stroke-width="2" points="652.64,-262.22 655.79,-252.1 647.02,-258.04 652.64,-262.22"/>
</g>
<!-- 19 -->
<g id="node20" class="node">
<title>19</title>
<path fill="none" stroke="#567bd8" stroke-width="2" d="M1109.5,-252C1109.5,-252 1057.5,-252 1057.5,-252 1051.5,-252 1045.5,-246 1045.5,-240 1045.5,-240 1045.5,-228 1045.5,-228 1045.5,-222 1051.5,-216 1057.5,-216 1057.5,-216 1109.5,-216 1109.5,-216 1115.5,-216 1121.5,-222 1121.5,-228 1121.5,-228 1121.5,-240 1121.5,-240 1121.5,-246 1115.5,-252 1109.5,-252"/>
<text text-anchor="middle" x="1083.5" y="-231.5" font-family="sans" font-size="10.00">hisat2_align</text>
</g>
<!-- 8&#45;&gt;19 -->
<g id="edge25" class="edge">
<title>8&#45;&gt;19</title>
<path fill="none" stroke="grey" stroke-width="2" d="M669.74,-301.93C749.95,-296.5 906.2,-282.7 1035.5,-252 1035.6,-251.98 1035.7,-251.95 1035.81,-251.93"/>
<polygon fill="grey" stroke="grey" stroke-width="2" points="1036.74,-255.3 1045.47,-249.3 1034.9,-248.55 1036.74,-255.3"/>
</g>
<!-- 9&#45;&gt;6 -->
<g id="edge10" class="edge">
<title>9&#45;&gt;6</title>
<path fill="none" stroke="grey" stroke-width="2" d="M576.03,-215.78C589.98,-196.09 615.14,-164.02 643.5,-144 664.82,-128.95 691.03,-117.26 714.39,-108.73"/>
<polygon fill="grey" stroke="grey" stroke-width="2" points="715.6,-112.02 723.87,-105.39 713.27,-105.42 715.6,-112.02"/>
</g>
<!-- 10 -->
<g id="node11" class="node">
<title>10</title>
<path fill="none" stroke="#59d856" stroke-width="2" d="M734.5,-180C734.5,-180 664.5,-180 664.5,-180 658.5,-180 652.5,-174 652.5,-168 652.5,-168 652.5,-156 652.5,-156 652.5,-150 658.5,-144 664.5,-144 664.5,-144 734.5,-144 734.5,-144 740.5,-144 746.5,-150 746.5,-156 746.5,-156 746.5,-168 746.5,-168 746.5,-174 740.5,-180 734.5,-180"/>
<text text-anchor="middle" x="699.5" y="-165" font-family="sans" font-size="10.00">fastqc_trimmed</text>
<text text-anchor="middle" x="699.5" y="-154" font-family="sans" font-size="10.00">type: SE</text>
</g>
<!-- 10&#45;&gt;6 -->
<g id="edge11" class="edge">
<title>10&#45;&gt;6</title>
<path fill="none" stroke="grey" stroke-width="2" d="M718.04,-143.7C727.3,-135.05 738.66,-124.45 748.76,-115.03"/>
<polygon fill="grey" stroke="grey" stroke-width="2" points="751.25,-117.49 756.17,-108.1 746.48,-112.37 751.25,-117.49"/>
</g>
<!-- 11&#45;&gt;10 -->
<g id="edge17" class="edge">
<title>11&#45;&gt;10</title>
<path fill="none" stroke="grey" stroke-width="2" d="M676.16,-215.7C679.69,-207.73 683.96,-198.1 687.87,-189.26"/>
<polygon fill="grey" stroke="grey" stroke-width="2" points="691.08,-190.67 691.93,-180.1 684.68,-187.83 691.08,-190.67"/>
</g>
<!-- 12 -->
<g id="node13" class="node">
<title>12</title>
<path fill="none" stroke="#59d856" stroke-width="2" d="M807.5,-252C807.5,-252 737.5,-252 737.5,-252 731.5,-252 725.5,-246 725.5,-240 725.5,-240 725.5,-228 725.5,-228 725.5,-222 731.5,-216 737.5,-216 737.5,-216 807.5,-216 807.5,-216 813.5,-216 819.5,-222 819.5,-228 819.5,-228 819.5,-240 819.5,-240 819.5,-246 813.5,-252 807.5,-252"/>
<text text-anchor="middle" x="772.5" y="-237" font-family="sans" font-size="10.00">fastqc_trimmed</text>
<text text-anchor="middle" x="772.5" y="-226" font-family="sans" font-size="10.00">type: R1</text>
</g>
<!-- 12&#45;&gt;6 -->
<g id="edge12" class="edge">
<title>12&#45;&gt;6</title>
<path fill="none" stroke="grey" stroke-width="2" d="M772.74,-215.87C773.08,-191.67 773.71,-147.21 774.11,-118.39"/>
<polygon fill="grey" stroke="grey" stroke-width="2" points="777.62,-118.24 774.26,-108.19 770.62,-118.14 777.62,-118.24"/>
</g>
<!-- 13 -->
<g id="node14" class="node">
<title>13</title>
<path fill="none" stroke="#9fd856" stroke-width="2" d="M977.5,-324C977.5,-324 895.5,-324 895.5,-324 889.5,-324 883.5,-318 883.5,-312 883.5,-312 883.5,-300 883.5,-300 883.5,-294 889.5,-288 895.5,-288 895.5,-288 977.5,-288 977.5,-288 983.5,-288 989.5,-294 989.5,-300 989.5,-300 989.5,-312 989.5,-312 989.5,-318 983.5,-324 977.5,-324"/>
<text text-anchor="middle" x="936.5" y="-309" font-family="sans" font-size="10.00">trimmomatic_trim</text>
<text text-anchor="middle" x="936.5" y="-298" font-family="sans" font-size="10.00">sample: Neg_1_2</text>
</g>
<!-- 13&#45;&gt;12 -->
<g id="edge19" class="edge">
<title>13&#45;&gt;12</title>
<path fill="none" stroke="grey" stroke-width="2" d="M896.38,-287.88C873.86,-278.26 845.58,-266.19 821.73,-256.01"/>
<polygon fill="grey" stroke="grey" stroke-width="2" points="823.06,-252.77 812.49,-252.07 820.31,-259.21 823.06,-252.77"/>
</g>
<!-- 14 -->
<g id="node15" class="node">
<title>14</title>
<path fill="none" stroke="#59d856" stroke-width="2" d="M919.5,-252C919.5,-252 849.5,-252 849.5,-252 843.5,-252 837.5,-246 837.5,-240 837.5,-240 837.5,-228 837.5,-228 837.5,-222 843.5,-216 849.5,-216 849.5,-216 919.5,-216 919.5,-216 925.5,-216 931.5,-222 931.5,-228 931.5,-228 931.5,-240 931.5,-240 931.5,-246 925.5,-252 919.5,-252"/>
<text text-anchor="middle" x="884.5" y="-237" font-family="sans" font-size="10.00">fastqc_trimmed</text>
<text text-anchor="middle" x="884.5" y="-226" font-family="sans" font-size="10.00">type: R2</text>
</g>
<!-- 13&#45;&gt;14 -->
<g id="edge20" class="edge">
<title>13&#45;&gt;14</title>
<path fill="none" stroke="grey" stroke-width="2" d="M923.65,-287.7C917.47,-279.39 909.96,-269.28 903.18,-260.14"/>
<polygon fill="grey" stroke="grey" stroke-width="2" points="905.98,-258.04 897.21,-252.1 900.36,-262.22 905.98,-258.04"/>
</g>
<!-- 16 -->
<g id="node17" class="node">
<title>16</title>
<path fill="none" stroke="#78d856" stroke-width="2" d="M1015,-252C1015,-252 962,-252 962,-252 956,-252 950,-246 950,-240 950,-240 950,-228 950,-228 950,-222 956,-216 962,-216 962,-216 1015,-216 1015,-216 1021,-216 1027,-222 1027,-228 1027,-228 1027,-240 1027,-240 1027,-246 1021,-252 1015,-252"/>
<text text-anchor="middle" x="988.5" y="-231.5" font-family="sans" font-size="10.00">trim_join_SE</text>
</g>
<!-- 13&#45;&gt;16 -->
<g id="edge22" class="edge">
<title>13&#45;&gt;16</title>
<path fill="none" stroke="grey" stroke-width="2" d="M949.35,-287.7C955.53,-279.39 963.04,-269.28 969.82,-260.14"/>
<polygon fill="grey" stroke="grey" stroke-width="2" points="972.64,-262.22 975.79,-252.1 967.02,-258.04 972.64,-262.22"/>
</g>
<!-- 23 -->
<g id="node24" class="node">
<title>23</title>
<path fill="none" stroke="#567bd8" stroke-width="2" d="M1203.5,-252C1203.5,-252 1151.5,-252 1151.5,-252 1145.5,-252 1139.5,-246 1139.5,-240 1139.5,-240 1139.5,-228 1139.5,-228 1139.5,-222 1145.5,-216 1151.5,-216 1151.5,-216 1203.5,-216 1203.5,-216 1209.5,-216 1215.5,-222 1215.5,-228 1215.5,-228 1215.5,-240 1215.5,-240 1215.5,-246 1209.5,-252 1203.5,-252"/>
<text text-anchor="middle" x="1177.5" y="-231.5" font-family="sans" font-size="10.00">hisat2_align</text>
</g>
<!-- 13&#45;&gt;23 -->
<g id="edge29" class="edge">
<title>13&#45;&gt;23</title>
<path fill="none" stroke="grey" stroke-width="2" d="M989.53,-291.74C1026.42,-282.24 1076.9,-268.68 1129.52,-252.19"/>
<polygon fill="grey" stroke="grey" stroke-width="2" points="1130.89,-255.43 1139.37,-249.08 1128.78,-248.76 1130.89,-255.43"/>
</g>
<!-- 14&#45;&gt;6 -->
<g id="edge13" class="edge">
<title>14&#45;&gt;6</title>
<path fill="none" stroke="grey" stroke-width="2" d="M871.23,-215.87C851.99,-191.03 816.21,-144.85 793.98,-116.14"/>
<polygon fill="grey" stroke="grey" stroke-width="2" points="796.71,-113.95 787.82,-108.19 791.17,-118.24 796.71,-113.95"/>
</g>
<!-- 15 -->
<g id="node16" class="node">
<title>15</title>
<path fill="none" stroke="#59d856" stroke-width="2" d="M948.5,-180C948.5,-180 878.5,-180 878.5,-180 872.5,-180 866.5,-174 866.5,-168 866.5,-168 866.5,-156 866.5,-156 866.5,-150 872.5,-144 878.5,-144 878.5,-144 948.5,-144 948.5,-144 954.5,-144 960.5,-150 960.5,-156 960.5,-156 960.5,-168 960.5,-168 960.5,-174 954.5,-180 948.5,-180"/>
<text text-anchor="middle" x="913.5" y="-165" font-family="sans" font-size="10.00">fastqc_trimmed</text>
<text text-anchor="middle" x="913.5" y="-154" font-family="sans" font-size="10.00">type: SE</text>
</g>
<!-- 15&#45;&gt;6 -->
<g id="edge14" class="edge">
<title>15&#45;&gt;6</title>
<path fill="none" stroke="grey" stroke-width="2" d="M879.5,-143.88C860.9,-134.51 837.67,-122.81 817.79,-112.8"/>
<polygon fill="grey" stroke="grey" stroke-width="2" points="819.14,-109.56 808.63,-108.19 815.99,-115.81 819.14,-109.56"/>
</g>
<!-- 16&#45;&gt;15 -->
<g id="edge21" class="edge">
<title>16&#45;&gt;15</title>
<path fill="none" stroke="grey" stroke-width="2" d="M969.96,-215.7C960.7,-207.05 949.34,-196.45 939.24,-187.03"/>
<polygon fill="grey" stroke="grey" stroke-width="2" points="941.52,-184.37 931.83,-180.1 936.75,-189.49 941.52,-184.37"/>
</g>
<!-- 17 -->
<g id="node18" class="node">
<title>17</title>
<path fill="none" stroke="#c6d856" stroke-width="2" d="M1001.5,-108C1001.5,-108 929.5,-108 929.5,-108 923.5,-108 917.5,-102 917.5,-96 917.5,-96 917.5,-84 917.5,-84 917.5,-78 923.5,-72 929.5,-72 929.5,-72 1001.5,-72 1001.5,-72 1007.5,-72 1013.5,-78 1013.5,-84 1013.5,-84 1013.5,-96 1013.5,-96 1013.5,-102 1007.5,-108 1001.5,-108"/>
<text text-anchor="middle" x="965.5" y="-87.5" font-family="sans" font-size="10.00">stringtie_quality</text>
</g>
<!-- 17&#45;&gt;0 -->
<g id="edge3" class="edge">
<title>17&#45;&gt;0</title>
<path fill="none" stroke="grey" stroke-width="2" d="M941.77,-71.7C929.56,-62.8 914.51,-51.82 901.32,-42.2"/>
<polygon fill="grey" stroke="grey" stroke-width="2" points="903.1,-39.17 892.96,-36.1 898.98,-44.82 903.1,-39.17"/>
</g>
<!-- 18 -->
<g id="node19" class="node">
<title>18</title>
<path fill="none" stroke="#56d8a2" stroke-width="2" d="M1086.5,-180C1086.5,-180 994.5,-180 994.5,-180 988.5,-180 982.5,-174 982.5,-168 982.5,-168 982.5,-156 982.5,-156 982.5,-150 988.5,-144 994.5,-144 994.5,-144 1086.5,-144 1086.5,-144 1092.5,-144 1098.5,-150 1098.5,-156 1098.5,-156 1098.5,-168 1098.5,-168 1098.5,-174 1092.5,-180 1086.5,-180"/>
<text text-anchor="middle" x="1040.5" y="-159.5" font-family="sans" font-size="10.00">stringtie_expression</text>
</g>
<!-- 18&#45;&gt;17 -->
<g id="edge23" class="edge">
<title>18&#45;&gt;17</title>
<path fill="none" stroke="grey" stroke-width="2" d="M1021.96,-143.7C1012.7,-135.05 1001.34,-124.45 991.24,-115.03"/>
<polygon fill="grey" stroke="grey" stroke-width="2" points="993.52,-112.37 983.83,-108.1 988.75,-117.49 993.52,-112.37"/>
</g>
<!-- 19&#45;&gt;18 -->
<g id="edge24" class="edge">
<title>19&#45;&gt;18</title>
<path fill="none" stroke="grey" stroke-width="2" d="M1072.87,-215.7C1067.87,-207.56 1061.81,-197.69 1056.29,-188.7"/>
<polygon fill="grey" stroke="grey" stroke-width="2" points="1059.22,-186.79 1051.01,-180.1 1053.26,-190.46 1059.22,-186.79"/>
</g>
<!-- 20 -->
<g id="node21" class="node">
<title>20</title>
<path fill="none" stroke="#56c9d8" stroke-width="2" d="M1174,-324C1174,-324 1087,-324 1087,-324 1081,-324 1075,-318 1075,-312 1075,-312 1075,-300 1075,-300 1075,-294 1081,-288 1087,-288 1087,-288 1174,-288 1174,-288 1180,-288 1186,-294 1186,-300 1186,-300 1186,-312 1186,-312 1186,-318 1180,-324 1174,-324"/>
<text text-anchor="middle" x="1130.5" y="-309" font-family="sans" font-size="10.00">hisat2_index</text>
<text text-anchor="middle" x="1130.5" y="-298" font-family="sans" font-size="10.00">genome: WBcel235</text>
</g>
<!-- 20&#45;&gt;19 -->
<g id="edge26" class="edge">
<title>20&#45;&gt;19</title>
<path fill="none" stroke="grey" stroke-width="2" d="M1118.88,-287.7C1113.36,-279.47 1106.65,-269.48 1100.57,-260.42"/>
<polygon fill="grey" stroke="grey" stroke-width="2" points="1103.46,-258.46 1094.98,-252.1 1097.65,-262.36 1103.46,-258.46"/>
</g>
<!-- 20&#45;&gt;23 -->
<g id="edge30" class="edge">
<title>20&#45;&gt;23</title>
<path fill="none" stroke="grey" stroke-width="2" d="M1142.12,-287.7C1147.64,-279.47 1154.35,-269.48 1160.43,-260.42"/>
<polygon fill="grey" stroke="grey" stroke-width="2" points="1163.35,-262.36 1166.02,-252.1 1157.54,-258.46 1163.35,-262.36"/>
</g>
<!-- 21 -->
<g id="node22" class="node">
<title>21</title>
<path fill="none" stroke="#c6d856" stroke-width="2" d="M1163.5,-108C1163.5,-108 1091.5,-108 1091.5,-108 1085.5,-108 1079.5,-102 1079.5,-96 1079.5,-96 1079.5,-84 1079.5,-84 1079.5,-78 1085.5,-72 1091.5,-72 1091.5,-72 1163.5,-72 1163.5,-72 1169.5,-72 1175.5,-78 1175.5,-84 1175.5,-84 1175.5,-96 1175.5,-96 1175.5,-102 1169.5,-108 1163.5,-108"/>
<text text-anchor="middle" x="1127.5" y="-87.5" font-family="sans" font-size="10.00">stringtie_quality</text>
</g>
<!-- 21&#45;&gt;0 -->
<g id="edge4" class="edge">
<title>21&#45;&gt;0</title>
<path fill="none" stroke="grey" stroke-width="2" d="M1079.27,-75.92C1029.11,-62.3 951.66,-41.29 906.24,-28.97"/>
<polygon fill="grey" stroke="grey" stroke-width="2" points="907.07,-25.57 896.5,-26.33 905.24,-32.32 907.07,-25.57"/>
</g>
<!-- 22 -->
<g id="node23" class="node">
<title>22</title>
<path fill="none" stroke="#56d8a2" stroke-width="2" d="M1222.5,-180C1222.5,-180 1130.5,-180 1130.5,-180 1124.5,-180 1118.5,-174 1118.5,-168 1118.5,-168 1118.5,-156 1118.5,-156 1118.5,-150 1124.5,-144 1130.5,-144 1130.5,-144 1222.5,-144 1222.5,-144 1228.5,-144 1234.5,-150 1234.5,-156 1234.5,-156 1234.5,-168 1234.5,-168 1234.5,-174 1228.5,-180 1222.5,-180"/>
<text text-anchor="middle" x="1176.5" y="-159.5" font-family="sans" font-size="10.00">stringtie_expression</text>
</g>
<!-- 22&#45;&gt;21 -->
<g id="edge27" class="edge">
<title>22&#45;&gt;21</title>
<path fill="none" stroke="grey" stroke-width="2" d="M1164.39,-143.7C1158.63,-135.47 1151.64,-125.48 1145.29,-116.42"/>
<polygon fill="grey" stroke="grey" stroke-width="2" points="1148.08,-114.29 1139.47,-108.1 1142.34,-118.3 1148.08,-114.29"/>
</g>
<!-- 23&#45;&gt;22 -->
<g id="edge28" class="edge">
<title>23&#45;&gt;22</title>
<path fill="none" stroke="grey" stroke-width="2" d="M1177.25,-215.7C1177.14,-207.98 1177.01,-198.71 1176.89,-190.11"/>
<polygon fill="grey" stroke="grey" stroke-width="2" points="1180.39,-190.05 1176.74,-180.1 1173.39,-190.15 1180.39,-190.05"/>
</g>
</g>
</svg>
