<?xml version="1.0" encoding="UTF-8" standalone="no"?>
<!DOCTYPE svg PUBLIC "-//W3C//DTD SVG 1.1//EN"
 "http://www.w3.org/Graphics/SVG/1.1/DTD/svg11.dtd">
<!-- Generated by graphviz version 2.43.0 (0)
 -->
<!-- Title: snakemake_dag Pages: 1 -->
<svg width="1681pt" height="337pt"
 viewBox="0.00 0.00 1680.61 337.00" xmlns="http://www.w3.org/2000/svg" xmlns:xlink="http://www.w3.org/1999/xlink">
<g id="graph0" class="graph" transform="scale(1 1) rotate(0) translate(4 333)">
<title>snakemake_dag</title>
<polygon fill="white" stroke="transparent" points="-4,4 -4,-333 1676.61,-333 1676.61,4 -4,4"/>
<!-- 0 -->
<g id="node1" class="node">
<title>0</title>
<path fill="none" stroke="#d87d56" stroke-width="2" d="M1133.5,-36C1133.5,-36 1103.5,-36 1103.5,-36 1097.5,-36 1091.5,-30 1091.5,-24 1091.5,-24 1091.5,-12 1091.5,-12 1091.5,-6 1097.5,0 1103.5,0 1103.5,0 1133.5,0 1133.5,0 1139.5,0 1145.5,-6 1145.5,-12 1145.5,-12 1145.5,-24 1145.5,-24 1145.5,-30 1139.5,-36 1133.5,-36"/>
<text text-anchor="middle" x="1118.5" y="-15.5" font-family="sans" font-size="10.00">all</text>
</g>
<!-- 1 -->
<g id="node2" class="node">
<title>1</title>
<path fill="none" stroke="#d85656" stroke-width="2" stroke-dasharray="5,2" d="M378,-108C378,-108 325,-108 325,-108 319,-108 313,-102 313,-96 313,-96 313,-84 313,-84 313,-78 319,-72 325,-72 325,-72 378,-72 378,-72 384,-72 390,-78 390,-84 390,-84 390,-96 390,-96 390,-102 384,-108 378,-108"/>
<text text-anchor="middle" x="351.5" y="-87.5" font-family="sans" font-size="10.00">multiqc_raw</text>
</g>
<!-- 1&#45;&gt;0 -->
<g id="edge1" class="edge">
<title>1&#45;&gt;0</title>
<path fill="none" stroke="grey" stroke-width="2" d="M390.15,-83.61C416.66,-80.02 452.67,-75.36 484.5,-72 710.77,-48.09 983.4,-28.34 1081.28,-21.54"/>
<polygon fill="grey" stroke="grey" stroke-width="2" points="1081.54,-25.03 1091.27,-20.85 1081.05,-18.05 1081.54,-25.03"/>
</g>
<!-- 2 -->
<g id="node3" class="node">
<title>2</title>
<path fill="none" stroke="#68d856" stroke-width="2" stroke-dasharray="5,2" d="M546,-180C546,-180 445,-180 445,-180 439,-180 433,-174 433,-168 433,-168 433,-156 433,-156 433,-150 439,-144 445,-144 445,-144 546,-144 546,-144 552,-144 558,-150 558,-156 558,-156 558,-168 558,-168 558,-174 552,-180 546,-180"/>
<text text-anchor="middle" x="495.5" y="-165" font-family="sans" font-size="10.00">fastqc_raw</text>
<text text-anchor="middle" x="495.5" y="-154" font-family="sans" font-size="10.00">sample_pr: Exp_2_3_1</text>
</g>
<!-- 2&#45;&gt;1 -->
<g id="edge15" class="edge">
<title>2&#45;&gt;1</title>
<path fill="none" stroke="grey" stroke-width="2" d="M460.27,-143.88C440.92,-134.47 416.73,-122.71 396.07,-112.67"/>
<polygon fill="grey" stroke="grey" stroke-width="2" points="397.39,-109.41 386.86,-108.19 394.33,-115.71 397.39,-109.41"/>
</g>
<!-- 3 -->
<g id="node4" class="node">
<title>3</title>
<path fill="none" stroke="#68d856" stroke-width="2" stroke-dasharray="5,2" d="M113,-180C113,-180 12,-180 12,-180 6,-180 0,-174 0,-168 0,-168 0,-156 0,-156 0,-150 6,-144 12,-144 12,-144 113,-144 113,-144 119,-144 125,-150 125,-156 125,-156 125,-168 125,-168 125,-174 119,-180 113,-180"/>
<text text-anchor="middle" x="62.5" y="-165" font-family="sans" font-size="10.00">fastqc_raw</text>
<text text-anchor="middle" x="62.5" y="-154" font-family="sans" font-size="10.00">sample_pr: Exp_2_3_2</text>
</g>
<!-- 3&#45;&gt;1 -->
<g id="edge16" class="edge">
<title>3&#45;&gt;1</title>
<path fill="none" stroke="grey" stroke-width="2" d="M125.21,-145.81C178.52,-132.9 253.99,-114.62 302.84,-102.79"/>
<polygon fill="grey" stroke="grey" stroke-width="2" points="303.95,-106.12 312.84,-100.36 302.3,-99.32 303.95,-106.12"/>
</g>
<!-- 4 -->
<g id="node5" class="node">
<title>4</title>
<path fill="none" stroke="#68d856" stroke-width="2" stroke-dasharray="5,2" d="M258,-180C258,-180 155,-180 155,-180 149,-180 143,-174 143,-168 143,-168 143,-156 143,-156 143,-150 149,-144 155,-144 155,-144 258,-144 258,-144 264,-144 270,-150 270,-156 270,-156 270,-168 270,-168 270,-174 264,-180 258,-180"/>
<text text-anchor="middle" x="206.5" y="-165" font-family="sans" font-size="10.00">fastqc_raw</text>
<text text-anchor="middle" x="206.5" y="-154" font-family="sans" font-size="10.00">sample_pr: Neg_1_2_1</text>
</g>
<!-- 4&#45;&gt;1 -->
<g id="edge17" class="edge">
<title>4&#45;&gt;1</title>
<path fill="none" stroke="grey" stroke-width="2" d="M241.97,-143.88C261.62,-134.39 286.22,-122.51 307.13,-112.42"/>
<polygon fill="grey" stroke="grey" stroke-width="2" points="308.66,-115.57 316.14,-108.07 305.62,-109.26 308.66,-115.57"/>
</g>
<!-- 5 -->
<g id="node6" class="node">
<title>5</title>
<path fill="none" stroke="#68d856" stroke-width="2" stroke-dasharray="5,2" d="M403,-180C403,-180 300,-180 300,-180 294,-180 288,-174 288,-168 288,-168 288,-156 288,-156 288,-150 294,-144 300,-144 300,-144 403,-144 403,-144 409,-144 415,-150 415,-156 415,-156 415,-168 415,-168 415,-174 409,-180 403,-180"/>
<text text-anchor="middle" x="351.5" y="-165" font-family="sans" font-size="10.00">fastqc_raw</text>
<text text-anchor="middle" x="351.5" y="-154" font-family="sans" font-size="10.00">sample_pr: Neg_1_2_2</text>
</g>
<!-- 5&#45;&gt;1 -->
<g id="edge18" class="edge">
<title>5&#45;&gt;1</title>
<path fill="none" stroke="grey" stroke-width="2" d="M351.5,-143.7C351.5,-135.98 351.5,-126.71 351.5,-118.11"/>
<polygon fill="grey" stroke="grey" stroke-width="2" points="355,-118.1 351.5,-108.1 348,-118.1 355,-118.1"/>
</g>
<!-- 6 -->
<g id="node7" class="node">
<title>6</title>
<path fill="none" stroke="#56d87b" stroke-width="2" stroke-dasharray="5,2" d="M665,-180C665,-180 588,-180 588,-180 582,-180 576,-174 576,-168 576,-168 576,-156 576,-156 576,-150 582,-144 588,-144 588,-144 665,-144 665,-144 671,-144 677,-150 677,-156 677,-156 677,-168 677,-168 677,-174 671,-180 665,-180"/>
<text text-anchor="middle" x="626.5" y="-159.5" font-family="sans" font-size="10.00">multiqc_trimmed</text>
</g>
<!-- 6&#45;&gt;0 -->
<g id="edge2" class="edge">
<title>6&#45;&gt;0</title>
<path fill="none" stroke="grey" stroke-width="2" d="M579.44,-143.91C553.4,-133.39 524.84,-119.73 517.5,-108 509.01,-94.44 506.69,-83.8 517.5,-72 555.6,-30.39 955.33,-21.28 1080.94,-19.44"/>
<polygon fill="grey" stroke="grey" stroke-width="2" points="1081.26,-22.93 1091.21,-19.29 1081.16,-15.93 1081.26,-22.93"/>
</g>
<!-- 7 -->
<g id="node8" class="node">
<title>7</title>
<path fill="none" stroke="#d8bc56" stroke-width="2" stroke-dasharray="5,2" d="M375.5,-254.5C375.5,-254.5 305.5,-254.5 305.5,-254.5 299.5,-254.5 293.5,-248.5 293.5,-242.5 293.5,-242.5 293.5,-230.5 293.5,-230.5 293.5,-224.5 299.5,-218.5 305.5,-218.5 305.5,-218.5 375.5,-218.5 375.5,-218.5 381.5,-218.5 387.5,-224.5 387.5,-230.5 387.5,-230.5 387.5,-242.5 387.5,-242.5 387.5,-248.5 381.5,-254.5 375.5,-254.5"/>
<text text-anchor="middle" x="340.5" y="-239.5" font-family="sans" font-size="10.00">fastqc_trimmed</text>
<text text-anchor="middle" x="340.5" y="-228.5" font-family="sans" font-size="10.00">type: R1</text>
</g>
<!-- 7&#45;&gt;6 -->
<g id="edge19" class="edge">
<title>7&#45;&gt;6</title>
<path fill="none" stroke="grey" stroke-width="2" d="M387.72,-218.59C390.68,-217.67 393.62,-216.8 396.5,-216 467.84,-196.11 489.74,-198.31 565.77,-180.07"/>
<polygon fill="grey" stroke="grey" stroke-width="2" points="566.94,-183.39 575.82,-177.62 565.28,-176.59 566.94,-183.39"/>
</g>
<!-- 8 -->
<g id="node9" class="node">
<title>8</title>
<path fill="none" stroke="#d86e56" stroke-width="2" stroke-dasharray="5,2" d="M805.5,-329C805.5,-329 723.5,-329 723.5,-329 717.5,-329 711.5,-323 711.5,-317 711.5,-317 711.5,-305 711.5,-305 711.5,-299 717.5,-293 723.5,-293 723.5,-293 805.5,-293 805.5,-293 811.5,-293 817.5,-299 817.5,-305 817.5,-305 817.5,-317 817.5,-317 817.5,-323 811.5,-329 805.5,-329"/>
<text text-anchor="middle" x="764.5" y="-314" font-family="sans" font-size="10.00">trimmomatic_trim</text>
<text text-anchor="middle" x="764.5" y="-303" font-family="sans" font-size="10.00">sample: Exp_2_3</text>
</g>
<!-- 8&#45;&gt;7 -->
<g id="edge25" class="edge">
<title>8&#45;&gt;7</title>
<path fill="none" stroke="grey" stroke-width="2" d="M711.48,-305.59C641.39,-299.05 514.08,-284.71 397.19,-256.93"/>
<polygon fill="grey" stroke="grey" stroke-width="2" points="397.9,-253.5 387.36,-254.55 396.26,-260.3 397.9,-253.5"/>
</g>
<!-- 9 -->
<g id="node10" class="node">
<title>9</title>
<path fill="none" stroke="#d8bc56" stroke-width="2" stroke-dasharray="5,2" d="M487.5,-254.5C487.5,-254.5 417.5,-254.5 417.5,-254.5 411.5,-254.5 405.5,-248.5 405.5,-242.5 405.5,-242.5 405.5,-230.5 405.5,-230.5 405.5,-224.5 411.5,-218.5 417.5,-218.5 417.5,-218.5 487.5,-218.5 487.5,-218.5 493.5,-218.5 499.5,-224.5 499.5,-230.5 499.5,-230.5 499.5,-242.5 499.5,-242.5 499.5,-248.5 493.5,-254.5 487.5,-254.5"/>
<text text-anchor="middle" x="452.5" y="-239.5" font-family="sans" font-size="10.00">fastqc_trimmed</text>
<text text-anchor="middle" x="452.5" y="-228.5" font-family="sans" font-size="10.00">type: R2</text>
</g>
<!-- 8&#45;&gt;9 -->
<g id="edge26" class="edge">
<title>8&#45;&gt;9</title>
<path fill="none" stroke="grey" stroke-width="2" d="M711.06,-301.04C661.18,-292.21 584.55,-277.44 509.78,-257.19"/>
<polygon fill="grey" stroke="grey" stroke-width="2" points="510.29,-253.7 499.72,-254.43 508.44,-260.45 510.29,-253.7"/>
</g>
<!-- 17 -->
<g id="node18" class="node">
<title>17</title>
<path fill="none" stroke="#d89556" stroke-width="2" stroke-dasharray="5,2" d="M856.5,-254.5C856.5,-254.5 804.5,-254.5 804.5,-254.5 798.5,-254.5 792.5,-248.5 792.5,-242.5 792.5,-242.5 792.5,-230.5 792.5,-230.5 792.5,-224.5 798.5,-218.5 804.5,-218.5 804.5,-218.5 856.5,-218.5 856.5,-218.5 862.5,-218.5 868.5,-224.5 868.5,-230.5 868.5,-230.5 868.5,-242.5 868.5,-242.5 868.5,-248.5 862.5,-254.5 856.5,-254.5"/>
<text text-anchor="middle" x="830.5" y="-234" font-family="sans" font-size="10.00">hisat2_align</text>
</g>
<!-- 8&#45;&gt;17 -->
<g id="edge31" class="edge">
<title>8&#45;&gt;17</title>
<path fill="none" stroke="grey" stroke-width="2" d="M780.14,-292.82C788.52,-283.61 799,-272.1 808.22,-261.97"/>
<polygon fill="grey" stroke="grey" stroke-width="2" points="810.83,-264.31 814.97,-254.56 805.65,-259.6 810.83,-264.31"/>
</g>
<!-- 24 -->
<g id="node25" class="node">
<title>24</title>
<path fill="none" stroke="#56b9d8" stroke-width="2" d="M1089,-180C1089,-180 1048,-180 1048,-180 1042,-180 1036,-174 1036,-168 1036,-168 1036,-156 1036,-156 1036,-150 1042,-144 1048,-144 1048,-144 1089,-144 1089,-144 1095,-144 1101,-150 1101,-156 1101,-156 1101,-168 1101,-168 1101,-174 1095,-180 1089,-180"/>
<text text-anchor="middle" x="1068.5" y="-159.5" font-family="sans" font-size="10.00">star_align</text>
</g>
<!-- 8&#45;&gt;24 -->
<g id="edge37" class="edge">
<title>8&#45;&gt;24</title>
<path fill="none" stroke="grey" stroke-width="2" d="M762.7,-292.77C761.53,-271.62 763.09,-236.09 783.5,-216 817.14,-182.88 954.55,-169.84 1025.56,-165.23"/>
<polygon fill="grey" stroke="grey" stroke-width="2" points="1026.18,-168.7 1035.95,-164.59 1025.75,-161.72 1026.18,-168.7"/>
</g>
<!-- 31 -->
<g id="node32" class="node">
<title>31</title>
<path fill="none" stroke="#a7d856" stroke-width="2" d="M1390,-254.5C1390,-254.5 1303,-254.5 1303,-254.5 1297,-254.5 1291,-248.5 1291,-242.5 1291,-242.5 1291,-230.5 1291,-230.5 1291,-224.5 1297,-218.5 1303,-218.5 1303,-218.5 1390,-218.5 1390,-218.5 1396,-218.5 1402,-224.5 1402,-230.5 1402,-230.5 1402,-242.5 1402,-242.5 1402,-248.5 1396,-254.5 1390,-254.5"/>
<text text-anchor="middle" x="1346.5" y="-234" font-family="sans" font-size="10.00">salmon_expression</text>
</g>
<!-- 8&#45;&gt;31 -->
<g id="edge45" class="edge">
<title>8&#45;&gt;31</title>
<path fill="none" stroke="grey" stroke-width="2" d="M817.95,-304.65C947.83,-291.65 1270.2,-259.25 1281.5,-257 1281.84,-256.93 1282.17,-256.87 1282.51,-256.8"/>
<polygon fill="grey" stroke="grey" stroke-width="2" points="1283.45,-260.17 1292.43,-254.56 1281.9,-253.34 1283.45,-260.17"/>
</g>
<!-- 9&#45;&gt;6 -->
<g id="edge20" class="edge">
<title>9&#45;&gt;6</title>
<path fill="none" stroke="grey" stroke-width="2" d="M493.74,-218.32C518.44,-208.03 550.02,-194.87 576.19,-183.96"/>
<polygon fill="grey" stroke="grey" stroke-width="2" points="577.68,-187.14 585.56,-180.06 574.98,-180.67 577.68,-187.14"/>
</g>
<!-- 10 -->
<g id="node11" class="node">
<title>10</title>
<path fill="none" stroke="#d8bc56" stroke-width="2" stroke-dasharray="5,2" d="M605,-257C605,-257 530,-257 530,-257 524,-257 518,-251 518,-245 518,-245 518,-228 518,-228 518,-222 524,-216 530,-216 530,-216 605,-216 605,-216 611,-216 617,-222 617,-228 617,-228 617,-245 617,-245 617,-251 611,-257 605,-257"/>
<text text-anchor="middle" x="567.5" y="-245" font-family="sans" font-size="10.00">fastqc_trimmed</text>
<text text-anchor="middle" x="567.5" y="-234" font-family="sans" font-size="10.00">sample: Exp_2_3</text>
<text text-anchor="middle" x="567.5" y="-223" font-family="sans" font-size="10.00">type: SE</text>
</g>
<!-- 10&#45;&gt;6 -->
<g id="edge21" class="edge">
<title>10&#45;&gt;6</title>
<path fill="none" stroke="grey" stroke-width="2" d="M583.62,-215.69C590.52,-207.21 598.65,-197.22 605.97,-188.23"/>
<polygon fill="grey" stroke="grey" stroke-width="2" points="608.81,-190.28 612.41,-180.32 603.38,-185.87 608.81,-190.28"/>
</g>
<!-- 11 -->
<g id="node12" class="node">
<title>11</title>
<path fill="none" stroke="#d8bc56" stroke-width="2" stroke-dasharray="5,2" d="M1080.5,-254.5C1080.5,-254.5 1010.5,-254.5 1010.5,-254.5 1004.5,-254.5 998.5,-248.5 998.5,-242.5 998.5,-242.5 998.5,-230.5 998.5,-230.5 998.5,-224.5 1004.5,-218.5 1010.5,-218.5 1010.5,-218.5 1080.5,-218.5 1080.5,-218.5 1086.5,-218.5 1092.5,-224.5 1092.5,-230.5 1092.5,-230.5 1092.5,-242.5 1092.5,-242.5 1092.5,-248.5 1086.5,-254.5 1080.5,-254.5"/>
<text text-anchor="middle" x="1045.5" y="-239.5" font-family="sans" font-size="10.00">fastqc_trimmed</text>
<text text-anchor="middle" x="1045.5" y="-228.5" font-family="sans" font-size="10.00">type: R1</text>
</g>
<!-- 11&#45;&gt;6 -->
<g id="edge22" class="edge">
<title>11&#45;&gt;6</title>
<path fill="none" stroke="grey" stroke-width="2" d="M998.64,-218.46C995.57,-217.56 992.5,-216.73 989.5,-216 960.81,-208.98 783.12,-184.31 687.41,-171.25"/>
<polygon fill="grey" stroke="grey" stroke-width="2" points="687.67,-167.75 677.29,-169.87 686.72,-174.69 687.67,-167.75"/>
</g>
<!-- 12 -->
<g id="node13" class="node">
<title>12</title>
<path fill="none" stroke="#d86e56" stroke-width="2" stroke-dasharray="5,2" d="M1275.5,-329C1275.5,-329 1193.5,-329 1193.5,-329 1187.5,-329 1181.5,-323 1181.5,-317 1181.5,-317 1181.5,-305 1181.5,-305 1181.5,-299 1187.5,-293 1193.5,-293 1193.5,-293 1275.5,-293 1275.5,-293 1281.5,-293 1287.5,-299 1287.5,-305 1287.5,-305 1287.5,-317 1287.5,-317 1287.5,-323 1281.5,-329 1275.5,-329"/>
<text text-anchor="middle" x="1234.5" y="-314" font-family="sans" font-size="10.00">trimmomatic_trim</text>
<text text-anchor="middle" x="1234.5" y="-303" font-family="sans" font-size="10.00">sample: Neg_1_2</text>
</g>
<!-- 12&#45;&gt;11 -->
<g id="edge27" class="edge">
<title>12&#45;&gt;11</title>
<path fill="none" stroke="grey" stroke-width="2" d="M1189.71,-292.82C1162.64,-282.44 1127.97,-269.13 1099.4,-258.18"/>
<polygon fill="grey" stroke="grey" stroke-width="2" points="1100.56,-254.87 1089.97,-254.56 1098.05,-261.41 1100.56,-254.87"/>
</g>
<!-- 13 -->
<g id="node14" class="node">
<title>13</title>
<path fill="none" stroke="#d8bc56" stroke-width="2" stroke-dasharray="5,2" d="M968.5,-254.5C968.5,-254.5 898.5,-254.5 898.5,-254.5 892.5,-254.5 886.5,-248.5 886.5,-242.5 886.5,-242.5 886.5,-230.5 886.5,-230.5 886.5,-224.5 892.5,-218.5 898.5,-218.5 898.5,-218.5 968.5,-218.5 968.5,-218.5 974.5,-218.5 980.5,-224.5 980.5,-230.5 980.5,-230.5 980.5,-242.5 980.5,-242.5 980.5,-248.5 974.5,-254.5 968.5,-254.5"/>
<text text-anchor="middle" x="933.5" y="-239.5" font-family="sans" font-size="10.00">fastqc_trimmed</text>
<text text-anchor="middle" x="933.5" y="-228.5" font-family="sans" font-size="10.00">type: R2</text>
</g>
<!-- 12&#45;&gt;13 -->
<g id="edge28" class="edge">
<title>12&#45;&gt;13</title>
<path fill="none" stroke="grey" stroke-width="2" d="M1181.47,-300.47C1133.78,-291.46 1061.69,-276.77 990.73,-257.19"/>
<polygon fill="grey" stroke="grey" stroke-width="2" points="991.3,-253.72 980.73,-254.4 989.42,-260.46 991.3,-253.72"/>
</g>
<!-- 21 -->
<g id="node22" class="node">
<title>21</title>
<path fill="none" stroke="#d89556" stroke-width="2" stroke-dasharray="5,2" d="M1260.5,-254.5C1260.5,-254.5 1208.5,-254.5 1208.5,-254.5 1202.5,-254.5 1196.5,-248.5 1196.5,-242.5 1196.5,-242.5 1196.5,-230.5 1196.5,-230.5 1196.5,-224.5 1202.5,-218.5 1208.5,-218.5 1208.5,-218.5 1260.5,-218.5 1260.5,-218.5 1266.5,-218.5 1272.5,-224.5 1272.5,-230.5 1272.5,-230.5 1272.5,-242.5 1272.5,-242.5 1272.5,-248.5 1266.5,-254.5 1260.5,-254.5"/>
<text text-anchor="middle" x="1234.5" y="-234" font-family="sans" font-size="10.00">hisat2_align</text>
</g>
<!-- 12&#45;&gt;21 -->
<g id="edge35" class="edge">
<title>12&#45;&gt;21</title>
<path fill="none" stroke="grey" stroke-width="2" d="M1234.5,-292.82C1234.5,-284.42 1234.5,-274.12 1234.5,-264.69"/>
<polygon fill="grey" stroke="grey" stroke-width="2" points="1238,-264.56 1234.5,-254.56 1231,-264.56 1238,-264.56"/>
</g>
<!-- 26 -->
<g id="node27" class="node">
<title>26</title>
<path fill="none" stroke="#56b9d8" stroke-width="2" d="M1451,-180C1451,-180 1410,-180 1410,-180 1404,-180 1398,-174 1398,-168 1398,-168 1398,-156 1398,-156 1398,-150 1404,-144 1410,-144 1410,-144 1451,-144 1451,-144 1457,-144 1463,-150 1463,-156 1463,-156 1463,-168 1463,-168 1463,-174 1457,-180 1451,-180"/>
<text text-anchor="middle" x="1430.5" y="-159.5" font-family="sans" font-size="10.00">star_align</text>
</g>
<!-- 12&#45;&gt;26 -->
<g id="edge39" class="edge">
<title>12&#45;&gt;26</title>
<path fill="none" stroke="grey" stroke-width="2" d="M1287.81,-307.9C1327.22,-303.44 1379.27,-290.93 1410.5,-257 1426.95,-239.12 1431.16,-211.17 1431.73,-190.39"/>
<polygon fill="grey" stroke="grey" stroke-width="2" points="1435.23,-190.27 1431.74,-180.26 1428.23,-190.26 1435.23,-190.27"/>
</g>
<!-- 33 -->
<g id="node34" class="node">
<title>33</title>
<path fill="none" stroke="#a7d856" stroke-width="2" d="M1558,-254.5C1558,-254.5 1471,-254.5 1471,-254.5 1465,-254.5 1459,-248.5 1459,-242.5 1459,-242.5 1459,-230.5 1459,-230.5 1459,-224.5 1465,-218.5 1471,-218.5 1471,-218.5 1558,-218.5 1558,-218.5 1564,-218.5 1570,-224.5 1570,-230.5 1570,-230.5 1570,-242.5 1570,-242.5 1570,-248.5 1564,-254.5 1558,-254.5"/>
<text text-anchor="middle" x="1514.5" y="-234" font-family="sans" font-size="10.00">salmon_expression</text>
</g>
<!-- 12&#45;&gt;33 -->
<g id="edge47" class="edge">
<title>12&#45;&gt;33</title>
<path fill="none" stroke="grey" stroke-width="2" d="M1287.67,-296.96C1330.18,-286.45 1391.26,-271.13 1444.5,-257 1445.95,-256.62 1447.41,-256.23 1448.89,-255.83"/>
<polygon fill="grey" stroke="grey" stroke-width="2" points="1450.01,-259.15 1458.75,-253.16 1448.18,-252.39 1450.01,-259.15"/>
</g>
<!-- 13&#45;&gt;6 -->
<g id="edge23" class="edge">
<title>13&#45;&gt;6</title>
<path fill="none" stroke="grey" stroke-width="2" d="M886.28,-218.58C883.32,-217.67 880.38,-216.8 877.5,-216 813.34,-198.13 738.5,-183.06 687.34,-173.61"/>
<polygon fill="grey" stroke="grey" stroke-width="2" points="687.9,-170.15 677.44,-171.79 686.64,-177.04 687.9,-170.15"/>
</g>
<!-- 14 -->
<g id="node15" class="node">
<title>14</title>
<path fill="none" stroke="#d8bc56" stroke-width="2" stroke-dasharray="5,2" d="M724,-257C724,-257 647,-257 647,-257 641,-257 635,-251 635,-245 635,-245 635,-228 635,-228 635,-222 641,-216 647,-216 647,-216 724,-216 724,-216 730,-216 736,-222 736,-228 736,-228 736,-245 736,-245 736,-251 730,-257 724,-257"/>
<text text-anchor="middle" x="685.5" y="-245" font-family="sans" font-size="10.00">fastqc_trimmed</text>
<text text-anchor="middle" x="685.5" y="-234" font-family="sans" font-size="10.00">sample: Neg_1_2</text>
<text text-anchor="middle" x="685.5" y="-223" font-family="sans" font-size="10.00">type: SE</text>
</g>
<!-- 14&#45;&gt;6 -->
<g id="edge24" class="edge">
<title>14&#45;&gt;6</title>
<path fill="none" stroke="grey" stroke-width="2" d="M669.38,-215.69C662.48,-207.21 654.35,-197.22 647.03,-188.23"/>
<polygon fill="grey" stroke="grey" stroke-width="2" points="649.62,-185.87 640.59,-180.32 644.19,-190.28 649.62,-185.87"/>
</g>
<!-- 15 -->
<g id="node16" class="node">
<title>15</title>
<path fill="none" stroke="#80d856" stroke-width="2" stroke-dasharray="5,2" d="M610.5,-108C610.5,-108 538.5,-108 538.5,-108 532.5,-108 526.5,-102 526.5,-96 526.5,-96 526.5,-84 526.5,-84 526.5,-78 532.5,-72 538.5,-72 538.5,-72 610.5,-72 610.5,-72 616.5,-72 622.5,-78 622.5,-84 622.5,-84 622.5,-96 622.5,-96 622.5,-102 616.5,-108 610.5,-108"/>
<text text-anchor="middle" x="574.5" y="-87.5" font-family="sans" font-size="10.00">stringtie_quality</text>
</g>
<!-- 15&#45;&gt;0 -->
<g id="edge3" class="edge">
<title>15&#45;&gt;0</title>
<path fill="none" stroke="grey" stroke-width="2" d="M622.55,-74C625.56,-73.27 628.56,-72.59 631.5,-72 797.22,-38.56 999.22,-25.09 1081.23,-20.75"/>
<polygon fill="grey" stroke="grey" stroke-width="2" points="1081.5,-24.24 1091.31,-20.23 1081.14,-17.25 1081.5,-24.24"/>
</g>
<!-- 16 -->
<g id="node17" class="node">
<title>16</title>
<path fill="none" stroke="#5692d8" stroke-width="2" stroke-dasharray="5,2" d="M867.5,-180C867.5,-180 775.5,-180 775.5,-180 769.5,-180 763.5,-174 763.5,-168 763.5,-168 763.5,-156 763.5,-156 763.5,-150 769.5,-144 775.5,-144 775.5,-144 867.5,-144 867.5,-144 873.5,-144 879.5,-150 879.5,-156 879.5,-156 879.5,-168 879.5,-168 879.5,-174 873.5,-180 867.5,-180"/>
<text text-anchor="middle" x="821.5" y="-159.5" font-family="sans" font-size="10.00">stringtie_expression</text>
</g>
<!-- 16&#45;&gt;15 -->
<g id="edge29" class="edge">
<title>16&#45;&gt;15</title>
<path fill="none" stroke="grey" stroke-width="2" d="M763.21,-145.03C727.93,-135.3 681.79,-122.45 632.57,-108.29"/>
<polygon fill="grey" stroke="grey" stroke-width="2" points="633.26,-104.84 622.68,-105.44 631.32,-111.57 633.26,-104.84"/>
</g>
<!-- 17&#45;&gt;16 -->
<g id="edge30" class="edge">
<title>17&#45;&gt;16</title>
<path fill="none" stroke="grey" stroke-width="2" d="M828.37,-218.32C827.32,-209.92 826.05,-199.62 824.87,-190.19"/>
<polygon fill="grey" stroke="grey" stroke-width="2" points="828.32,-189.55 823.62,-180.06 821.38,-190.41 828.32,-189.55"/>
</g>
<!-- 18 -->
<g id="node19" class="node">
<title>18</title>
<path fill="none" stroke="#d8a456" stroke-width="2" stroke-dasharray="5,2" d="M1043,-329C1043,-329 956,-329 956,-329 950,-329 944,-323 944,-317 944,-317 944,-305 944,-305 944,-299 950,-293 956,-293 956,-293 1043,-293 1043,-293 1049,-293 1055,-299 1055,-305 1055,-305 1055,-317 1055,-317 1055,-323 1049,-329 1043,-329"/>
<text text-anchor="middle" x="999.5" y="-314" font-family="sans" font-size="10.00">hisat2_index</text>
<text text-anchor="middle" x="999.5" y="-303" font-family="sans" font-size="10.00">genome: WBcel235</text>
</g>
<!-- 18&#45;&gt;17 -->
<g id="edge32" class="edge">
<title>18&#45;&gt;17</title>
<path fill="none" stroke="grey" stroke-width="2" d="M959.45,-292.82C934.93,-282.3 903.44,-268.79 877.72,-257.76"/>
<polygon fill="grey" stroke="grey" stroke-width="2" points="879.09,-254.54 868.52,-253.81 876.33,-260.97 879.09,-254.54"/>
</g>
<!-- 18&#45;&gt;21 -->
<g id="edge36" class="edge">
<title>18&#45;&gt;21</title>
<path fill="none" stroke="grey" stroke-width="2" d="M1055.15,-296.16C1090.57,-286.93 1137.51,-273.92 1186.86,-257.05"/>
<polygon fill="grey" stroke="grey" stroke-width="2" points="1188.12,-260.32 1196.43,-253.74 1185.83,-253.7 1188.12,-260.32"/>
</g>
<!-- 19 -->
<g id="node20" class="node">
<title>19</title>
<path fill="none" stroke="#80d856" stroke-width="2" stroke-dasharray="5,2" d="M1280.5,-108C1280.5,-108 1208.5,-108 1208.5,-108 1202.5,-108 1196.5,-102 1196.5,-96 1196.5,-96 1196.5,-84 1196.5,-84 1196.5,-78 1202.5,-72 1208.5,-72 1208.5,-72 1280.5,-72 1280.5,-72 1286.5,-72 1292.5,-78 1292.5,-84 1292.5,-84 1292.5,-96 1292.5,-96 1292.5,-102 1286.5,-108 1280.5,-108"/>
<text text-anchor="middle" x="1244.5" y="-87.5" font-family="sans" font-size="10.00">stringtie_quality</text>
</g>
<!-- 19&#45;&gt;0 -->
<g id="edge4" class="edge">
<title>19&#45;&gt;0</title>
<path fill="none" stroke="grey" stroke-width="2" d="M1213.68,-71.88C1195.77,-61.93 1173.12,-49.35 1154.41,-38.95"/>
<polygon fill="grey" stroke="grey" stroke-width="2" points="1156.02,-35.84 1145.58,-34.05 1152.62,-41.96 1156.02,-35.84"/>
</g>
<!-- 20 -->
<g id="node21" class="node">
<title>20</title>
<path fill="none" stroke="#5692d8" stroke-width="2" stroke-dasharray="5,2" d="M1280.5,-180C1280.5,-180 1188.5,-180 1188.5,-180 1182.5,-180 1176.5,-174 1176.5,-168 1176.5,-168 1176.5,-156 1176.5,-156 1176.5,-150 1182.5,-144 1188.5,-144 1188.5,-144 1280.5,-144 1280.5,-144 1286.5,-144 1292.5,-150 1292.5,-156 1292.5,-156 1292.5,-168 1292.5,-168 1292.5,-174 1286.5,-180 1280.5,-180"/>
<text text-anchor="middle" x="1234.5" y="-159.5" font-family="sans" font-size="10.00">stringtie_expression</text>
</g>
<!-- 20&#45;&gt;19 -->
<g id="edge33" class="edge">
<title>20&#45;&gt;19</title>
<path fill="none" stroke="grey" stroke-width="2" d="M1236.97,-143.7C1238.07,-135.98 1239.4,-126.71 1240.63,-118.11"/>
<polygon fill="grey" stroke="grey" stroke-width="2" points="1244.11,-118.5 1242.06,-108.1 1237.18,-117.51 1244.11,-118.5"/>
</g>
<!-- 21&#45;&gt;20 -->
<g id="edge34" class="edge">
<title>21&#45;&gt;20</title>
<path fill="none" stroke="grey" stroke-width="2" d="M1234.5,-218.32C1234.5,-209.92 1234.5,-199.62 1234.5,-190.19"/>
<polygon fill="grey" stroke="grey" stroke-width="2" points="1238,-190.06 1234.5,-180.06 1231,-190.06 1238,-190.06"/>
</g>
<!-- 22 -->
<g id="node23" class="node">
<title>22</title>
<path fill="none" stroke="#56d8a9" stroke-width="2" d="M848,-108C848,-108 773,-108 773,-108 767,-108 761,-102 761,-96 761,-96 761,-84 761,-84 761,-78 767,-72 773,-72 773,-72 848,-72 848,-72 854,-72 860,-78 860,-84 860,-84 860,-96 860,-96 860,-102 854,-108 848,-108"/>
<text text-anchor="middle" x="810.5" y="-93" font-family="sans" font-size="10.00">trimgalore_trim</text>
<text text-anchor="middle" x="810.5" y="-82" font-family="sans" font-size="10.00">sample: Exp_2_3</text>
</g>
<!-- 22&#45;&gt;0 -->
<g id="edge5" class="edge">
<title>22&#45;&gt;0</title>
<path fill="none" stroke="grey" stroke-width="2" d="M860.11,-74.19C862.94,-73.43 865.75,-72.69 868.5,-72 943.61,-53.06 1032.54,-35.3 1081.51,-25.93"/>
<polygon fill="grey" stroke="grey" stroke-width="2" points="1082.17,-29.36 1091.34,-24.05 1080.86,-22.49 1082.17,-29.36"/>
</g>
<!-- 23 -->
<g id="node24" class="node">
<title>23</title>
<path fill="none" stroke="#56d8a9" stroke-width="2" d="M967,-108C967,-108 890,-108 890,-108 884,-108 878,-102 878,-96 878,-96 878,-84 878,-84 878,-78 884,-72 890,-72 890,-72 967,-72 967,-72 973,-72 979,-78 979,-84 979,-84 979,-96 979,-96 979,-102 973,-108 967,-108"/>
<text text-anchor="middle" x="928.5" y="-93" font-family="sans" font-size="10.00">trimgalore_trim</text>
<text text-anchor="middle" x="928.5" y="-82" font-family="sans" font-size="10.00">sample: Neg_1_2</text>
</g>
<!-- 23&#45;&gt;0 -->
<g id="edge6" class="edge">
<title>23&#45;&gt;0</title>
<path fill="none" stroke="grey" stroke-width="2" d="M974.98,-71.88C1007.89,-59.75 1051.42,-43.71 1081.88,-32.49"/>
<polygon fill="grey" stroke="grey" stroke-width="2" points="1083.11,-35.77 1091.28,-29.03 1080.69,-29.2 1083.11,-35.77"/>
</g>
<!-- 24&#45;&gt;0 -->
<g id="edge7" class="edge">
<title>24&#45;&gt;0</title>
<path fill="none" stroke="grey" stroke-width="2" d="M1101.34,-148.39C1118.72,-139.83 1138.49,-126.64 1148.5,-108 1159.37,-87.75 1149.18,-62.83 1137.82,-44.51"/>
<polygon fill="grey" stroke="grey" stroke-width="2" points="1140.69,-42.49 1132.24,-36.09 1134.85,-46.36 1140.69,-42.49"/>
</g>
<!-- 27 -->
<g id="node28" class="node">
<title>27</title>
<path fill="none" stroke="#566bd8" stroke-width="2" d="M730.5,-108C730.5,-108 652.5,-108 652.5,-108 646.5,-108 640.5,-102 640.5,-96 640.5,-96 640.5,-84 640.5,-84 640.5,-78 646.5,-72 652.5,-72 652.5,-72 730.5,-72 730.5,-72 736.5,-72 742.5,-78 742.5,-84 742.5,-84 742.5,-96 742.5,-96 742.5,-102 736.5,-108 730.5,-108"/>
<text text-anchor="middle" x="691.5" y="-87.5" font-family="sans" font-size="10.00">htseq_expression</text>
</g>
<!-- 24&#45;&gt;27 -->
<g id="edge41" class="edge">
<title>24&#45;&gt;27</title>
<path fill="none" stroke="grey" stroke-width="2" d="M1035.87,-156.76C979.84,-149.21 861.59,-132.14 752.63,-108.13"/>
<polygon fill="grey" stroke="grey" stroke-width="2" points="753.31,-104.7 742.79,-105.94 751.79,-111.53 753.31,-104.7"/>
</g>
<!-- 29 -->
<g id="node30" class="node">
<title>29</title>
<path fill="none" stroke="#56d0d8" stroke-width="2" d="M1128,-108C1128,-108 1009,-108 1009,-108 1003,-108 997,-102 997,-96 997,-96 997,-84 997,-84 997,-78 1003,-72 1009,-72 1009,-72 1128,-72 1128,-72 1134,-72 1140,-78 1140,-84 1140,-84 1140,-96 1140,-96 1140,-102 1134,-108 1128,-108"/>
<text text-anchor="middle" x="1068.5" y="-87.5" font-family="sans" font-size="10.00">featurecounts_expression</text>
</g>
<!-- 24&#45;&gt;29 -->
<g id="edge43" class="edge">
<title>24&#45;&gt;29</title>
<path fill="none" stroke="grey" stroke-width="2" d="M1068.5,-143.7C1068.5,-135.98 1068.5,-126.71 1068.5,-118.11"/>
<polygon fill="grey" stroke="grey" stroke-width="2" points="1072,-118.1 1068.5,-108.1 1065,-118.1 1072,-118.1"/>
</g>
<!-- 25 -->
<g id="node26" class="node">
<title>25</title>
<path fill="none" stroke="#56a9d8" stroke-width="2" d="M1166.5,-254.5C1166.5,-254.5 1122.5,-254.5 1122.5,-254.5 1116.5,-254.5 1110.5,-248.5 1110.5,-242.5 1110.5,-242.5 1110.5,-230.5 1110.5,-230.5 1110.5,-224.5 1116.5,-218.5 1122.5,-218.5 1122.5,-218.5 1166.5,-218.5 1166.5,-218.5 1172.5,-218.5 1178.5,-224.5 1178.5,-230.5 1178.5,-230.5 1178.5,-242.5 1178.5,-242.5 1178.5,-248.5 1172.5,-254.5 1166.5,-254.5"/>
<text text-anchor="middle" x="1144.5" y="-234" font-family="sans" font-size="10.00">star_index</text>
</g>
<!-- 25&#45;&gt;24 -->
<g id="edge38" class="edge">
<title>25&#45;&gt;24</title>
<path fill="none" stroke="grey" stroke-width="2" d="M1126.49,-218.32C1116.74,-209.02 1104.54,-197.38 1093.84,-187.18"/>
<polygon fill="grey" stroke="grey" stroke-width="2" points="1096.03,-184.43 1086.38,-180.06 1091.2,-189.49 1096.03,-184.43"/>
</g>
<!-- 25&#45;&gt;26 -->
<g id="edge40" class="edge">
<title>25&#45;&gt;26</title>
<path fill="none" stroke="grey" stroke-width="2" d="M1178.51,-219.29C1181.52,-218.1 1184.54,-216.98 1187.5,-216 1255.99,-193.28 1338.61,-177.64 1387.73,-169.52"/>
<polygon fill="grey" stroke="grey" stroke-width="2" points="1388.38,-172.96 1397.68,-167.9 1387.25,-166.05 1388.38,-172.96"/>
</g>
<!-- 26&#45;&gt;0 -->
<g id="edge8" class="edge">
<title>26&#45;&gt;0</title>
<path fill="none" stroke="grey" stroke-width="2" d="M1412.94,-143.81C1387.79,-119.35 1343.55,-76.88 1334.5,-72 1276.75,-40.89 1200.53,-27.73 1155.78,-22.4"/>
<polygon fill="grey" stroke="grey" stroke-width="2" points="1155.98,-18.9 1145.65,-21.26 1155.2,-25.85 1155.98,-18.9"/>
</g>
<!-- 28 -->
<g id="node29" class="node">
<title>28</title>
<path fill="none" stroke="#566bd8" stroke-width="2" d="M1476.5,-108C1476.5,-108 1398.5,-108 1398.5,-108 1392.5,-108 1386.5,-102 1386.5,-96 1386.5,-96 1386.5,-84 1386.5,-84 1386.5,-78 1392.5,-72 1398.5,-72 1398.5,-72 1476.5,-72 1476.5,-72 1482.5,-72 1488.5,-78 1488.5,-84 1488.5,-84 1488.5,-96 1488.5,-96 1488.5,-102 1482.5,-108 1476.5,-108"/>
<text text-anchor="middle" x="1437.5" y="-87.5" font-family="sans" font-size="10.00">htseq_expression</text>
</g>
<!-- 26&#45;&gt;28 -->
<g id="edge42" class="edge">
<title>26&#45;&gt;28</title>
<path fill="none" stroke="grey" stroke-width="2" d="M1432.23,-143.7C1433,-135.98 1433.93,-126.71 1434.79,-118.11"/>
<polygon fill="grey" stroke="grey" stroke-width="2" points="1438.28,-118.4 1435.79,-108.1 1431.31,-117.71 1438.28,-118.4"/>
</g>
<!-- 30 -->
<g id="node31" class="node">
<title>30</title>
<path fill="none" stroke="#56d0d8" stroke-width="2" d="M1638,-108C1638,-108 1519,-108 1519,-108 1513,-108 1507,-102 1507,-96 1507,-96 1507,-84 1507,-84 1507,-78 1513,-72 1519,-72 1519,-72 1638,-72 1638,-72 1644,-72 1650,-78 1650,-84 1650,-84 1650,-96 1650,-96 1650,-102 1644,-108 1638,-108"/>
<text text-anchor="middle" x="1578.5" y="-87.5" font-family="sans" font-size="10.00">featurecounts_expression</text>
</g>
<!-- 26&#45;&gt;30 -->
<g id="edge44" class="edge">
<title>26&#45;&gt;30</title>
<path fill="none" stroke="grey" stroke-width="2" d="M1463.35,-145.46C1483.93,-135.73 1510.74,-123.05 1533.31,-112.37"/>
<polygon fill="grey" stroke="grey" stroke-width="2" points="1534.83,-115.53 1542.38,-108.09 1531.84,-109.2 1534.83,-115.53"/>
</g>
<!-- 27&#45;&gt;0 -->
<g id="edge9" class="edge">
<title>27&#45;&gt;0</title>
<path fill="none" stroke="grey" stroke-width="2" d="M742.77,-73.99C745.72,-73.28 748.64,-72.61 751.5,-72 870.74,-46.62 1014.39,-29.78 1081.09,-22.74"/>
<polygon fill="grey" stroke="grey" stroke-width="2" points="1081.53,-26.22 1091.12,-21.7 1080.81,-19.25 1081.53,-26.22"/>
</g>
<!-- 28&#45;&gt;0 -->
<g id="edge10" class="edge">
<title>28&#45;&gt;0</title>
<path fill="none" stroke="grey" stroke-width="2" d="M1386.47,-75.39C1381.75,-74.22 1377.04,-73.07 1372.5,-72 1295.74,-53.96 1205.19,-35.81 1155.6,-26.14"/>
<polygon fill="grey" stroke="grey" stroke-width="2" points="1156.15,-22.68 1145.66,-24.2 1154.81,-29.55 1156.15,-22.68"/>
</g>
<!-- 29&#45;&gt;0 -->
<g id="edge11" class="edge">
<title>29&#45;&gt;0</title>
<path fill="none" stroke="grey" stroke-width="2" d="M1080.86,-71.7C1086.73,-63.47 1093.87,-53.48 1100.34,-44.42"/>
<polygon fill="grey" stroke="grey" stroke-width="2" points="1103.32,-46.28 1106.28,-36.1 1097.62,-42.21 1103.32,-46.28"/>
</g>
<!-- 30&#45;&gt;0 -->
<g id="edge12" class="edge">
<title>30&#45;&gt;0</title>
<path fill="none" stroke="grey" stroke-width="2" d="M1507,-73.72C1503.79,-73.12 1500.61,-72.54 1497.5,-72 1372.94,-50.25 1224.11,-31.54 1155.95,-23.38"/>
<polygon fill="grey" stroke="grey" stroke-width="2" points="1156.06,-19.87 1145.71,-22.16 1155.23,-26.82 1156.06,-19.87"/>
</g>
<!-- 31&#45;&gt;0 -->
<g id="edge13" class="edge">
<title>31&#45;&gt;0</title>
<path fill="none" stroke="grey" stroke-width="2" d="M1346.92,-218.27C1346.75,-185.21 1341.51,-112.55 1301.5,-72 1262.82,-32.8 1197.04,-22.17 1155.77,-19.53"/>
<polygon fill="grey" stroke="grey" stroke-width="2" points="1155.76,-16.02 1145.59,-19.01 1155.4,-23.02 1155.76,-16.02"/>
</g>
<!-- 32 -->
<g id="node33" class="node">
<title>32</title>
<path fill="none" stroke="#b6d856" stroke-width="2" d="M1462,-329C1462,-329 1401,-329 1401,-329 1395,-329 1389,-323 1389,-317 1389,-317 1389,-305 1389,-305 1389,-299 1395,-293 1401,-293 1401,-293 1462,-293 1462,-293 1468,-293 1474,-299 1474,-305 1474,-305 1474,-317 1474,-317 1474,-323 1468,-329 1462,-329"/>
<text text-anchor="middle" x="1431.5" y="-308.5" font-family="sans" font-size="10.00">salmon_index</text>
</g>
<!-- 32&#45;&gt;31 -->
<g id="edge46" class="edge">
<title>32&#45;&gt;31</title>
<path fill="none" stroke="grey" stroke-width="2" d="M1411.36,-292.82C1400.24,-283.34 1386.27,-271.43 1374.15,-261.08"/>
<polygon fill="grey" stroke="grey" stroke-width="2" points="1376.38,-258.38 1366.5,-254.56 1371.84,-263.71 1376.38,-258.38"/>
</g>
<!-- 32&#45;&gt;33 -->
<g id="edge48" class="edge">
<title>32&#45;&gt;33</title>
<path fill="none" stroke="grey" stroke-width="2" d="M1451.17,-292.82C1461.92,-283.43 1475.4,-271.65 1487.16,-261.38"/>
<polygon fill="grey" stroke="grey" stroke-width="2" points="1489.74,-263.77 1494.97,-254.56 1485.14,-258.5 1489.74,-263.77"/>
</g>
<!-- 33&#45;&gt;0 -->
<g id="edge14" class="edge">
<title>33&#45;&gt;0</title>
<path fill="none" stroke="grey" stroke-width="2" d="M1549.45,-218.44C1606.22,-188.58 1707.54,-124.98 1659.5,-72 1625.69,-34.71 1272.51,-22.77 1155.75,-19.82"/>
<polygon fill="grey" stroke="grey" stroke-width="2" points="1155.6,-16.31 1145.52,-19.57 1155.43,-23.31 1155.6,-16.31"/>
</g>
</g>
</svg>
