<?xml version="1.0" encoding="UTF-8" standalone="no"?>
<!DOCTYPE svg PUBLIC "-//W3C//DTD SVG 1.1//EN"
 "http://www.w3.org/Graphics/SVG/1.1/DTD/svg11.dtd">
<!-- Generated by graphviz version 2.43.0 (0)
 -->
<!-- Title: snakemake_dag Pages: 1 -->
<svg width="707pt" height="332pt"
 viewBox="0.00 0.00 707.00 332.00" xmlns="http://www.w3.org/2000/svg" xmlns:xlink="http://www.w3.org/1999/xlink">
<g id="graph0" class="graph" transform="scale(1 1) rotate(0) translate(4 328)">
<title>snakemake_dag</title>
<polygon fill="white" stroke="transparent" points="-4,4 -4,-328 703,-328 703,4 -4,4"/>
<!-- 0 -->
<g id="node1" class="node">
<title>0</title>
<path fill="none" stroke="#b6d856" stroke-width="2" d="M466.5,-36C466.5,-36 436.5,-36 436.5,-36 430.5,-36 424.5,-30 424.5,-24 424.5,-24 424.5,-12 424.5,-12 424.5,-6 430.5,0 436.5,0 436.5,0 466.5,0 466.5,0 472.5,0 478.5,-6 478.5,-12 478.5,-12 478.5,-24 478.5,-24 478.5,-30 472.5,-36 466.5,-36"/>
<text text-anchor="middle" x="451.5" y="-15.5" font-family="sans" font-size="10.00">all</text>
</g>
<!-- 1 -->
<g id="node2" class="node">
<title>1</title>
<path fill="none" stroke="#567bd8" stroke-width="2" d="M65,-108C65,-108 12,-108 12,-108 6,-108 0,-102 0,-96 0,-96 0,-84 0,-84 0,-78 6,-72 12,-72 12,-72 65,-72 65,-72 71,-72 77,-78 77,-84 77,-84 77,-96 77,-96 77,-102 71,-108 65,-108"/>
<text text-anchor="middle" x="38.5" y="-87.5" font-family="sans" font-size="10.00">multiqc_raw</text>
</g>
<!-- 1&#45;&gt;0 -->
<g id="edge4" class="edge">
<title>1&#45;&gt;0</title>
<path fill="none" stroke="grey" stroke-width="2" d="M77.07,-74.61C80.24,-73.65 83.41,-72.76 86.5,-72 204.22,-42.91 347.5,-27.85 414.12,-21.99"/>
<polygon fill="grey" stroke="grey" stroke-width="2" points="414.47,-25.47 424.13,-21.13 413.87,-18.5 414.47,-25.47"/>
</g>
<!-- 2 -->
<g id="node3" class="node">
<title>2</title>
<path fill="none" stroke="#d87d56" stroke-width="2" d="M61.5,-180C61.5,-180 15.5,-180 15.5,-180 9.5,-180 3.5,-174 3.5,-168 3.5,-168 3.5,-156 3.5,-156 3.5,-150 9.5,-144 15.5,-144 15.5,-144 61.5,-144 61.5,-144 67.5,-144 73.5,-150 73.5,-156 73.5,-156 73.5,-168 73.5,-168 73.5,-174 67.5,-180 61.5,-180"/>
<text text-anchor="middle" x="38.5" y="-159.5" font-family="sans" font-size="10.00">fastqc_raw</text>
</g>
<!-- 2&#45;&gt;1 -->
<g id="edge9" class="edge">
<title>2&#45;&gt;1</title>
<path fill="none" stroke="grey" stroke-width="2" d="M38.5,-143.7C38.5,-135.98 38.5,-126.71 38.5,-118.11"/>
<polygon fill="grey" stroke="grey" stroke-width="2" points="42,-118.1 38.5,-108.1 35,-118.1 42,-118.1"/>
</g>
<!-- 3 -->
<g id="node4" class="node">
<title>3</title>
<path fill="none" stroke="#d8cb56" stroke-width="2" d="M527,-180C527,-180 450,-180 450,-180 444,-180 438,-174 438,-168 438,-168 438,-156 438,-156 438,-150 444,-144 450,-144 450,-144 527,-144 527,-144 533,-144 539,-150 539,-156 539,-156 539,-168 539,-168 539,-174 533,-180 527,-180"/>
<text text-anchor="middle" x="488.5" y="-159.5" font-family="sans" font-size="10.00">multiqc_trimmed</text>
</g>
<!-- 3&#45;&gt;0 -->
<g id="edge6" class="edge">
<title>3&#45;&gt;0</title>
<path fill="none" stroke="grey" stroke-width="2" d="M501.04,-143.73C512.69,-125.39 526.7,-95.82 515.5,-72 509.32,-58.87 498.12,-47.87 486.8,-39.36"/>
<polygon fill="grey" stroke="grey" stroke-width="2" points="488.79,-36.49 478.6,-33.61 484.77,-42.22 488.79,-36.49"/>
</g>
<!-- 4 -->
<g id="node5" class="node">
<title>4</title>
<path fill="none" stroke="#d86e56" stroke-width="2" d="M501.5,-252C501.5,-252 431.5,-252 431.5,-252 425.5,-252 419.5,-246 419.5,-240 419.5,-240 419.5,-228 419.5,-228 419.5,-222 425.5,-216 431.5,-216 431.5,-216 501.5,-216 501.5,-216 507.5,-216 513.5,-222 513.5,-228 513.5,-228 513.5,-240 513.5,-240 513.5,-246 507.5,-252 501.5,-252"/>
<text text-anchor="middle" x="466.5" y="-231.5" font-family="sans" font-size="10.00">fastqc_trimmed</text>
</g>
<!-- 4&#45;&gt;3 -->
<g id="edge10" class="edge">
<title>4&#45;&gt;3</title>
<path fill="none" stroke="grey" stroke-width="2" d="M471.94,-215.7C474.39,-207.9 477.34,-198.51 480.07,-189.83"/>
<polygon fill="grey" stroke="grey" stroke-width="2" points="483.46,-190.69 483.12,-180.1 476.79,-188.59 483.46,-190.69"/>
</g>
<!-- 5 -->
<g id="node6" class="node">
<title>5</title>
<path fill="none" stroke="#56d87b" stroke-width="2" d="M449.5,-324C449.5,-324 367.5,-324 367.5,-324 361.5,-324 355.5,-318 355.5,-312 355.5,-312 355.5,-300 355.5,-300 355.5,-294 361.5,-288 367.5,-288 367.5,-288 449.5,-288 449.5,-288 455.5,-288 461.5,-294 461.5,-300 461.5,-300 461.5,-312 461.5,-312 461.5,-318 455.5,-324 449.5,-324"/>
<text text-anchor="middle" x="408.5" y="-303.5" font-family="sans" font-size="10.00">trimmomatic_trim</text>
</g>
<!-- 5&#45;&gt;4 -->
<g id="edge11" class="edge">
<title>5&#45;&gt;4</title>
<path fill="none" stroke="grey" stroke-width="2" d="M422.84,-287.7C429.79,-279.3 438.27,-269.07 445.9,-259.86"/>
<polygon fill="grey" stroke="grey" stroke-width="2" points="448.64,-262.04 452.33,-252.1 443.25,-257.57 448.64,-262.04"/>
</g>
<!-- 8 -->
<g id="node9" class="node">
<title>8</title>
<path fill="none" stroke="#56d86b" stroke-width="2" d="M243.5,-252C243.5,-252 191.5,-252 191.5,-252 185.5,-252 179.5,-246 179.5,-240 179.5,-240 179.5,-228 179.5,-228 179.5,-222 185.5,-216 191.5,-216 191.5,-216 243.5,-216 243.5,-216 249.5,-216 255.5,-222 255.5,-228 255.5,-228 255.5,-240 255.5,-240 255.5,-246 249.5,-252 243.5,-252"/>
<text text-anchor="middle" x="217.5" y="-231.5" font-family="sans" font-size="10.00">hisat2_align</text>
</g>
<!-- 5&#45;&gt;8 -->
<g id="edge14" class="edge">
<title>5&#45;&gt;8</title>
<path fill="none" stroke="grey" stroke-width="2" d="M361.78,-287.88C332.51,-277.15 294.88,-263.36 265.39,-252.55"/>
<polygon fill="grey" stroke="grey" stroke-width="2" points="266.32,-249.16 255.72,-249.01 263.91,-255.74 266.32,-249.16"/>
</g>
<!-- 11 -->
<g id="node12" class="node">
<title>11</title>
<path fill="none" stroke="#56d8d0" stroke-width="2" d="M388,-180C388,-180 347,-180 347,-180 341,-180 335,-174 335,-168 335,-168 335,-156 335,-156 335,-150 341,-144 347,-144 347,-144 388,-144 388,-144 394,-144 400,-150 400,-156 400,-156 400,-168 400,-168 400,-174 394,-180 388,-180"/>
<text text-anchor="middle" x="367.5" y="-159.5" font-family="sans" font-size="10.00">star_align</text>
</g>
<!-- 5&#45;&gt;11 -->
<g id="edge16" class="edge">
<title>5&#45;&gt;11</title>
<path fill="none" stroke="grey" stroke-width="2" d="M364.43,-287.98C348.95,-279.62 333.24,-267.85 324.5,-252 312.79,-230.76 327.12,-205.84 342.3,-187.78"/>
<polygon fill="grey" stroke="grey" stroke-width="2" points="345.2,-189.79 349.25,-180.01 339.98,-185.13 345.2,-189.79"/>
</g>
<!-- 15 -->
<g id="node16" class="node">
<title>15</title>
<path fill="none" stroke="#8fd856" stroke-width="2" d="M631,-252C631,-252 544,-252 544,-252 538,-252 532,-246 532,-240 532,-240 532,-228 532,-228 532,-222 538,-216 544,-216 544,-216 631,-216 631,-216 637,-216 643,-222 643,-228 643,-228 643,-240 643,-240 643,-246 637,-252 631,-252"/>
<text text-anchor="middle" x="587.5" y="-231.5" font-family="sans" font-size="10.00">salmon_expression</text>
</g>
<!-- 5&#45;&gt;15 -->
<g id="edge20" class="edge">
<title>5&#45;&gt;15</title>
<path fill="none" stroke="grey" stroke-width="2" d="M452.29,-287.88C477.08,-278.18 508.28,-265.98 534.46,-255.74"/>
<polygon fill="grey" stroke="grey" stroke-width="2" points="535.82,-258.97 543.85,-252.07 533.27,-252.45 535.82,-258.97"/>
</g>
<!-- 6 -->
<g id="node7" class="node">
<title>6</title>
<path fill="none" stroke="#d89556" stroke-width="2" d="M179.5,-108C179.5,-108 107.5,-108 107.5,-108 101.5,-108 95.5,-102 95.5,-96 95.5,-96 95.5,-84 95.5,-84 95.5,-78 101.5,-72 107.5,-72 107.5,-72 179.5,-72 179.5,-72 185.5,-72 191.5,-78 191.5,-84 191.5,-84 191.5,-96 191.5,-96 191.5,-102 185.5,-108 179.5,-108"/>
<text text-anchor="middle" x="143.5" y="-87.5" font-family="sans" font-size="10.00">stringtie_quality</text>
</g>
<!-- 6&#45;&gt;0 -->
<g id="edge3" class="edge">
<title>6&#45;&gt;0</title>
<path fill="none" stroke="grey" stroke-width="2" d="M191.63,-74.35C194.62,-73.53 197.6,-72.74 200.5,-72 275.86,-52.84 365.17,-35.16 414.35,-25.86"/>
<polygon fill="grey" stroke="grey" stroke-width="2" points="415.04,-29.29 424.22,-24 413.74,-22.41 415.04,-29.29"/>
</g>
<!-- 7 -->
<g id="node8" class="node">
<title>7</title>
<path fill="none" stroke="#56d8b9" stroke-width="2" d="M218.5,-180C218.5,-180 126.5,-180 126.5,-180 120.5,-180 114.5,-174 114.5,-168 114.5,-168 114.5,-156 114.5,-156 114.5,-150 120.5,-144 126.5,-144 126.5,-144 218.5,-144 218.5,-144 224.5,-144 230.5,-150 230.5,-156 230.5,-156 230.5,-168 230.5,-168 230.5,-174 224.5,-180 218.5,-180"/>
<text text-anchor="middle" x="172.5" y="-159.5" font-family="sans" font-size="10.00">stringtie_expression</text>
</g>
<!-- 7&#45;&gt;6 -->
<g id="edge12" class="edge">
<title>7&#45;&gt;6</title>
<path fill="none" stroke="grey" stroke-width="2" d="M165.33,-143.7C162.07,-135.81 158.13,-126.3 154.5,-117.55"/>
<polygon fill="grey" stroke="grey" stroke-width="2" points="157.65,-116 150.59,-108.1 151.18,-118.68 157.65,-116"/>
</g>
<!-- 8&#45;&gt;7 -->
<g id="edge13" class="edge">
<title>8&#45;&gt;7</title>
<path fill="none" stroke="grey" stroke-width="2" d="M206.38,-215.7C201.14,-207.56 194.8,-197.69 189.02,-188.7"/>
<polygon fill="grey" stroke="grey" stroke-width="2" points="191.85,-186.62 183.5,-180.1 185.96,-190.41 191.85,-186.62"/>
</g>
<!-- 9 -->
<g id="node10" class="node">
<title>9</title>
<path fill="none" stroke="#d8bc56" stroke-width="2" d="M245,-324C245,-324 190,-324 190,-324 184,-324 178,-318 178,-312 178,-312 178,-300 178,-300 178,-294 184,-288 190,-288 190,-288 245,-288 245,-288 251,-288 257,-294 257,-300 257,-300 257,-312 257,-312 257,-318 251,-324 245,-324"/>
<text text-anchor="middle" x="217.5" y="-303.5" font-family="sans" font-size="10.00">hisat2_index</text>
</g>
<!-- 9&#45;&gt;8 -->
<g id="edge15" class="edge">
<title>9&#45;&gt;8</title>
<path fill="none" stroke="grey" stroke-width="2" d="M217.5,-287.7C217.5,-279.98 217.5,-270.71 217.5,-262.11"/>
<polygon fill="grey" stroke="grey" stroke-width="2" points="221,-262.1 217.5,-252.1 214,-262.1 221,-262.1"/>
</g>
<!-- 10 -->
<g id="node11" class="node">
<title>10</title>
<path fill="none" stroke="#ced856" stroke-width="2" d="M687,-108C687,-108 618,-108 618,-108 612,-108 606,-102 606,-96 606,-96 606,-84 606,-84 606,-78 612,-72 618,-72 618,-72 687,-72 687,-72 693,-72 699,-78 699,-84 699,-84 699,-96 699,-96 699,-102 693,-108 687,-108"/>
<text text-anchor="middle" x="652.5" y="-87.5" font-family="sans" font-size="10.00">trimgalore_trim</text>
</g>
<!-- 10&#45;&gt;0 -->
<g id="edge8" class="edge">
<title>10&#45;&gt;0</title>
<path fill="none" stroke="grey" stroke-width="2" d="M605.88,-72.76C570.15,-60.32 521.51,-43.38 488.44,-31.87"/>
<polygon fill="grey" stroke="grey" stroke-width="2" points="489.31,-28.46 478.71,-28.48 487,-35.07 489.31,-28.46"/>
</g>
<!-- 11&#45;&gt;0 -->
<g id="edge7" class="edge">
<title>11&#45;&gt;0</title>
<path fill="none" stroke="grey" stroke-width="2" d="M400.18,-150.24C430.45,-139.53 472.17,-122.63 481.5,-108 493.99,-88.42 483.29,-63.07 471.35,-44.44"/>
<polygon fill="grey" stroke="grey" stroke-width="2" points="474.2,-42.42 465.66,-36.14 468.43,-46.37 474.2,-42.42"/>
</g>
<!-- 13 -->
<g id="node14" class="node">
<title>13</title>
<path fill="none" stroke="#5692d8" stroke-width="2" d="M299.5,-108C299.5,-108 221.5,-108 221.5,-108 215.5,-108 209.5,-102 209.5,-96 209.5,-96 209.5,-84 209.5,-84 209.5,-78 215.5,-72 221.5,-72 221.5,-72 299.5,-72 299.5,-72 305.5,-72 311.5,-78 311.5,-84 311.5,-84 311.5,-96 311.5,-96 311.5,-102 305.5,-108 299.5,-108"/>
<text text-anchor="middle" x="260.5" y="-87.5" font-family="sans" font-size="10.00">htseq_expression</text>
</g>
<!-- 11&#45;&gt;13 -->
<g id="edge18" class="edge">
<title>11&#45;&gt;13</title>
<path fill="none" stroke="grey" stroke-width="2" d="M341.32,-143.88C327.46,-134.81 310.26,-123.55 295.29,-113.76"/>
<polygon fill="grey" stroke="grey" stroke-width="2" points="297.06,-110.74 286.78,-108.19 293.23,-116.59 297.06,-110.74"/>
</g>
<!-- 14 -->
<g id="node15" class="node">
<title>14</title>
<path fill="none" stroke="#566bd8" stroke-width="2" d="M461,-108C461,-108 342,-108 342,-108 336,-108 330,-102 330,-96 330,-96 330,-84 330,-84 330,-78 336,-72 342,-72 342,-72 461,-72 461,-72 467,-72 473,-78 473,-84 473,-84 473,-96 473,-96 473,-102 467,-108 461,-108"/>
<text text-anchor="middle" x="401.5" y="-87.5" font-family="sans" font-size="10.00">featurecounts_expression</text>
</g>
<!-- 11&#45;&gt;14 -->
<g id="edge19" class="edge">
<title>11&#45;&gt;14</title>
<path fill="none" stroke="grey" stroke-width="2" d="M375.9,-143.7C379.77,-135.73 384.45,-126.1 388.74,-117.26"/>
<polygon fill="grey" stroke="grey" stroke-width="2" points="391.97,-118.63 393.19,-108.1 385.67,-115.57 391.97,-118.63"/>
</g>
<!-- 12 -->
<g id="node13" class="node">
<title>12</title>
<path fill="none" stroke="#56a9d8" stroke-width="2" d="M389.5,-252C389.5,-252 345.5,-252 345.5,-252 339.5,-252 333.5,-246 333.5,-240 333.5,-240 333.5,-228 333.5,-228 333.5,-222 339.5,-216 345.5,-216 345.5,-216 389.5,-216 389.5,-216 395.5,-216 401.5,-222 401.5,-228 401.5,-228 401.5,-240 401.5,-240 401.5,-246 395.5,-252 389.5,-252"/>
<text text-anchor="middle" x="367.5" y="-231.5" font-family="sans" font-size="10.00">star_index</text>
</g>
<!-- 12&#45;&gt;11 -->
<g id="edge17" class="edge">
<title>12&#45;&gt;11</title>
<path fill="none" stroke="grey" stroke-width="2" d="M367.5,-215.7C367.5,-207.98 367.5,-198.71 367.5,-190.11"/>
<polygon fill="grey" stroke="grey" stroke-width="2" points="371,-190.1 367.5,-180.1 364,-190.1 371,-190.1"/>
</g>
<!-- 13&#45;&gt;0 -->
<g id="edge1" class="edge">
<title>13&#45;&gt;0</title>
<path fill="none" stroke="grey" stroke-width="2" d="M307.22,-71.88C340.41,-59.71 384.34,-43.62 414.97,-32.39"/>
<polygon fill="grey" stroke="grey" stroke-width="2" points="416.23,-35.65 424.41,-28.93 413.82,-29.08 416.23,-35.65"/>
</g>
<!-- 14&#45;&gt;0 -->
<g id="edge2" class="edge">
<title>14&#45;&gt;0</title>
<path fill="none" stroke="grey" stroke-width="2" d="M413.86,-71.7C419.73,-63.47 426.87,-53.48 433.34,-44.42"/>
<polygon fill="grey" stroke="grey" stroke-width="2" points="436.32,-46.28 439.28,-36.1 430.62,-42.21 436.32,-46.28"/>
</g>
<!-- 15&#45;&gt;0 -->
<g id="edge5" class="edge">
<title>15&#45;&gt;0</title>
<path fill="none" stroke="grey" stroke-width="2" d="M585.36,-215.75C580.69,-184.25 567.1,-116.56 532.5,-72 520.7,-56.8 503.24,-44.59 487.56,-35.74"/>
<polygon fill="grey" stroke="grey" stroke-width="2" points="489.05,-32.57 478.58,-30.92 485.74,-38.74 489.05,-32.57"/>
</g>
<!-- 16 -->
<g id="node17" class="node">
<title>16</title>
<path fill="none" stroke="#d8a456" stroke-width="2" d="M618,-324C618,-324 557,-324 557,-324 551,-324 545,-318 545,-312 545,-312 545,-300 545,-300 545,-294 551,-288 557,-288 557,-288 618,-288 618,-288 624,-288 630,-294 630,-300 630,-300 630,-312 630,-312 630,-318 624,-324 618,-324"/>
<text text-anchor="middle" x="587.5" y="-303.5" font-family="sans" font-size="10.00">salmon_index</text>
</g>
<!-- 16&#45;&gt;15 -->
<g id="edge21" class="edge">
<title>16&#45;&gt;15</title>
<path fill="none" stroke="grey" stroke-width="2" d="M587.5,-287.7C587.5,-279.98 587.5,-270.71 587.5,-262.11"/>
<polygon fill="grey" stroke="grey" stroke-width="2" points="591,-262.1 587.5,-252.1 584,-262.1 591,-262.1"/>
</g>
</g>
</svg>
