<?xml version="1.0" encoding="UTF-8" standalone="no"?>
<!DOCTYPE svg PUBLIC "-//W3C//DTD SVG 1.1//EN"
 "http://www.w3.org/Graphics/SVG/1.1/DTD/svg11.dtd">
<!-- Generated by graphviz version 2.43.0 (0)
 -->
<!-- Title: snakemake_dag Pages: 1 -->
<svg width="1058pt" height="332pt"
 viewBox="0.00 0.00 1058.00 332.00" xmlns="http://www.w3.org/2000/svg" xmlns:xlink="http://www.w3.org/1999/xlink">
<g id="graph0" class="graph" transform="scale(1 1) rotate(0) translate(4 328)">
<title>snakemake_dag</title>
<polygon fill="white" stroke="transparent" points="-4,4 -4,-328 1054,-328 1054,4 -4,4"/>
<!-- 0 -->
<g id="node1" class="node">
<title>0</title>
<path fill="none" stroke="#56d87b" stroke-width="2" d="M539.5,-36C539.5,-36 509.5,-36 509.5,-36 503.5,-36 497.5,-30 497.5,-24 497.5,-24 497.5,-12 497.5,-12 497.5,-6 503.5,0 509.5,0 509.5,0 539.5,0 539.5,0 545.5,0 551.5,-6 551.5,-12 551.5,-12 551.5,-24 551.5,-24 551.5,-30 545.5,-36 539.5,-36"/>
<text text-anchor="middle" x="524.5" y="-15.5" font-family="sans" font-size="10.00">all_qc</text>
</g>
<!-- 1 -->
<g id="node2" class="node">
<title>1</title>
<path fill="none" stroke="#56a2d8" stroke-width="2" d="M376,-108C376,-108 323,-108 323,-108 317,-108 311,-102 311,-96 311,-96 311,-84 311,-84 311,-78 317,-72 323,-72 323,-72 376,-72 376,-72 382,-72 388,-78 388,-84 388,-84 388,-96 388,-96 388,-102 382,-108 376,-108"/>
<text text-anchor="middle" x="349.5" y="-87.5" font-family="sans" font-size="10.00">multiqc_raw</text>
</g>
<!-- 1&#45;&gt;0 -->
<g id="edge1" class="edge">
<title>1&#45;&gt;0</title>
<path fill="none" stroke="grey" stroke-width="2" d="M388.34,-73.46C418.1,-61.56 458.88,-45.25 488.04,-33.58"/>
<polygon fill="grey" stroke="grey" stroke-width="2" points="489.46,-36.78 497.45,-29.82 486.86,-30.29 489.46,-36.78"/>
</g>
<!-- 2 -->
<g id="node3" class="node">
<title>2</title>
<path fill="none" stroke="#d87d56" stroke-width="2" d="M113,-180C113,-180 12,-180 12,-180 6,-180 0,-174 0,-168 0,-168 0,-156 0,-156 0,-150 6,-144 12,-144 12,-144 113,-144 113,-144 119,-144 125,-150 125,-156 125,-156 125,-168 125,-168 125,-174 119,-180 113,-180"/>
<text text-anchor="middle" x="62.5" y="-165" font-family="sans" font-size="10.00">fastqc_raw</text>
<text text-anchor="middle" x="62.5" y="-154" font-family="sans" font-size="10.00">sample_pr: Exp_2_3_1</text>
</g>
<!-- 2&#45;&gt;1 -->
<g id="edge3" class="edge">
<title>2&#45;&gt;1</title>
<path fill="none" stroke="grey" stroke-width="2" d="M125.13,-145.72C177.94,-132.84 252.46,-114.67 300.87,-102.86"/>
<polygon fill="grey" stroke="grey" stroke-width="2" points="301.91,-106.21 310.79,-100.44 300.25,-99.41 301.91,-106.21"/>
</g>
<!-- 3 -->
<g id="node4" class="node">
<title>3</title>
<path fill="none" stroke="#d87d56" stroke-width="2" d="M256,-180C256,-180 155,-180 155,-180 149,-180 143,-174 143,-168 143,-168 143,-156 143,-156 143,-150 149,-144 155,-144 155,-144 256,-144 256,-144 262,-144 268,-150 268,-156 268,-156 268,-168 268,-168 268,-174 262,-180 256,-180"/>
<text text-anchor="middle" x="205.5" y="-165" font-family="sans" font-size="10.00">fastqc_raw</text>
<text text-anchor="middle" x="205.5" y="-154" font-family="sans" font-size="10.00">sample_pr: Exp_2_3_2</text>
</g>
<!-- 3&#45;&gt;1 -->
<g id="edge4" class="edge">
<title>3&#45;&gt;1</title>
<path fill="none" stroke="grey" stroke-width="2" d="M240.73,-143.88C260.08,-134.47 284.27,-122.71 304.93,-112.67"/>
<polygon fill="grey" stroke="grey" stroke-width="2" points="306.67,-115.71 314.14,-108.19 303.61,-109.41 306.67,-115.71"/>
</g>
<!-- 4 -->
<g id="node5" class="node">
<title>4</title>
<path fill="none" stroke="#d87d56" stroke-width="2" d="M401,-180C401,-180 298,-180 298,-180 292,-180 286,-174 286,-168 286,-168 286,-156 286,-156 286,-150 292,-144 298,-144 298,-144 401,-144 401,-144 407,-144 413,-150 413,-156 413,-156 413,-168 413,-168 413,-174 407,-180 401,-180"/>
<text text-anchor="middle" x="349.5" y="-165" font-family="sans" font-size="10.00">fastqc_raw</text>
<text text-anchor="middle" x="349.5" y="-154" font-family="sans" font-size="10.00">sample_pr: Neg_1_2_1</text>
</g>
<!-- 4&#45;&gt;1 -->
<g id="edge5" class="edge">
<title>4&#45;&gt;1</title>
<path fill="none" stroke="grey" stroke-width="2" d="M349.5,-143.7C349.5,-135.98 349.5,-126.71 349.5,-118.11"/>
<polygon fill="grey" stroke="grey" stroke-width="2" points="353,-118.1 349.5,-108.1 346,-118.1 353,-118.1"/>
</g>
<!-- 5 -->
<g id="node6" class="node">
<title>5</title>
<path fill="none" stroke="#d87d56" stroke-width="2" d="M546,-180C546,-180 443,-180 443,-180 437,-180 431,-174 431,-168 431,-168 431,-156 431,-156 431,-150 437,-144 443,-144 443,-144 546,-144 546,-144 552,-144 558,-150 558,-156 558,-156 558,-168 558,-168 558,-174 552,-180 546,-180"/>
<text text-anchor="middle" x="494.5" y="-165" font-family="sans" font-size="10.00">fastqc_raw</text>
<text text-anchor="middle" x="494.5" y="-154" font-family="sans" font-size="10.00">sample_pr: Neg_1_2_2</text>
</g>
<!-- 5&#45;&gt;1 -->
<g id="edge6" class="edge">
<title>5&#45;&gt;1</title>
<path fill="none" stroke="grey" stroke-width="2" d="M459.03,-143.88C439.38,-134.39 414.78,-122.51 393.87,-112.42"/>
<polygon fill="grey" stroke="grey" stroke-width="2" points="395.38,-109.26 384.86,-108.07 392.34,-115.57 395.38,-109.26"/>
</g>
<!-- 6 -->
<g id="node7" class="node">
<title>6</title>
<path fill="none" stroke="#d8c356" stroke-width="2" d="M738,-108C738,-108 661,-108 661,-108 655,-108 649,-102 649,-96 649,-96 649,-84 649,-84 649,-78 655,-72 661,-72 661,-72 738,-72 738,-72 744,-72 750,-78 750,-84 750,-84 750,-96 750,-96 750,-102 744,-108 738,-108"/>
<text text-anchor="middle" x="699.5" y="-87.5" font-family="sans" font-size="10.00">multiqc_trimmed</text>
</g>
<!-- 6&#45;&gt;0 -->
<g id="edge2" class="edge">
<title>6&#45;&gt;0</title>
<path fill="none" stroke="grey" stroke-width="2" d="M656.69,-71.88C627.36,-60.15 588.88,-44.75 561,-33.6"/>
<polygon fill="grey" stroke="grey" stroke-width="2" points="562.2,-30.31 551.62,-29.85 559.6,-36.81 562.2,-30.31"/>
</g>
<!-- 7 -->
<g id="node8" class="node">
<title>7</title>
<path fill="none" stroke="#78d856" stroke-width="2" d="M510.5,-252C510.5,-252 440.5,-252 440.5,-252 434.5,-252 428.5,-246 428.5,-240 428.5,-240 428.5,-228 428.5,-228 428.5,-222 434.5,-216 440.5,-216 440.5,-216 510.5,-216 510.5,-216 516.5,-216 522.5,-222 522.5,-228 522.5,-228 522.5,-240 522.5,-240 522.5,-246 516.5,-252 510.5,-252"/>
<text text-anchor="middle" x="475.5" y="-237" font-family="sans" font-size="10.00">fastqc_trimmed</text>
<text text-anchor="middle" x="475.5" y="-226" font-family="sans" font-size="10.00">type: R1</text>
</g>
<!-- 7&#45;&gt;6 -->
<g id="edge7" class="edge">
<title>7&#45;&gt;6</title>
<path fill="none" stroke="grey" stroke-width="2" d="M506.79,-215.96C524.6,-205.97 547.15,-192.83 566.5,-180 588.73,-165.26 592.5,-159.07 614.5,-144 629.85,-133.49 647.22,-122.5 662.24,-113.28"/>
<polygon fill="grey" stroke="grey" stroke-width="2" points="664.06,-116.26 670.77,-108.07 660.41,-110.29 664.06,-116.26"/>
</g>
<!-- 8 -->
<g id="node9" class="node">
<title>8</title>
<path fill="none" stroke="#59d856" stroke-width="2" d="M628.5,-324C628.5,-324 546.5,-324 546.5,-324 540.5,-324 534.5,-318 534.5,-312 534.5,-312 534.5,-300 534.5,-300 534.5,-294 540.5,-288 546.5,-288 546.5,-288 628.5,-288 628.5,-288 634.5,-288 640.5,-294 640.5,-300 640.5,-300 640.5,-312 640.5,-312 640.5,-318 634.5,-324 628.5,-324"/>
<text text-anchor="middle" x="587.5" y="-309" font-family="sans" font-size="10.00">trimmomatic_trim</text>
<text text-anchor="middle" x="587.5" y="-298" font-family="sans" font-size="10.00">sample: Exp_2_3</text>
</g>
<!-- 8&#45;&gt;7 -->
<g id="edge13" class="edge">
<title>8&#45;&gt;7</title>
<path fill="none" stroke="grey" stroke-width="2" d="M560.1,-287.88C545.59,-278.81 527.58,-267.55 511.91,-257.76"/>
<polygon fill="grey" stroke="grey" stroke-width="2" points="513.34,-254.52 503,-252.19 509.63,-260.46 513.34,-254.52"/>
</g>
<!-- 9 -->
<g id="node10" class="node">
<title>9</title>
<path fill="none" stroke="#78d856" stroke-width="2" d="M622.5,-252C622.5,-252 552.5,-252 552.5,-252 546.5,-252 540.5,-246 540.5,-240 540.5,-240 540.5,-228 540.5,-228 540.5,-222 546.5,-216 552.5,-216 552.5,-216 622.5,-216 622.5,-216 628.5,-216 634.5,-222 634.5,-228 634.5,-228 634.5,-240 634.5,-240 634.5,-246 628.5,-252 622.5,-252"/>
<text text-anchor="middle" x="587.5" y="-237" font-family="sans" font-size="10.00">fastqc_trimmed</text>
<text text-anchor="middle" x="587.5" y="-226" font-family="sans" font-size="10.00">type: R2</text>
</g>
<!-- 8&#45;&gt;9 -->
<g id="edge14" class="edge">
<title>8&#45;&gt;9</title>
<path fill="none" stroke="grey" stroke-width="2" d="M587.5,-287.7C587.5,-279.98 587.5,-270.71 587.5,-262.11"/>
<polygon fill="grey" stroke="grey" stroke-width="2" points="591,-262.1 587.5,-252.1 584,-262.1 591,-262.1"/>
</g>
<!-- 11 -->
<g id="node12" class="node">
<title>11</title>
<path fill="none" stroke="#d8a456" stroke-width="2" d="M718,-252C718,-252 665,-252 665,-252 659,-252 653,-246 653,-240 653,-240 653,-228 653,-228 653,-222 659,-216 665,-216 665,-216 718,-216 718,-216 724,-216 730,-222 730,-228 730,-228 730,-240 730,-240 730,-246 724,-252 718,-252"/>
<text text-anchor="middle" x="691.5" y="-231.5" font-family="sans" font-size="10.00">trim_join_SE</text>
</g>
<!-- 8&#45;&gt;11 -->
<g id="edge16" class="edge">
<title>8&#45;&gt;11</title>
<path fill="none" stroke="grey" stroke-width="2" d="M612.94,-287.88C626.29,-278.89 642.82,-267.76 657.28,-258.03"/>
<polygon fill="grey" stroke="grey" stroke-width="2" points="659.62,-260.68 665.96,-252.19 655.71,-254.87 659.62,-260.68"/>
</g>
<!-- 9&#45;&gt;6 -->
<g id="edge8" class="edge">
<title>9&#45;&gt;6</title>
<path fill="none" stroke="grey" stroke-width="2" d="M596.64,-215.75C606.87,-197.16 624.51,-167.14 643.5,-144 651.86,-133.81 662.07,-123.63 671.47,-114.94"/>
<polygon fill="grey" stroke="grey" stroke-width="2" points="674.05,-117.33 679.12,-108.03 669.35,-112.14 674.05,-117.33"/>
</g>
<!-- 10 -->
<g id="node11" class="node">
<title>10</title>
<path fill="none" stroke="#78d856" stroke-width="2" d="M734.5,-180C734.5,-180 664.5,-180 664.5,-180 658.5,-180 652.5,-174 652.5,-168 652.5,-168 652.5,-156 652.5,-156 652.5,-150 658.5,-144 664.5,-144 664.5,-144 734.5,-144 734.5,-144 740.5,-144 746.5,-150 746.5,-156 746.5,-156 746.5,-168 746.5,-168 746.5,-174 740.5,-180 734.5,-180"/>
<text text-anchor="middle" x="699.5" y="-165" font-family="sans" font-size="10.00">fastqc_trimmed</text>
<text text-anchor="middle" x="699.5" y="-154" font-family="sans" font-size="10.00">type: SE</text>
</g>
<!-- 10&#45;&gt;6 -->
<g id="edge9" class="edge">
<title>10&#45;&gt;6</title>
<path fill="none" stroke="grey" stroke-width="2" d="M699.5,-143.7C699.5,-135.98 699.5,-126.71 699.5,-118.11"/>
<polygon fill="grey" stroke="grey" stroke-width="2" points="703,-118.1 699.5,-108.1 696,-118.1 703,-118.1"/>
</g>
<!-- 11&#45;&gt;10 -->
<g id="edge15" class="edge">
<title>11&#45;&gt;10</title>
<path fill="none" stroke="grey" stroke-width="2" d="M693.48,-215.7C694.36,-207.98 695.42,-198.71 696.4,-190.11"/>
<polygon fill="grey" stroke="grey" stroke-width="2" points="699.89,-190.44 697.55,-180.1 692.93,-189.64 699.89,-190.44"/>
</g>
<!-- 12 -->
<g id="node13" class="node">
<title>12</title>
<path fill="none" stroke="#78d856" stroke-width="2" d="M830.5,-252C830.5,-252 760.5,-252 760.5,-252 754.5,-252 748.5,-246 748.5,-240 748.5,-240 748.5,-228 748.5,-228 748.5,-222 754.5,-216 760.5,-216 760.5,-216 830.5,-216 830.5,-216 836.5,-216 842.5,-222 842.5,-228 842.5,-228 842.5,-240 842.5,-240 842.5,-246 836.5,-252 830.5,-252"/>
<text text-anchor="middle" x="795.5" y="-237" font-family="sans" font-size="10.00">fastqc_trimmed</text>
<text text-anchor="middle" x="795.5" y="-226" font-family="sans" font-size="10.00">type: R1</text>
</g>
<!-- 12&#45;&gt;6 -->
<g id="edge10" class="edge">
<title>12&#45;&gt;6</title>
<path fill="none" stroke="grey" stroke-width="2" d="M790.07,-215.9C783.62,-197.17 771.69,-166.79 755.5,-144 748.05,-133.51 738.3,-123.43 729.03,-114.93"/>
<polygon fill="grey" stroke="grey" stroke-width="2" points="731.22,-112.19 721.42,-108.18 726.58,-117.43 731.22,-112.19"/>
</g>
<!-- 13 -->
<g id="node14" class="node">
<title>13</title>
<path fill="none" stroke="#59d856" stroke-width="2" d="M948.5,-324C948.5,-324 866.5,-324 866.5,-324 860.5,-324 854.5,-318 854.5,-312 854.5,-312 854.5,-300 854.5,-300 854.5,-294 860.5,-288 866.5,-288 866.5,-288 948.5,-288 948.5,-288 954.5,-288 960.5,-294 960.5,-300 960.5,-300 960.5,-312 960.5,-312 960.5,-318 954.5,-324 948.5,-324"/>
<text text-anchor="middle" x="907.5" y="-309" font-family="sans" font-size="10.00">trimmomatic_trim</text>
<text text-anchor="middle" x="907.5" y="-298" font-family="sans" font-size="10.00">sample: Neg_1_2</text>
</g>
<!-- 13&#45;&gt;12 -->
<g id="edge17" class="edge">
<title>13&#45;&gt;12</title>
<path fill="none" stroke="grey" stroke-width="2" d="M880.1,-287.88C865.59,-278.81 847.58,-267.55 831.91,-257.76"/>
<polygon fill="grey" stroke="grey" stroke-width="2" points="833.34,-254.52 823,-252.19 829.63,-260.46 833.34,-254.52"/>
</g>
<!-- 14 -->
<g id="node15" class="node">
<title>14</title>
<path fill="none" stroke="#78d856" stroke-width="2" d="M942.5,-252C942.5,-252 872.5,-252 872.5,-252 866.5,-252 860.5,-246 860.5,-240 860.5,-240 860.5,-228 860.5,-228 860.5,-222 866.5,-216 872.5,-216 872.5,-216 942.5,-216 942.5,-216 948.5,-216 954.5,-222 954.5,-228 954.5,-228 954.5,-240 954.5,-240 954.5,-246 948.5,-252 942.5,-252"/>
<text text-anchor="middle" x="907.5" y="-237" font-family="sans" font-size="10.00">fastqc_trimmed</text>
<text text-anchor="middle" x="907.5" y="-226" font-family="sans" font-size="10.00">type: R2</text>
</g>
<!-- 13&#45;&gt;14 -->
<g id="edge18" class="edge">
<title>13&#45;&gt;14</title>
<path fill="none" stroke="grey" stroke-width="2" d="M907.5,-287.7C907.5,-279.98 907.5,-270.71 907.5,-262.11"/>
<polygon fill="grey" stroke="grey" stroke-width="2" points="911,-262.1 907.5,-252.1 904,-262.1 911,-262.1"/>
</g>
<!-- 16 -->
<g id="node17" class="node">
<title>16</title>
<path fill="none" stroke="#d8a456" stroke-width="2" d="M1038,-252C1038,-252 985,-252 985,-252 979,-252 973,-246 973,-240 973,-240 973,-228 973,-228 973,-222 979,-216 985,-216 985,-216 1038,-216 1038,-216 1044,-216 1050,-222 1050,-228 1050,-228 1050,-240 1050,-240 1050,-246 1044,-252 1038,-252"/>
<text text-anchor="middle" x="1011.5" y="-231.5" font-family="sans" font-size="10.00">trim_join_SE</text>
</g>
<!-- 13&#45;&gt;16 -->
<g id="edge20" class="edge">
<title>13&#45;&gt;16</title>
<path fill="none" stroke="grey" stroke-width="2" d="M932.94,-287.88C946.29,-278.89 962.82,-267.76 977.28,-258.03"/>
<polygon fill="grey" stroke="grey" stroke-width="2" points="979.62,-260.68 985.96,-252.19 975.71,-254.87 979.62,-260.68"/>
</g>
<!-- 14&#45;&gt;6 -->
<g id="edge11" class="edge">
<title>14&#45;&gt;6</title>
<path fill="none" stroke="grey" stroke-width="2" d="M883.07,-215.77C857.4,-197.72 815.78,-168.63 779.5,-144 764.66,-133.93 748.15,-122.95 734.01,-113.62"/>
<polygon fill="grey" stroke="grey" stroke-width="2" points="735.82,-110.62 725.54,-108.04 731.96,-116.46 735.82,-110.62"/>
</g>
<!-- 15 -->
<g id="node16" class="node">
<title>15</title>
<path fill="none" stroke="#78d856" stroke-width="2" d="M1012.5,-180C1012.5,-180 942.5,-180 942.5,-180 936.5,-180 930.5,-174 930.5,-168 930.5,-168 930.5,-156 930.5,-156 930.5,-150 936.5,-144 942.5,-144 942.5,-144 1012.5,-144 1012.5,-144 1018.5,-144 1024.5,-150 1024.5,-156 1024.5,-156 1024.5,-168 1024.5,-168 1024.5,-174 1018.5,-180 1012.5,-180"/>
<text text-anchor="middle" x="977.5" y="-165" font-family="sans" font-size="10.00">fastqc_trimmed</text>
<text text-anchor="middle" x="977.5" y="-154" font-family="sans" font-size="10.00">type: SE</text>
</g>
<!-- 15&#45;&gt;6 -->
<g id="edge12" class="edge">
<title>15&#45;&gt;6</title>
<path fill="none" stroke="grey" stroke-width="2" d="M930.34,-149.13C883.43,-137.31 811.26,-119.14 760.12,-106.26"/>
<polygon fill="grey" stroke="grey" stroke-width="2" points="760.74,-102.81 750.19,-103.76 759.03,-109.6 760.74,-102.81"/>
</g>
<!-- 16&#45;&gt;15 -->
<g id="edge19" class="edge">
<title>16&#45;&gt;15</title>
<path fill="none" stroke="grey" stroke-width="2" d="M1003.1,-215.7C999.23,-207.73 994.55,-198.1 990.26,-189.26"/>
<polygon fill="grey" stroke="grey" stroke-width="2" points="993.33,-187.57 985.81,-180.1 987.03,-190.63 993.33,-187.57"/>
</g>
</g>
</svg>
