<?xml version="1.0" encoding="UTF-8" standalone="no"?>
<!DOCTYPE svg PUBLIC "-//W3C//DTD SVG 1.1//EN"
 "http://www.w3.org/Graphics/SVG/1.1/DTD/svg11.dtd">
<!-- Generated by graphviz version 14.1.2 (20260126.1125)
 -->
<!-- Title: snakemake_dag Pages: 1 -->
<svg width="1054pt" height="332pt"
 viewBox="0.00 0.00 1054.00 332.00" xmlns="http://www.w3.org/2000/svg" xmlns:xlink="http://www.w3.org/1999/xlink">
<g id="graph0" class="graph" transform="scale(1 1) rotate(0) translate(4 328)">
<title>snakemake_dag</title>
<polygon fill="white" stroke="none" points="-4,4 -4,-328 1049.75,-328 1049.75,4 -4,4"/>
<!-- 0 -->
<g id="node1" class="node">
<title>0</title>
<path fill="none" stroke="#68d856" stroke-width="2" d="M542.25,-36C542.25,-36 504.5,-36 504.5,-36 498.5,-36 492.5,-30 492.5,-24 492.5,-24 492.5,-12 492.5,-12 492.5,-6 498.5,0 504.5,0 504.5,0 542.25,0 542.25,0 548.25,0 554.25,-6 554.25,-12 554.25,-12 554.25,-24 554.25,-24 554.25,-30 548.25,-36 542.25,-36"/>
<text xml:space="preserve" text-anchor="middle" x="523.38" y="-14.88" font-family="sans" font-size="10.00">qc_bench</text>
</g>
<!-- 1 -->
<g id="node2" class="node">
<title>1</title>
<path fill="none" stroke="#97d856" stroke-width="2" d="M375.38,-108C375.38,-108 323.38,-108 323.38,-108 317.38,-108 311.38,-102 311.38,-96 311.38,-96 311.38,-84 311.38,-84 311.38,-78 317.38,-72 323.38,-72 323.38,-72 375.38,-72 375.38,-72 381.38,-72 387.38,-78 387.38,-84 387.38,-84 387.38,-96 387.38,-96 387.38,-102 381.38,-108 375.38,-108"/>
<text xml:space="preserve" text-anchor="middle" x="349.38" y="-86.88" font-family="sans" font-size="10.00">multiqc_raw</text>
</g>
<!-- 1&#45;&gt;0 -->
<g id="edge1" class="edge">
<title>1&#45;&gt;0</title>
<path fill="none" stroke="grey" stroke-width="2" d="M387.99,-73.46C415.11,-62.55 451.44,-47.94 479.63,-36.6"/>
<polygon fill="grey" stroke="grey" stroke-width="2" points="480.78,-39.91 488.75,-32.93 478.17,-33.41 480.78,-39.91"/>
</g>
<!-- 2 -->
<g id="node3" class="node">
<title>2</title>
<path fill="none" stroke="#d89556" stroke-width="2" d="M112.75,-180C112.75,-180 12,-180 12,-180 6,-180 0,-174 0,-168 0,-168 0,-156 0,-156 0,-150 6,-144 12,-144 12,-144 112.75,-144 112.75,-144 118.75,-144 124.75,-150 124.75,-156 124.75,-156 124.75,-168 124.75,-168 124.75,-174 118.75,-180 112.75,-180"/>
<text xml:space="preserve" text-anchor="middle" x="62.38" y="-165.25" font-family="sans" font-size="10.00">fastqc_raw</text>
<text xml:space="preserve" text-anchor="middle" x="62.38" y="-152.5" font-family="sans" font-size="10.00">sample_pr: Exp_2_3_1</text>
</g>
<!-- 2&#45;&gt;1 -->
<g id="edge3" class="edge">
<title>2&#45;&gt;1</title>
<path fill="none" stroke="grey" stroke-width="2" d="M125.71,-145.55C177.43,-132.94 249.59,-115.34 297.82,-103.57"/>
<polygon fill="grey" stroke="grey" stroke-width="2" points="298.62,-106.98 307.51,-101.21 296.96,-100.18 298.62,-106.98"/>
</g>
<!-- 3 -->
<g id="node4" class="node">
<title>3</title>
<path fill="none" stroke="#d89556" stroke-width="2" d="M255.75,-180C255.75,-180 155,-180 155,-180 149,-180 143,-174 143,-168 143,-168 143,-156 143,-156 143,-150 149,-144 155,-144 155,-144 255.75,-144 255.75,-144 261.75,-144 267.75,-150 267.75,-156 267.75,-156 267.75,-168 267.75,-168 267.75,-174 261.75,-180 255.75,-180"/>
<text xml:space="preserve" text-anchor="middle" x="205.38" y="-165.25" font-family="sans" font-size="10.00">fastqc_raw</text>
<text xml:space="preserve" text-anchor="middle" x="205.38" y="-152.5" font-family="sans" font-size="10.00">sample_pr: Exp_2_3_2</text>
</g>
<!-- 3&#45;&gt;1 -->
<g id="edge4" class="edge">
<title>3&#45;&gt;1</title>
<path fill="none" stroke="grey" stroke-width="2" d="M242.08,-143.15C259.96,-134.47 281.68,-123.91 300.9,-114.56"/>
<polygon fill="grey" stroke="grey" stroke-width="2" points="302.3,-117.78 309.76,-110.26 299.24,-111.48 302.3,-117.78"/>
</g>
<!-- 4 -->
<g id="node5" class="node">
<title>4</title>
<path fill="none" stroke="#d89556" stroke-width="2" d="M400.5,-180C400.5,-180 298.25,-180 298.25,-180 292.25,-180 286.25,-174 286.25,-168 286.25,-168 286.25,-156 286.25,-156 286.25,-150 292.25,-144 298.25,-144 298.25,-144 400.5,-144 400.5,-144 406.5,-144 412.5,-150 412.5,-156 412.5,-156 412.5,-168 412.5,-168 412.5,-174 406.5,-180 400.5,-180"/>
<text xml:space="preserve" text-anchor="middle" x="349.38" y="-165.25" font-family="sans" font-size="10.00">fastqc_raw</text>
<text xml:space="preserve" text-anchor="middle" x="349.38" y="-152.5" font-family="sans" font-size="10.00">sample_pr: Neg_1_2_1</text>
</g>
<!-- 4&#45;&gt;1 -->
<g id="edge5" class="edge">
<title>4&#45;&gt;1</title>
<path fill="none" stroke="grey" stroke-width="2" d="M349.38,-143.34C349.38,-136.75 349.38,-129.08 349.38,-121.67"/>
<polygon fill="grey" stroke="grey" stroke-width="2" points="352.88,-121.93 349.38,-111.93 345.88,-121.93 352.88,-121.93"/>
</g>
<!-- 5 -->
<g id="node6" class="node">
<title>5</title>
<path fill="none" stroke="#d89556" stroke-width="2" d="M544.5,-180C544.5,-180 442.25,-180 442.25,-180 436.25,-180 430.25,-174 430.25,-168 430.25,-168 430.25,-156 430.25,-156 430.25,-150 436.25,-144 442.25,-144 442.25,-144 544.5,-144 544.5,-144 550.5,-144 556.5,-150 556.5,-156 556.5,-156 556.5,-168 556.5,-168 556.5,-174 550.5,-180 544.5,-180"/>
<text xml:space="preserve" text-anchor="middle" x="493.38" y="-165.25" font-family="sans" font-size="10.00">fastqc_raw</text>
<text xml:space="preserve" text-anchor="middle" x="493.38" y="-152.5" font-family="sans" font-size="10.00">sample_pr: Neg_1_2_2</text>
</g>
<!-- 5&#45;&gt;1 -->
<g id="edge6" class="edge">
<title>5&#45;&gt;1</title>
<path fill="none" stroke="grey" stroke-width="2" d="M456.67,-143.15C438.79,-134.47 417.07,-123.91 397.85,-114.56"/>
<polygon fill="grey" stroke="grey" stroke-width="2" points="399.51,-111.48 388.99,-110.26 396.45,-117.78 399.51,-111.48"/>
</g>
<!-- 6 -->
<g id="node7" class="node">
<title>6</title>
<path fill="none" stroke="#80d856" stroke-width="2" d="M735.38,-108C735.38,-108 659.38,-108 659.38,-108 653.38,-108 647.38,-102 647.38,-96 647.38,-96 647.38,-84 647.38,-84 647.38,-78 653.38,-72 659.38,-72 659.38,-72 735.38,-72 735.38,-72 741.38,-72 747.38,-78 747.38,-84 747.38,-84 747.38,-96 747.38,-96 747.38,-102 741.38,-108 735.38,-108"/>
<text xml:space="preserve" text-anchor="middle" x="697.38" y="-86.88" font-family="sans" font-size="10.00">multiqc_trimmed</text>
</g>
<!-- 6&#45;&gt;0 -->
<g id="edge2" class="edge">
<title>6&#45;&gt;0</title>
<path fill="none" stroke="grey" stroke-width="2" d="M653.02,-71.15C626.59,-60.52 593.2,-47.09 566.92,-36.52"/>
<polygon fill="grey" stroke="grey" stroke-width="2" points="568.42,-33.35 557.83,-32.86 565.8,-39.84 568.42,-33.35"/>
</g>
<!-- 7 -->
<g id="node8" class="node">
<title>7</title>
<path fill="none" stroke="#d8ac56" stroke-width="2" d="M511,-252C511,-252 441.75,-252 441.75,-252 435.75,-252 429.75,-246 429.75,-240 429.75,-240 429.75,-228 429.75,-228 429.75,-222 435.75,-216 441.75,-216 441.75,-216 511,-216 511,-216 517,-216 523,-222 523,-228 523,-228 523,-240 523,-240 523,-246 517,-252 511,-252"/>
<text xml:space="preserve" text-anchor="middle" x="476.38" y="-237.25" font-family="sans" font-size="10.00">fastqc_trimmed</text>
<text xml:space="preserve" text-anchor="middle" x="476.38" y="-224.5" font-family="sans" font-size="10.00">type: R1</text>
</g>
<!-- 7&#45;&gt;6 -->
<g id="edge7" class="edge">
<title>7&#45;&gt;6</title>
<path fill="none" stroke="grey" stroke-width="2" d="M508.18,-215.16C525.39,-205.24 546.85,-192.41 565.38,-180 587.53,-165.16 591.41,-159.13 613.38,-144 627.38,-134.35 643.06,-124.27 657.05,-115.52"/>
<polygon fill="grey" stroke="grey" stroke-width="2" points="658.62,-118.67 665.27,-110.42 654.93,-112.72 658.62,-118.67"/>
</g>
<!-- 8 -->
<g id="node9" class="node">
<title>8</title>
<path fill="none" stroke="#566bd8" stroke-width="2" d="M628,-324C628,-324 546.75,-324 546.75,-324 540.75,-324 534.75,-318 534.75,-312 534.75,-312 534.75,-300 534.75,-300 534.75,-294 540.75,-288 546.75,-288 546.75,-288 628,-288 628,-288 634,-288 640,-294 640,-300 640,-300 640,-312 640,-312 640,-318 634,-324 628,-324"/>
<text xml:space="preserve" text-anchor="middle" x="587.38" y="-309.25" font-family="sans" font-size="10.00">trimmomatic_trim</text>
<text xml:space="preserve" text-anchor="middle" x="587.38" y="-296.5" font-family="sans" font-size="10.00">sample: Exp_2_3</text>
</g>
<!-- 8&#45;&gt;7 -->
<g id="edge13" class="edge">
<title>8&#45;&gt;7</title>
<path fill="none" stroke="grey" stroke-width="2" d="M559.08,-287.15C545.77,-278.76 529.69,-268.62 515.26,-259.52"/>
<polygon fill="grey" stroke="grey" stroke-width="2" points="517.51,-256.8 507.18,-254.43 513.77,-262.72 517.51,-256.8"/>
</g>
<!-- 9 -->
<g id="node10" class="node">
<title>9</title>
<path fill="none" stroke="#d8ac56" stroke-width="2" d="M622,-252C622,-252 552.75,-252 552.75,-252 546.75,-252 540.75,-246 540.75,-240 540.75,-240 540.75,-228 540.75,-228 540.75,-222 546.75,-216 552.75,-216 552.75,-216 622,-216 622,-216 628,-216 634,-222 634,-228 634,-228 634,-240 634,-240 634,-246 628,-252 622,-252"/>
<text xml:space="preserve" text-anchor="middle" x="587.38" y="-237.25" font-family="sans" font-size="10.00">fastqc_trimmed</text>
<text xml:space="preserve" text-anchor="middle" x="587.38" y="-224.5" font-family="sans" font-size="10.00">type: R2</text>
</g>
<!-- 8&#45;&gt;9 -->
<g id="edge14" class="edge">
<title>8&#45;&gt;9</title>
<path fill="none" stroke="grey" stroke-width="2" d="M587.38,-287.34C587.38,-280.75 587.38,-273.08 587.38,-265.67"/>
<polygon fill="grey" stroke="grey" stroke-width="2" points="590.88,-265.93 587.38,-255.93 583.88,-265.93 590.88,-265.93"/>
</g>
<!-- 11 -->
<g id="node12" class="node">
<title>11</title>
<path fill="none" stroke="#569ad8" stroke-width="2" d="M716.75,-252C716.75,-252 664,-252 664,-252 658,-252 652,-246 652,-240 652,-240 652,-228 652,-228 652,-222 658,-216 664,-216 664,-216 716.75,-216 716.75,-216 722.75,-216 728.75,-222 728.75,-228 728.75,-228 728.75,-240 728.75,-240 728.75,-246 722.75,-252 716.75,-252"/>
<text xml:space="preserve" text-anchor="middle" x="690.38" y="-230.88" font-family="sans" font-size="10.00">trim_join_SE</text>
</g>
<!-- 8&#45;&gt;11 -->
<g id="edge16" class="edge">
<title>8&#45;&gt;11</title>
<path fill="none" stroke="grey" stroke-width="2" d="M613.63,-287.15C625.74,-278.93 640.32,-269.02 653.5,-260.06"/>
<polygon fill="grey" stroke="grey" stroke-width="2" points="655.36,-263.03 661.66,-254.51 651.42,-257.24 655.36,-263.03"/>
</g>
<!-- 9&#45;&gt;6 -->
<g id="edge8" class="edge">
<title>9&#45;&gt;6</title>
<path fill="none" stroke="grey" stroke-width="2" d="M596.43,-215.03C606.25,-196.37 622.98,-166.78 641.38,-144 648.83,-134.77 657.83,-125.57 666.42,-117.5"/>
<polygon fill="grey" stroke="grey" stroke-width="2" points="668.57,-120.28 673.6,-110.96 663.85,-115.11 668.57,-120.28"/>
</g>
<!-- 10 -->
<g id="node11" class="node">
<title>10</title>
<path fill="none" stroke="#d8ac56" stroke-width="2" d="M732,-180C732,-180 662.75,-180 662.75,-180 656.75,-180 650.75,-174 650.75,-168 650.75,-168 650.75,-156 650.75,-156 650.75,-150 656.75,-144 662.75,-144 662.75,-144 732,-144 732,-144 738,-144 744,-150 744,-156 744,-156 744,-168 744,-168 744,-174 738,-180 732,-180"/>
<text xml:space="preserve" text-anchor="middle" x="697.38" y="-165.25" font-family="sans" font-size="10.00">fastqc_trimmed</text>
<text xml:space="preserve" text-anchor="middle" x="697.38" y="-152.5" font-family="sans" font-size="10.00">type: SE</text>
</g>
<!-- 10&#45;&gt;6 -->
<g id="edge9" class="edge">
<title>10&#45;&gt;6</title>
<path fill="none" stroke="grey" stroke-width="2" d="M697.38,-143.34C697.38,-136.75 697.38,-129.08 697.38,-121.67"/>
<polygon fill="grey" stroke="grey" stroke-width="2" points="700.88,-121.93 697.38,-111.93 693.88,-121.93 700.88,-121.93"/>
</g>
<!-- 11&#45;&gt;10 -->
<g id="edge15" class="edge">
<title>11&#45;&gt;10</title>
<path fill="none" stroke="grey" stroke-width="2" d="M692.14,-215.34C692.8,-208.75 693.57,-201.08 694.31,-193.67"/>
<polygon fill="grey" stroke="grey" stroke-width="2" points="697.77,-194.21 695.28,-183.91 690.81,-193.52 697.77,-194.21"/>
</g>
<!-- 12 -->
<g id="node13" class="node">
<title>12</title>
<path fill="none" stroke="#d8ac56" stroke-width="2" d="M828,-252C828,-252 758.75,-252 758.75,-252 752.75,-252 746.75,-246 746.75,-240 746.75,-240 746.75,-228 746.75,-228 746.75,-222 752.75,-216 758.75,-216 758.75,-216 828,-216 828,-216 834,-216 840,-222 840,-228 840,-228 840,-240 840,-240 840,-246 834,-252 828,-252"/>
<text xml:space="preserve" text-anchor="middle" x="793.38" y="-237.25" font-family="sans" font-size="10.00">fastqc_trimmed</text>
<text xml:space="preserve" text-anchor="middle" x="793.38" y="-224.5" font-family="sans" font-size="10.00">type: R1</text>
</g>
<!-- 12&#45;&gt;6 -->
<g id="edge10" class="edge">
<title>12&#45;&gt;6</title>
<path fill="none" stroke="grey" stroke-width="2" d="M787.7,-215.21C781.21,-196.44 769.37,-166.51 753.38,-144 746.69,-134.59 738.15,-125.5 729.77,-117.59"/>
<polygon fill="grey" stroke="grey" stroke-width="2" points="732.14,-115.02 722.37,-110.92 727.45,-120.22 732.14,-115.02"/>
</g>
<!-- 13 -->
<g id="node14" class="node">
<title>13</title>
<path fill="none" stroke="#566bd8" stroke-width="2" d="M945,-324C945,-324 863.75,-324 863.75,-324 857.75,-324 851.75,-318 851.75,-312 851.75,-312 851.75,-300 851.75,-300 851.75,-294 857.75,-288 863.75,-288 863.75,-288 945,-288 945,-288 951,-288 957,-294 957,-300 957,-300 957,-312 957,-312 957,-318 951,-324 945,-324"/>
<text xml:space="preserve" text-anchor="middle" x="904.38" y="-309.25" font-family="sans" font-size="10.00">trimmomatic_trim</text>
<text xml:space="preserve" text-anchor="middle" x="904.38" y="-296.5" font-family="sans" font-size="10.00">sample: Neg_1_2</text>
</g>
<!-- 13&#45;&gt;12 -->
<g id="edge17" class="edge">
<title>13&#45;&gt;12</title>
<path fill="none" stroke="grey" stroke-width="2" d="M876.08,-287.15C862.77,-278.76 846.69,-268.62 832.26,-259.52"/>
<polygon fill="grey" stroke="grey" stroke-width="2" points="834.51,-256.8 824.18,-254.43 830.77,-262.72 834.51,-256.8"/>
</g>
<!-- 14 -->
<g id="node15" class="node">
<title>14</title>
<path fill="none" stroke="#d8ac56" stroke-width="2" d="M939,-252C939,-252 869.75,-252 869.75,-252 863.75,-252 857.75,-246 857.75,-240 857.75,-240 857.75,-228 857.75,-228 857.75,-222 863.75,-216 869.75,-216 869.75,-216 939,-216 939,-216 945,-216 951,-222 951,-228 951,-228 951,-240 951,-240 951,-246 945,-252 939,-252"/>
<text xml:space="preserve" text-anchor="middle" x="904.38" y="-237.25" font-family="sans" font-size="10.00">fastqc_trimmed</text>
<text xml:space="preserve" text-anchor="middle" x="904.38" y="-224.5" font-family="sans" font-size="10.00">type: R2</text>
</g>
<!-- 13&#45;&gt;14 -->
<g id="edge18" class="edge">
<title>13&#45;&gt;14</title>
<path fill="none" stroke="grey" stroke-width="2" d="M904.38,-287.34C904.38,-280.75 904.38,-273.08 904.38,-265.67"/>
<polygon fill="grey" stroke="grey" stroke-width="2" points="907.88,-265.93 904.38,-255.93 900.88,-265.93 907.88,-265.93"/>
</g>
<!-- 16 -->
<g id="node17" class="node">
<title>16</title>
<path fill="none" stroke="#569ad8" stroke-width="2" d="M1033.75,-252C1033.75,-252 981,-252 981,-252 975,-252 969,-246 969,-240 969,-240 969,-228 969,-228 969,-222 975,-216 981,-216 981,-216 1033.75,-216 1033.75,-216 1039.75,-216 1045.75,-222 1045.75,-228 1045.75,-228 1045.75,-240 1045.75,-240 1045.75,-246 1039.75,-252 1033.75,-252"/>
<text xml:space="preserve" text-anchor="middle" x="1007.38" y="-230.88" font-family="sans" font-size="10.00">trim_join_SE</text>
</g>
<!-- 13&#45;&gt;16 -->
<g id="edge20" class="edge">
<title>13&#45;&gt;16</title>
<path fill="none" stroke="grey" stroke-width="2" d="M930.63,-287.15C942.74,-278.93 957.32,-269.02 970.5,-260.06"/>
<polygon fill="grey" stroke="grey" stroke-width="2" points="972.36,-263.03 978.66,-254.51 968.42,-257.24 972.36,-263.03"/>
</g>
<!-- 14&#45;&gt;6 -->
<g id="edge11" class="edge">
<title>14&#45;&gt;6</title>
<path fill="none" stroke="grey" stroke-width="2" d="M879.21,-215.07C853.68,-196.96 812.97,-168.26 777.38,-144 763.82,-134.76 748.86,-124.8 735.58,-116.02"/>
<polygon fill="grey" stroke="grey" stroke-width="2" points="737.7,-113.22 727.42,-110.64 733.84,-119.07 737.7,-113.22"/>
</g>
<!-- 15 -->
<g id="node16" class="node">
<title>15</title>
<path fill="none" stroke="#d8ac56" stroke-width="2" d="M1028,-180C1028,-180 958.75,-180 958.75,-180 952.75,-180 946.75,-174 946.75,-168 946.75,-168 946.75,-156 946.75,-156 946.75,-150 952.75,-144 958.75,-144 958.75,-144 1028,-144 1028,-144 1034,-144 1040,-150 1040,-156 1040,-156 1040,-168 1040,-168 1040,-174 1034,-180 1028,-180"/>
<text xml:space="preserve" text-anchor="middle" x="993.38" y="-165.25" font-family="sans" font-size="10.00">fastqc_trimmed</text>
<text xml:space="preserve" text-anchor="middle" x="993.38" y="-152.5" font-family="sans" font-size="10.00">type: SE</text>
</g>
<!-- 15&#45;&gt;6 -->
<g id="edge12" class="edge">
<title>15&#45;&gt;6</title>
<path fill="none" stroke="grey" stroke-width="2" d="M945.82,-149.75C895.63,-137.89 816.28,-119.12 760.79,-106"/>
<polygon fill="grey" stroke="grey" stroke-width="2" points="761.77,-102.63 751.23,-103.74 760.16,-109.44 761.77,-102.63"/>
</g>
<!-- 16&#45;&gt;15 -->
<g id="edge19" class="edge">
<title>16&#45;&gt;15</title>
<path fill="none" stroke="grey" stroke-width="2" d="M1003.84,-215.34C1002.53,-208.75 1000.99,-201.08 999.51,-193.67"/>
<polygon fill="grey" stroke="grey" stroke-width="2" points="1002.94,-192.99 997.55,-183.87 996.08,-194.36 1002.94,-192.99"/>
</g>
</g>
</svg>
