<?xml version="1.0" encoding="UTF-8" standalone="no"?>
<!DOCTYPE svg PUBLIC "-//W3C//DTD SVG 1.1//EN"
 "http://www.w3.org/Graphics/SVG/1.1/DTD/svg11.dtd">
<!-- Generated by graphviz version 2.43.0 (0)
 -->
<!-- Title: snakemake_dag Pages: 1 -->
<svg width="333pt" height="332pt"
 viewBox="0.00 0.00 332.50 332.00" xmlns="http://www.w3.org/2000/svg" xmlns:xlink="http://www.w3.org/1999/xlink">
<g id="graph0" class="graph" transform="scale(1 1) rotate(0) translate(4 328)">
<title>snakemake_dag</title>
<polygon fill="white" stroke="transparent" points="-4,4 -4,-328 328.5,-328 328.5,4 -4,4"/>
<!-- 0 -->
<g id="node1" class="node">
<title>0</title>
<path fill="none" stroke="#56c9d8" stroke-width="2" d="M160.5,-36C160.5,-36 130.5,-36 130.5,-36 124.5,-36 118.5,-30 118.5,-24 118.5,-24 118.5,-12 118.5,-12 118.5,-6 124.5,0 130.5,0 130.5,0 160.5,0 160.5,0 166.5,0 172.5,-6 172.5,-12 172.5,-12 172.5,-24 172.5,-24 172.5,-30 166.5,-36 160.5,-36"/>
<text text-anchor="middle" x="145.5" y="-15.5" font-family="sans" font-size="10.00">all</text>
</g>
<!-- 1 -->
<g id="node2" class="node">
<title>1</title>
<path fill="none" stroke="#56d8a2" stroke-width="2" d="M65,-108C65,-108 12,-108 12,-108 6,-108 0,-102 0,-96 0,-96 0,-84 0,-84 0,-78 6,-72 12,-72 12,-72 65,-72 65,-72 71,-72 77,-78 77,-84 77,-84 77,-96 77,-96 77,-102 71,-108 65,-108"/>
<text text-anchor="middle" x="38.5" y="-87.5" font-family="sans" font-size="10.00">multiqc_raw</text>
</g>
<!-- 1&#45;&gt;0 -->
<g id="edge2" class="edge">
<title>1&#45;&gt;0</title>
<path fill="none" stroke="grey" stroke-width="2" d="M64.68,-71.88C78.54,-62.81 95.74,-51.55 110.71,-41.76"/>
<polygon fill="grey" stroke="grey" stroke-width="2" points="112.77,-44.59 119.22,-36.19 108.94,-38.74 112.77,-44.59"/>
</g>
<!-- 2 -->
<g id="node3" class="node">
<title>2</title>
<path fill="none" stroke="#56d87b" stroke-width="2" d="M61.5,-180C61.5,-180 15.5,-180 15.5,-180 9.5,-180 3.5,-174 3.5,-168 3.5,-168 3.5,-156 3.5,-156 3.5,-150 9.5,-144 15.5,-144 15.5,-144 61.5,-144 61.5,-144 67.5,-144 73.5,-150 73.5,-156 73.5,-156 73.5,-168 73.5,-168 73.5,-174 67.5,-180 61.5,-180"/>
<text text-anchor="middle" x="38.5" y="-159.5" font-family="sans" font-size="10.00">fastqc_raw</text>
</g>
<!-- 2&#45;&gt;1 -->
<g id="edge4" class="edge">
<title>2&#45;&gt;1</title>
<path fill="none" stroke="grey" stroke-width="2" d="M38.5,-143.7C38.5,-135.98 38.5,-126.71 38.5,-118.11"/>
<polygon fill="grey" stroke="grey" stroke-width="2" points="42,-118.1 38.5,-108.1 35,-118.1 42,-118.1"/>
</g>
<!-- 3 -->
<g id="node4" class="node">
<title>3</title>
<path fill="none" stroke="#59d856" stroke-width="2" d="M184,-108C184,-108 107,-108 107,-108 101,-108 95,-102 95,-96 95,-96 95,-84 95,-84 95,-78 101,-72 107,-72 107,-72 184,-72 184,-72 190,-72 196,-78 196,-84 196,-84 196,-96 196,-96 196,-102 190,-108 184,-108"/>
<text text-anchor="middle" x="145.5" y="-87.5" font-family="sans" font-size="10.00">multiqc_trimmed</text>
</g>
<!-- 3&#45;&gt;0 -->
<g id="edge1" class="edge">
<title>3&#45;&gt;0</title>
<path fill="none" stroke="grey" stroke-width="2" d="M145.5,-71.7C145.5,-63.98 145.5,-54.71 145.5,-46.11"/>
<polygon fill="grey" stroke="grey" stroke-width="2" points="149,-46.1 145.5,-36.1 142,-46.1 149,-46.1"/>
</g>
<!-- 4 -->
<g id="node5" class="node">
<title>4</title>
<path fill="none" stroke="#d8a456" stroke-width="2" d="M178.5,-180C178.5,-180 108.5,-180 108.5,-180 102.5,-180 96.5,-174 96.5,-168 96.5,-168 96.5,-156 96.5,-156 96.5,-150 102.5,-144 108.5,-144 108.5,-144 178.5,-144 178.5,-144 184.5,-144 190.5,-150 190.5,-156 190.5,-156 190.5,-168 190.5,-168 190.5,-174 184.5,-180 178.5,-180"/>
<text text-anchor="middle" x="143.5" y="-159.5" font-family="sans" font-size="10.00">fastqc_trimmed</text>
</g>
<!-- 4&#45;&gt;3 -->
<g id="edge5" class="edge">
<title>4&#45;&gt;3</title>
<path fill="none" stroke="grey" stroke-width="2" d="M143.99,-143.7C144.21,-135.98 144.48,-126.71 144.73,-118.11"/>
<polygon fill="grey" stroke="grey" stroke-width="2" points="148.22,-118.2 145.01,-108.1 141.23,-118 148.22,-118.2"/>
</g>
<!-- 5 -->
<g id="node6" class="node">
<title>5</title>
<path fill="none" stroke="#567bd8" stroke-width="2" d="M200.5,-324C200.5,-324 118.5,-324 118.5,-324 112.5,-324 106.5,-318 106.5,-312 106.5,-312 106.5,-300 106.5,-300 106.5,-294 112.5,-288 118.5,-288 118.5,-288 200.5,-288 200.5,-288 206.5,-288 212.5,-294 212.5,-300 212.5,-300 212.5,-312 212.5,-312 212.5,-318 206.5,-324 200.5,-324"/>
<text text-anchor="middle" x="159.5" y="-303.5" font-family="sans" font-size="10.00">trimmomatic_trim</text>
</g>
<!-- 5&#45;&gt;4 -->
<g id="edge7" class="edge">
<title>5&#45;&gt;4</title>
<path fill="none" stroke="grey" stroke-width="2" d="M141.77,-287.6C133.26,-278 123.97,-265.34 119.5,-252 112.55,-231.26 119.87,-207.29 128.19,-189.46"/>
<polygon fill="grey" stroke="grey" stroke-width="2" points="131.46,-190.75 132.84,-180.24 125.21,-187.6 131.46,-190.75"/>
</g>
<!-- 6 -->
<g id="node7" class="node">
<title>6</title>
<path fill="none" stroke="#d8c356" stroke-width="2" d="M194,-252C194,-252 141,-252 141,-252 135,-252 129,-246 129,-240 129,-240 129,-228 129,-228 129,-222 135,-216 141,-216 141,-216 194,-216 194,-216 200,-216 206,-222 206,-228 206,-228 206,-240 206,-240 206,-246 200,-252 194,-252"/>
<text text-anchor="middle" x="167.5" y="-231.5" font-family="sans" font-size="10.00">trim_join_SE</text>
</g>
<!-- 5&#45;&gt;6 -->
<g id="edge8" class="edge">
<title>5&#45;&gt;6</title>
<path fill="none" stroke="grey" stroke-width="2" d="M161.48,-287.7C162.36,-279.98 163.42,-270.71 164.4,-262.11"/>
<polygon fill="grey" stroke="grey" stroke-width="2" points="167.89,-262.44 165.55,-252.1 160.93,-261.64 167.89,-262.44"/>
</g>
<!-- 9 -->
<g id="node10" class="node">
<title>9</title>
<path fill="none" stroke="#78d856" stroke-width="2" d="M292.5,-252C292.5,-252 240.5,-252 240.5,-252 234.5,-252 228.5,-246 228.5,-240 228.5,-240 228.5,-228 228.5,-228 228.5,-222 234.5,-216 240.5,-216 240.5,-216 292.5,-216 292.5,-216 298.5,-216 304.5,-222 304.5,-228 304.5,-228 304.5,-240 304.5,-240 304.5,-246 298.5,-252 292.5,-252"/>
<text text-anchor="middle" x="266.5" y="-231.5" font-family="sans" font-size="10.00">hisat2_align</text>
</g>
<!-- 5&#45;&gt;9 -->
<g id="edge11" class="edge">
<title>5&#45;&gt;9</title>
<path fill="none" stroke="grey" stroke-width="2" d="M185.68,-287.88C199.54,-278.81 216.74,-267.55 231.71,-257.76"/>
<polygon fill="grey" stroke="grey" stroke-width="2" points="233.77,-260.59 240.22,-252.19 229.94,-254.74 233.77,-260.59"/>
</g>
<!-- 6&#45;&gt;4 -->
<g id="edge6" class="edge">
<title>6&#45;&gt;4</title>
<path fill="none" stroke="grey" stroke-width="2" d="M161.57,-215.7C158.89,-207.9 155.67,-198.51 152.7,-189.83"/>
<polygon fill="grey" stroke="grey" stroke-width="2" points="155.92,-188.43 149.36,-180.1 149.3,-190.7 155.92,-188.43"/>
</g>
<!-- 7 -->
<g id="node8" class="node">
<title>7</title>
<path fill="none" stroke="#c6d856" stroke-width="2" d="M301.5,-108C301.5,-108 229.5,-108 229.5,-108 223.5,-108 217.5,-102 217.5,-96 217.5,-96 217.5,-84 217.5,-84 217.5,-78 223.5,-72 229.5,-72 229.5,-72 301.5,-72 301.5,-72 307.5,-72 313.5,-78 313.5,-84 313.5,-84 313.5,-96 313.5,-96 313.5,-102 307.5,-108 301.5,-108"/>
<text text-anchor="middle" x="265.5" y="-87.5" font-family="sans" font-size="10.00">stringtie_quality</text>
</g>
<!-- 7&#45;&gt;0 -->
<g id="edge3" class="edge">
<title>7&#45;&gt;0</title>
<path fill="none" stroke="grey" stroke-width="2" d="M236.14,-71.88C219.6,-62.23 198.81,-50.1 181.31,-39.89"/>
<polygon fill="grey" stroke="grey" stroke-width="2" points="182.9,-36.77 172.5,-34.75 179.37,-42.81 182.9,-36.77"/>
</g>
<!-- 8 -->
<g id="node9" class="node">
<title>8</title>
<path fill="none" stroke="#56d8c9" stroke-width="2" d="M312.5,-180C312.5,-180 220.5,-180 220.5,-180 214.5,-180 208.5,-174 208.5,-168 208.5,-168 208.5,-156 208.5,-156 208.5,-150 214.5,-144 220.5,-144 220.5,-144 312.5,-144 312.5,-144 318.5,-144 324.5,-150 324.5,-156 324.5,-156 324.5,-168 324.5,-168 324.5,-174 318.5,-180 312.5,-180"/>
<text text-anchor="middle" x="266.5" y="-159.5" font-family="sans" font-size="10.00">stringtie_expression</text>
</g>
<!-- 8&#45;&gt;7 -->
<g id="edge9" class="edge">
<title>8&#45;&gt;7</title>
<path fill="none" stroke="grey" stroke-width="2" d="M266.25,-143.7C266.14,-135.98 266.01,-126.71 265.89,-118.11"/>
<polygon fill="grey" stroke="grey" stroke-width="2" points="269.39,-118.05 265.74,-108.1 262.39,-118.15 269.39,-118.05"/>
</g>
<!-- 9&#45;&gt;8 -->
<g id="edge10" class="edge">
<title>9&#45;&gt;8</title>
<path fill="none" stroke="grey" stroke-width="2" d="M266.5,-215.7C266.5,-207.98 266.5,-198.71 266.5,-190.11"/>
<polygon fill="grey" stroke="grey" stroke-width="2" points="270,-190.1 266.5,-180.1 263,-190.1 270,-190.1"/>
</g>
<!-- 10 -->
<g id="node11" class="node">
<title>10</title>
<path fill="none" stroke="#9fd856" stroke-width="2" d="M298,-324C298,-324 243,-324 243,-324 237,-324 231,-318 231,-312 231,-312 231,-300 231,-300 231,-294 237,-288 243,-288 243,-288 298,-288 298,-288 304,-288 310,-294 310,-300 310,-300 310,-312 310,-312 310,-318 304,-324 298,-324"/>
<text text-anchor="middle" x="270.5" y="-303.5" font-family="sans" font-size="10.00">hisat2_index</text>
</g>
<!-- 10&#45;&gt;9 -->
<g id="edge12" class="edge">
<title>10&#45;&gt;9</title>
<path fill="none" stroke="grey" stroke-width="2" d="M269.51,-287.7C269.07,-279.98 268.54,-270.71 268.05,-262.11"/>
<polygon fill="grey" stroke="grey" stroke-width="2" points="271.54,-261.89 267.48,-252.1 264.55,-262.29 271.54,-261.89"/>
</g>
</g>
</svg>
