<?xml version="1.0" encoding="UTF-8" standalone="no"?>
<!DOCTYPE svg PUBLIC "-//W3C//DTD SVG 1.1//EN"
 "http://www.w3.org/Graphics/SVG/1.1/DTD/svg11.dtd">
<!-- Generated by graphviz version 14.1.2 (20260126.1125)
 -->
<!-- Title: snakemake_dag Pages: 1 -->
<svg width="471pt" height="116pt"
 viewBox="0.00 0.00 471.00 116.00" xmlns="http://www.w3.org/2000/svg" xmlns:xlink="http://www.w3.org/1999/xlink">
<g id="graph0" class="graph" transform="scale(1 1) rotate(0) translate(4 112)">
<title>snakemake_dag</title>
<polygon fill="white" stroke="none" points="-4,4 -4,-112 466.88,-112 466.88,4 -4,4"/>
<!-- 0 -->
<g id="node1" class="node">
<title>0</title>
<path fill="none" stroke="#56a9d8" stroke-width="2" d="M249.62,-36C249.62,-36 202.88,-36 202.88,-36 196.88,-36 190.88,-30 190.88,-24 190.88,-24 190.88,-12 190.88,-12 190.88,-6 196.88,0 202.88,0 202.88,0 249.62,0 249.62,0 255.62,0 261.62,-6 261.62,-12 261.62,-12 261.62,-24 261.62,-24 261.62,-30 255.62,-36 249.62,-36"/>
<text xml:space="preserve" text-anchor="middle" x="226.25" y="-14.88" font-family="sans" font-size="10.00">trim_bench</text>
</g>
<!-- 1 -->
<g id="node2" class="node">
<title>1</title>
<path fill="none" stroke="#567bd8" stroke-width="2" d="M86.5,-108C86.5,-108 12,-108 12,-108 6,-108 0,-102 0,-96 0,-96 0,-84 0,-84 0,-78 6,-72 12,-72 12,-72 86.5,-72 86.5,-72 92.5,-72 98.5,-78 98.5,-84 98.5,-84 98.5,-96 98.5,-96 98.5,-102 92.5,-108 86.5,-108"/>
<text xml:space="preserve" text-anchor="middle" x="49.25" y="-93.25" font-family="sans" font-size="10.00">trimgalore_trim</text>
<text xml:space="preserve" text-anchor="middle" x="49.25" y="-80.5" font-family="sans" font-size="10.00">sample: Exp_2_3</text>
</g>
<!-- 1&#45;&gt;0 -->
<g id="edge1" class="edge">
<title>1&#45;&gt;0</title>
<path fill="none" stroke="grey" stroke-width="2" d="M94.37,-71.15C120.01,-61.01 152.11,-48.32 178.22,-38"/>
<polygon fill="grey" stroke="grey" stroke-width="2" points="179.3,-41.33 187.31,-34.4 176.72,-34.82 179.3,-41.33"/>
</g>
<!-- 2 -->
<g id="node3" class="node">
<title>2</title>
<path fill="none" stroke="#567bd8" stroke-width="2" d="M204.25,-108C204.25,-108 128.25,-108 128.25,-108 122.25,-108 116.25,-102 116.25,-96 116.25,-96 116.25,-84 116.25,-84 116.25,-78 122.25,-72 128.25,-72 128.25,-72 204.25,-72 204.25,-72 210.25,-72 216.25,-78 216.25,-84 216.25,-84 216.25,-96 216.25,-96 216.25,-102 210.25,-108 204.25,-108"/>
<text xml:space="preserve" text-anchor="middle" x="166.25" y="-93.25" font-family="sans" font-size="10.00">trimgalore_trim</text>
<text xml:space="preserve" text-anchor="middle" x="166.25" y="-80.5" font-family="sans" font-size="10.00">sample: Neg_1_2</text>
</g>
<!-- 2&#45;&gt;0 -->
<g id="edge2" class="edge">
<title>2&#45;&gt;0</title>
<path fill="none" stroke="grey" stroke-width="2" d="M181.39,-71.34C187.81,-63.85 195.44,-54.95 202.57,-46.63"/>
<polygon fill="grey" stroke="grey" stroke-width="2" points="205.09,-49.07 208.94,-39.2 199.77,-44.51 205.09,-49.07"/>
</g>
<!-- 3 -->
<g id="node4" class="node">
<title>3</title>
<path fill="none" stroke="#566bd8" stroke-width="2" d="M327.88,-108C327.88,-108 246.62,-108 246.62,-108 240.62,-108 234.62,-102 234.62,-96 234.62,-96 234.62,-84 234.62,-84 234.62,-78 240.62,-72 246.62,-72 246.62,-72 327.88,-72 327.88,-72 333.88,-72 339.88,-78 339.88,-84 339.88,-84 339.88,-96 339.88,-96 339.88,-102 333.88,-108 327.88,-108"/>
<text xml:space="preserve" text-anchor="middle" x="287.25" y="-93.25" font-family="sans" font-size="10.00">trimmomatic_trim</text>
<text xml:space="preserve" text-anchor="middle" x="287.25" y="-80.5" font-family="sans" font-size="10.00">sample: Exp_2_3</text>
</g>
<!-- 3&#45;&gt;0 -->
<g id="edge3" class="edge">
<title>3&#45;&gt;0</title>
<path fill="none" stroke="grey" stroke-width="2" d="M271.86,-71.34C265.33,-63.85 257.58,-54.95 250.33,-46.63"/>
<polygon fill="grey" stroke="grey" stroke-width="2" points="253.05,-44.42 243.84,-39.18 247.77,-49.02 253.05,-44.42"/>
</g>
<!-- 4 -->
<g id="node5" class="node">
<title>4</title>
<path fill="none" stroke="#566bd8" stroke-width="2" d="M450.88,-108C450.88,-108 369.62,-108 369.62,-108 363.62,-108 357.62,-102 357.62,-96 357.62,-96 357.62,-84 357.62,-84 357.62,-78 363.62,-72 369.62,-72 369.62,-72 450.88,-72 450.88,-72 456.88,-72 462.88,-78 462.88,-84 462.88,-84 462.88,-96 462.88,-96 462.88,-102 456.88,-108 450.88,-108"/>
<text xml:space="preserve" text-anchor="middle" x="410.25" y="-93.25" font-family="sans" font-size="10.00">trimmomatic_trim</text>
<text xml:space="preserve" text-anchor="middle" x="410.25" y="-80.5" font-family="sans" font-size="10.00">sample: Neg_1_2</text>
</g>
<!-- 4&#45;&gt;0 -->
<g id="edge4" class="edge">
<title>4&#45;&gt;0</title>
<path fill="none" stroke="grey" stroke-width="2" d="M363.34,-71.15C336.2,-60.83 302.09,-47.85 274.69,-37.43"/>
<polygon fill="grey" stroke="grey" stroke-width="2" points="276.04,-34.2 265.45,-33.91 273.55,-40.74 276.04,-34.2"/>
</g>
</g>
</svg>
